M48
; DRILL file {KiCad 8.0.5} date 2026-02-16T17:17:22+0000
; FORMAT={-:-/ absolute / inch / decimal}
; #@! TF.CreationDate,2026-02-16T17:17:22+00:00
; #@! TF.GenerationSoftware,Kicad,Pcbnew,8.0.5
; #@! TF.FileFunction,Plated,1,4,PTH
FMAT,2
INCH
; #@! TA.AperFunction,Plated,PTH,ViaDrill
T1C0.0118
; #@! TA.AperFunction,Plated,PTH,ViaDrill
T2C0.0197
; #@! TA.AperFunction,Plated,PTH,ComponentDrill
T3C0.0551
%
G90
G05
T1
X7.2441Y-6.2047
X7.2441Y-6.5039
X7.2441Y-6.811
X7.2441Y-7.1181
X7.2441Y-7.4055
X7.2441Y-7.9173
X7.2441Y-8.2244
X7.2441Y-8.5118
X7.2441Y-8.811
X7.248Y-5.6063
X7.248Y-5.9055
X7.2895Y-7.2858
X7.3661Y-8.6585
X7.3661Y-8.7569
X7.3671Y-8.2569
X7.3671Y-8.3553
X7.3671Y-8.4547
X7.3671Y-8.5561
X7.3681Y-8.0561
X7.3681Y-8.1545
X7.3691Y-7.3553
X7.3691Y-7.8553
X7.3691Y-7.9537
X7.3701Y-5.6545
X7.3701Y-5.7579
X7.3701Y-5.8553
X7.3701Y-5.9577
X7.3701Y-6.0561
X7.3701Y-6.1545
X7.3701Y-6.2569
X7.3701Y-6.3583
X7.3701Y-6.4567
X7.3701Y-6.5561
X7.3701Y-6.6535
X7.3701Y-6.7569
X7.3701Y-6.8602
X7.3701Y-6.9577
X7.3701Y-7.0561
X7.3701Y-7.1545
X7.3701Y-7.2539
X7.3701Y-7.4537
X7.3701Y-7.5561
X7.3701Y-7.7569
X7.5394Y-7.7205
X7.6299Y-5.6555
X7.6299Y-7.2598
X7.6299Y-7.5689
X7.6437Y-8.1122
X7.6457Y-7.8563
X7.6555Y-5.9626
X7.6575Y-6.252
X7.6732Y-8.439
X7.6744Y-6.5579
X7.6752Y-6.9921
X7.6752Y-8.7677
X7.7185Y-7.2195
X7.7185Y-7.5901
X7.7185Y-8.1899
X7.719Y-5.689
X7.719Y-6.2933
X7.8248Y-5.9193
X7.8268Y-7.8214
X7.8268Y-8.4212
X7.8269Y-6.0157
X7.8269Y-6.0669
X7.8269Y-6.1181
X7.8269Y-6.1693
X7.8273Y-7.9409
X7.8273Y-7.9921
X7.8273Y-8.0433
X7.8273Y-8.0945
X7.8287Y-8.5177
X7.8287Y-8.5689
X7.8287Y-8.6201
X7.8287Y-8.6713
X7.8292Y-6.5236
X7.8307Y-6.6181
X7.8307Y-6.6693
X7.8307Y-6.7205
X7.8307Y-6.7717
X7.8346Y-7.6068
X7.8409Y-7.2441
X7.8466Y-6.0413
X7.8466Y-6.0925
X7.8466Y-6.1437
X7.8466Y-6.1949
X7.8466Y-7.9665
X7.8469Y-8.0177
X7.8469Y-8.0689
X7.8484Y-8.5433
X7.8484Y-8.5945
X7.8484Y-8.6457
X7.8484Y-8.6969
X7.8504Y-6.6437
X7.8504Y-6.6949
X7.8504Y-6.7461
X7.8504Y-6.7972
X7.8898Y-6.9941
X7.8917Y-7.4272
X7.9217Y-5.7146
X7.9217Y-5.7667
X7.9217Y-5.8169
X7.9217Y-5.8681
X7.9295Y-8.2155
X7.9295Y-8.2666
X7.9295Y-8.3178
X7.9295Y-8.369
X7.9331Y-7.6147
X7.9331Y-7.6668
X7.9331Y-7.7692
X7.9336Y-6.3189
X7.9336Y-6.3701
X7.9336Y-6.4213
X7.9336Y-6.4724
X7.9443Y-5.7402
X7.9443Y-5.7913
X7.9443Y-5.8425
X7.9443Y-5.8937
X7.9492Y-8.241
X7.9492Y-8.2922
X7.9492Y-8.3434
X7.9492Y-8.3948
X7.9528Y-7.6412
X7.9528Y-7.6924
X7.9528Y-7.7436
X7.9528Y-7.7948
X7.9532Y-6.3445
X7.9532Y-6.3957
X7.9532Y-6.4469
X7.9532Y-6.498
X7.9547Y-6.5915
X7.9548Y-5.9902
X7.9568Y-7.8888
X7.9587Y-8.4921
X7.9591Y-7.1663
X8.0591Y-6.8238
X8.0591Y-8.7224
X8.0592Y-6.2205
X8.0592Y-8.1201
X8.1122Y-8.7677
X8.122Y-8.1654
X8.122Y-8.4469
X8.1317Y-7.0593
X8.1457Y-5.6575
X8.1476Y-5.9508
X8.1496Y-6.3071
X8.1516Y-6.5276
X8.1575Y-6.9213
X8.185Y-7.374
X8.2362Y-7.4567
X8.437Y-5.6535
X8.437Y-5.7579
X8.437Y-5.8563
X8.437Y-5.9587
X8.437Y-6.0551
X8.437Y-6.1555
X8.437Y-6.2559
X8.437Y-6.3553
X8.437Y-6.4537
X8.437Y-6.5561
X8.437Y-6.6535
X8.437Y-6.7569
X8.437Y-6.8553
X8.437Y-6.9537
X8.437Y-7.0571
X8.437Y-7.1555
X8.437Y-7.3553
X8.437Y-7.5561
X8.437Y-7.6575
X8.437Y-7.7559
X8.437Y-7.8553
X8.437Y-7.9528
X8.437Y-8.0561
X8.437Y-8.1545
X8.437Y-8.2579
X8.437Y-8.3563
X8.437Y-8.4547
X8.437Y-8.5561
X8.437Y-8.6545
X8.437Y-8.755
X8.5177Y-6.3898
X8.5177Y-6.4882
X8.5177Y-6.5886
X8.5177Y-6.689
X8.5177Y-6.9882
X8.5177Y-7.0925
X8.5177Y-7.1909
X8.5177Y-7.4902
X8.5177Y-7.5906
X8.5177Y-7.6909
X8.5177Y-7.7913
X8.5177Y-7.8917
X8.5177Y-7.9882
X8.5177Y-8.0906
X8.5177Y-8.1929
X8.5295Y-8.2913
X8.5354Y-6.7913
X8.5512Y-6.2047
X8.5512Y-6.5039
X8.5512Y-6.7205
X8.5512Y-7.1181
X8.5512Y-7.4055
X8.5512Y-7.9173
X8.5512Y-8.2244
X8.5512Y-8.5118
X8.5512Y-8.811
X8.5551Y-5.6063
X8.5551Y-5.9055
T2
X7.2894Y-7.6559
T3
X7.4488Y-5.6559
X7.4488Y-5.7559
X7.4488Y-5.8559
X7.4488Y-5.9559
X7.4488Y-6.0559
X7.4488Y-6.1559
X7.4488Y-6.2559
X7.4488Y-6.3559
X7.4488Y-6.4559
X7.4488Y-6.5559
X7.4488Y-6.6559
X7.4488Y-6.7559
X7.4488Y-6.8559
X7.4488Y-6.9559
X7.4488Y-7.0559
X7.4488Y-7.1559
X7.4488Y-7.2559
X7.4488Y-7.3559
X7.4488Y-7.4559
X7.4488Y-7.5559
X7.4488Y-7.6559
X7.4488Y-7.7559
X7.4488Y-7.8559
X7.4488Y-7.9559
X7.4488Y-8.0559
X7.4488Y-8.1559
X7.4488Y-8.2559
X7.4488Y-8.3559
X7.4488Y-8.4559
X7.4488Y-8.5559
X7.4488Y-8.6559
X7.4488Y-8.7559
X8.3488Y-5.6559
X8.3488Y-5.7559
X8.3488Y-5.8559
X8.3488Y-5.9559
X8.3488Y-6.0559
X8.3488Y-6.1559
X8.3488Y-6.2559
X8.3488Y-6.3559
X8.3488Y-6.4559
X8.3488Y-6.5559
X8.3488Y-6.6559
X8.3488Y-6.7559
X8.3488Y-6.8559
X8.3488Y-6.9559
X8.3488Y-7.0559
X8.3488Y-7.1559
X8.3488Y-7.2559
X8.3488Y-7.3559
X8.3488Y-7.4559
X8.3488Y-7.5559
X8.3488Y-7.6559
X8.3488Y-7.7559
X8.3488Y-7.8559
X8.3488Y-7.9559
X8.3488Y-8.0559
X8.3488Y-8.1559
X8.3488Y-8.2559
X8.3488Y-8.3559
X8.3488Y-8.4559
X8.3488Y-8.5559
X8.3488Y-8.6559
X8.3488Y-8.7559
M30
