%TF.GenerationSoftware,KiCad,Pcbnew,8.0.5*%
%TF.CreationDate,2026-02-16T17:17:22+00:00*%
%TF.ProjectId,Blinker Fluid,426c696e-6b65-4722-9046-6c7569642e6b,rev?*%
%TF.SameCoordinates,Original*%
%TF.FileFunction,Soldermask,Top*%
%TF.FilePolarity,Negative*%
%FSLAX46Y46*%
G04 Gerber Fmt 4.6, Leading zero omitted, Abs format (unit mm)*
G04 Created by KiCad (PCBNEW 8.0.5) date 2026-02-16 17:17:22*
%MOMM*%
%LPD*%
G01*
G04 APERTURE LIST*
G04 Aperture macros list*
%AMRoundRect*
0 Rectangle with rounded corners*
0 $1 Rounding radius*
0 $2 $3 $4 $5 $6 $7 $8 $9 X,Y pos of 4 corners*
0 Add a 4 corners polygon primitive as box body*
4,1,4,$2,$3,$4,$5,$6,$7,$8,$9,$2,$3,0*
0 Add four circle primitives for the rounded corners*
1,1,$1+$1,$2,$3*
1,1,$1+$1,$4,$5*
1,1,$1+$1,$6,$7*
1,1,$1+$1,$8,$9*
0 Add four rect primitives between the rounded corners*
20,1,$1+$1,$2,$3,$4,$5,0*
20,1,$1+$1,$4,$5,$6,$7,0*
20,1,$1+$1,$6,$7,$8,$9,0*
20,1,$1+$1,$8,$9,$2,$3,0*%
G04 Aperture macros list end*
%ADD10RoundRect,0.160000X0.222500X0.160000X-0.222500X0.160000X-0.222500X-0.160000X0.222500X-0.160000X0*%
%ADD11RoundRect,0.160000X-0.222500X-0.160000X0.222500X-0.160000X0.222500X0.160000X-0.222500X0.160000X0*%
%ADD12RoundRect,0.100000X0.637500X0.100000X-0.637500X0.100000X-0.637500X-0.100000X0.637500X-0.100000X0*%
%ADD13RoundRect,0.100000X-0.637500X-0.100000X0.637500X-0.100000X0.637500X0.100000X-0.637500X0.100000X0*%
%ADD14RoundRect,0.155000X0.212500X0.155000X-0.212500X0.155000X-0.212500X-0.155000X0.212500X-0.155000X0*%
%ADD15RoundRect,0.250000X-0.400000X-0.275000X0.400000X-0.275000X0.400000X0.275000X-0.400000X0.275000X0*%
%ADD16RoundRect,0.160000X0.197500X0.160000X-0.197500X0.160000X-0.197500X-0.160000X0.197500X-0.160000X0*%
%ADD17R,2.400000X1.600000*%
%ADD18O,2.400000X1.600000*%
%ADD19RoundRect,0.160000X-0.197500X-0.160000X0.197500X-0.160000X0.197500X0.160000X-0.197500X0.160000X0*%
G04 APERTURE END LIST*
D10*
%TO.C,D11*%
X216322500Y-197000000D03*
X215177500Y-197000000D03*
%TD*%
D11*
%TO.C,D38*%
X185177500Y-156325000D03*
X186322500Y-156325000D03*
%TD*%
%TO.C,D43*%
X185177500Y-169000000D03*
X186322500Y-169000000D03*
%TD*%
D12*
%TO.C,U6*%
X203275000Y-165700000D03*
X203275000Y-165050000D03*
X203275000Y-164400000D03*
X203275000Y-163750000D03*
X203275000Y-163100000D03*
X203275000Y-162450000D03*
X203275000Y-161800000D03*
X203275000Y-161150000D03*
X203275000Y-160500000D03*
X203275000Y-159850000D03*
X197550000Y-159850000D03*
X197550000Y-160500000D03*
X197550000Y-161150000D03*
X197550000Y-161800000D03*
X197550000Y-162450000D03*
X197550000Y-163100000D03*
X197550000Y-163750000D03*
X197550000Y-164400000D03*
X197550000Y-165050000D03*
X197550000Y-165700000D03*
%TD*%
D11*
%TO.C,D51*%
X185177500Y-189325000D03*
X186322500Y-189325000D03*
%TD*%
%TO.C,D39*%
X185177500Y-158925000D03*
X186322500Y-158925000D03*
%TD*%
D10*
%TO.C,D10*%
X216322500Y-199525000D03*
X215177500Y-199525000D03*
%TD*%
D12*
%TO.C,U7*%
X203262500Y-198637500D03*
X203262500Y-197987500D03*
X203262500Y-197337500D03*
X203262500Y-196687500D03*
X203262500Y-196037500D03*
X203262500Y-195387500D03*
X203262500Y-194737500D03*
X203262500Y-194087500D03*
X203262500Y-193437500D03*
X203262500Y-192787500D03*
X197537500Y-192787500D03*
X197537500Y-193437500D03*
X197537500Y-194087500D03*
X197537500Y-194737500D03*
X197537500Y-195387500D03*
X197537500Y-196037500D03*
X197537500Y-196687500D03*
X197537500Y-197337500D03*
X197537500Y-197987500D03*
X197537500Y-198637500D03*
%TD*%
D10*
%TO.C,D8*%
X216322500Y-204625000D03*
X215177500Y-204625000D03*
%TD*%
D11*
%TO.C,D47*%
X185177500Y-179225000D03*
X186322500Y-179225000D03*
%TD*%
%TO.C,D62*%
X185177500Y-219925000D03*
X186322500Y-219925000D03*
%TD*%
%TO.C,D49*%
X185177500Y-184250000D03*
X186322500Y-184250000D03*
%TD*%
D10*
%TO.C,D13*%
X216322500Y-191925000D03*
X215177500Y-191925000D03*
%TD*%
D11*
%TO.C,D52*%
X185177500Y-191925000D03*
X186322500Y-191925000D03*
%TD*%
D10*
%TO.C,D28*%
X216322500Y-153825000D03*
X215177500Y-153825000D03*
%TD*%
D11*
%TO.C,D54*%
X185177500Y-199525000D03*
X186322500Y-199525000D03*
%TD*%
%TO.C,D37*%
X185177500Y-153825000D03*
X186322500Y-153825000D03*
%TD*%
%TO.C,D42*%
X185177500Y-166525000D03*
X186322500Y-166525000D03*
%TD*%
D10*
%TO.C,D3*%
X216322500Y-217325000D03*
X215177500Y-217325000D03*
%TD*%
D11*
%TO.C,D58*%
X185177500Y-209725000D03*
X186322500Y-209725000D03*
%TD*%
D10*
%TO.C,D12*%
X216322500Y-194500000D03*
X215177500Y-194500000D03*
%TD*%
D11*
%TO.C,D45*%
X185177500Y-174250000D03*
X186322500Y-174250000D03*
%TD*%
D13*
%TO.C,U1*%
X197547500Y-215700000D03*
X197547500Y-216350000D03*
X197547500Y-217000000D03*
X197547500Y-217650000D03*
X197547500Y-218300000D03*
X197547500Y-218950000D03*
X197547500Y-219600000D03*
X197547500Y-220250000D03*
X197547500Y-220900000D03*
X197547500Y-221550000D03*
X203272500Y-221550000D03*
X203272500Y-220900000D03*
X203272500Y-220250000D03*
X203272500Y-219600000D03*
X203272500Y-218950000D03*
X203272500Y-218300000D03*
X203272500Y-217650000D03*
X203272500Y-217000000D03*
X203272500Y-216350000D03*
X203272500Y-215700000D03*
%TD*%
D10*
%TO.C,D14*%
X216322500Y-189325000D03*
X215177500Y-189325000D03*
%TD*%
D11*
%TO.C,D48*%
X185177500Y-181725000D03*
X186322500Y-181725000D03*
%TD*%
%TO.C,D44*%
X185177500Y-171625000D03*
X186322500Y-171625000D03*
%TD*%
D14*
%TO.C,C72*%
X206495000Y-185050000D03*
X205360000Y-185050000D03*
%TD*%
D11*
%TO.C,D40*%
X185177500Y-161500000D03*
X186322500Y-161500000D03*
%TD*%
D10*
%TO.C,D1*%
X216322500Y-222377500D03*
X215177500Y-222377500D03*
%TD*%
%TO.C,D24*%
X216322500Y-163925000D03*
X215177500Y-163925000D03*
%TD*%
D11*
%TO.C,D60*%
X185177500Y-214750000D03*
X186322500Y-214750000D03*
%TD*%
D15*
%TO.C,C71*%
X205800000Y-183325000D03*
X207750000Y-183325000D03*
%TD*%
D10*
%TO.C,D31*%
X216322500Y-146225000D03*
X215177500Y-146225000D03*
%TD*%
%TO.C,D15*%
X216322500Y-186825000D03*
X215177500Y-186825000D03*
%TD*%
D11*
%TO.C,D33*%
X185177500Y-143625000D03*
X186322500Y-143625000D03*
%TD*%
%TO.C,D59*%
X185177500Y-212225000D03*
X186322500Y-212225000D03*
%TD*%
%TO.C,D46*%
X185177500Y-176725000D03*
X186322500Y-176725000D03*
%TD*%
D10*
%TO.C,D27*%
X216322500Y-156325000D03*
X215177500Y-156325000D03*
%TD*%
D12*
%TO.C,U5*%
X203272500Y-150350000D03*
X203272500Y-149700000D03*
X203272500Y-149050000D03*
X203272500Y-148400000D03*
X203272500Y-147750000D03*
X203272500Y-147100000D03*
X203272500Y-146450000D03*
X203272500Y-145800000D03*
X203272500Y-145150000D03*
X203272500Y-144500000D03*
X197547500Y-144500000D03*
X197547500Y-145150000D03*
X197547500Y-145800000D03*
X197547500Y-146450000D03*
X197547500Y-147100000D03*
X197547500Y-147750000D03*
X197547500Y-148400000D03*
X197547500Y-149050000D03*
X197547500Y-149700000D03*
X197547500Y-150350000D03*
%TD*%
D10*
%TO.C,D30*%
X216322500Y-148725000D03*
X215177500Y-148725000D03*
%TD*%
%TO.C,D20*%
X216322500Y-174125000D03*
X215177500Y-174125000D03*
%TD*%
D11*
%TO.C,D57*%
X185177500Y-207125000D03*
X186322500Y-207125000D03*
%TD*%
D10*
%TO.C,D9*%
X216322500Y-202025000D03*
X215177500Y-202025000D03*
%TD*%
%TO.C,D22*%
X216322500Y-169000000D03*
X215177500Y-169000000D03*
%TD*%
%TO.C,D17*%
X216322500Y-181750000D03*
X215177500Y-181750000D03*
%TD*%
%TO.C,D29*%
X216322500Y-151325000D03*
X215177500Y-151325000D03*
%TD*%
%TO.C,D18*%
X216322500Y-179250000D03*
X215177500Y-179250000D03*
%TD*%
D11*
%TO.C,D50*%
X185177500Y-186825000D03*
X186322500Y-186825000D03*
%TD*%
D13*
%TO.C,U9*%
X197747500Y-182050000D03*
X197747500Y-182700000D03*
X197747500Y-183350000D03*
X197747500Y-184000000D03*
X203472500Y-184000000D03*
X203472500Y-183350000D03*
X203472500Y-182700000D03*
X203472500Y-182050000D03*
%TD*%
D11*
%TO.C,D55*%
X185177500Y-202025000D03*
X186322500Y-202025000D03*
%TD*%
D10*
%TO.C,D21*%
X216322500Y-171625000D03*
X215177500Y-171625000D03*
%TD*%
D11*
%TO.C,D36*%
X185177500Y-151325000D03*
X186322500Y-151325000D03*
%TD*%
D10*
%TO.C,D32*%
X216322500Y-143625000D03*
X215177500Y-143625000D03*
%TD*%
D16*
%TO.C,R72*%
X206545000Y-181600000D03*
X205350000Y-181600000D03*
%TD*%
D11*
%TO.C,D61*%
X185177500Y-217325000D03*
X186322500Y-217325000D03*
%TD*%
D10*
%TO.C,D23*%
X216322500Y-166525000D03*
X215177500Y-166525000D03*
%TD*%
D11*
%TO.C,D34*%
X185177500Y-146250000D03*
X186322500Y-146250000D03*
%TD*%
%TO.C,D63*%
X185177500Y-222425000D03*
X186322500Y-222425000D03*
%TD*%
D13*
%TO.C,U4*%
X197550000Y-152150000D03*
X197550000Y-152800000D03*
X197550000Y-153450000D03*
X197550000Y-154100000D03*
X197550000Y-154750000D03*
X197550000Y-155400000D03*
X197550000Y-156050000D03*
X197550000Y-156700000D03*
X197550000Y-157350000D03*
X197550000Y-158000000D03*
X203275000Y-158000000D03*
X203275000Y-157350000D03*
X203275000Y-156700000D03*
X203275000Y-156050000D03*
X203275000Y-155400000D03*
X203275000Y-154750000D03*
X203275000Y-154100000D03*
X203275000Y-153450000D03*
X203275000Y-152800000D03*
X203275000Y-152150000D03*
%TD*%
D17*
%TO.C,J1*%
X212060000Y-222400000D03*
D18*
X212060000Y-219860000D03*
X212060000Y-217320000D03*
X212060000Y-214780000D03*
X212060000Y-212240000D03*
X212060000Y-209700000D03*
X212060000Y-207160000D03*
X212060000Y-204620000D03*
X212060000Y-202080000D03*
X212060000Y-199540000D03*
X212060000Y-197000000D03*
X212060000Y-194460000D03*
X212060000Y-191920000D03*
X212060000Y-189380000D03*
X212060000Y-186840000D03*
X212060000Y-184300000D03*
X212060000Y-181760000D03*
X212060000Y-179220000D03*
X212060000Y-176680000D03*
X212060000Y-174140000D03*
X212060000Y-171600000D03*
X212060000Y-169060000D03*
X212060000Y-166520000D03*
X212060000Y-163980000D03*
X212060000Y-161440000D03*
X212060000Y-158900000D03*
X212060000Y-156360000D03*
X212060000Y-153820000D03*
X212060000Y-151280000D03*
X212060000Y-148740000D03*
X212060000Y-146200000D03*
X212060000Y-143660000D03*
X189200000Y-143660000D03*
X189200000Y-146200000D03*
X189200000Y-148740000D03*
X189200000Y-151280000D03*
X189200000Y-153820000D03*
X189200000Y-156360000D03*
X189200000Y-158900000D03*
X189200000Y-161440000D03*
X189200000Y-163980000D03*
X189200000Y-166520000D03*
X189200000Y-169060000D03*
X189200000Y-171600000D03*
X189200000Y-174140000D03*
X189200000Y-176680000D03*
X189200000Y-179220000D03*
X189200000Y-181760000D03*
X189200000Y-184300000D03*
X189200000Y-186840000D03*
X189200000Y-189380000D03*
X189200000Y-191920000D03*
X189200000Y-194460000D03*
X189200000Y-197000000D03*
X189200000Y-199540000D03*
X189200000Y-202080000D03*
X189200000Y-204620000D03*
X189200000Y-207160000D03*
X189200000Y-209700000D03*
X189200000Y-212240000D03*
X189200000Y-214780000D03*
X189200000Y-217320000D03*
X189200000Y-219860000D03*
X189200000Y-222400000D03*
%TD*%
D10*
%TO.C,D26*%
X216322500Y-158925000D03*
X215177500Y-158925000D03*
%TD*%
%TO.C,D5*%
X216322500Y-212250000D03*
X215177500Y-212250000D03*
%TD*%
D11*
%TO.C,D56*%
X185177500Y-204625000D03*
X186322500Y-204625000D03*
%TD*%
D19*
%TO.C,R71*%
X205350000Y-180275000D03*
X206545000Y-180275000D03*
%TD*%
D10*
%TO.C,D6*%
X216322500Y-209750000D03*
X215177500Y-209750000D03*
%TD*%
D11*
%TO.C,D53*%
X185177500Y-197025000D03*
X186322500Y-197025000D03*
%TD*%
%TO.C,D35*%
X185177500Y-148725000D03*
X186322500Y-148725000D03*
%TD*%
D12*
%TO.C,U8*%
X203272500Y-213872500D03*
X203272500Y-213222500D03*
X203272500Y-212572500D03*
X203272500Y-211922500D03*
X203272500Y-211272500D03*
X203272500Y-210622500D03*
X203272500Y-209972500D03*
X203272500Y-209322500D03*
X203272500Y-208672500D03*
X203272500Y-208022500D03*
X197547500Y-208022500D03*
X197547500Y-208672500D03*
X197547500Y-209322500D03*
X197547500Y-209972500D03*
X197547500Y-210622500D03*
X197547500Y-211272500D03*
X197547500Y-211922500D03*
X197547500Y-212572500D03*
X197547500Y-213222500D03*
X197547500Y-213872500D03*
%TD*%
D11*
%TO.C,D41*%
X185177500Y-164000000D03*
X186322500Y-164000000D03*
%TD*%
D13*
%TO.C,U3*%
X197525000Y-167450000D03*
X197525000Y-168100000D03*
X197525000Y-168750000D03*
X197525000Y-169400000D03*
X197525000Y-170050000D03*
X197525000Y-170700000D03*
X197525000Y-171350000D03*
X197525000Y-172000000D03*
X197525000Y-172650000D03*
X197525000Y-173300000D03*
X203250000Y-173300000D03*
X203250000Y-172650000D03*
X203250000Y-172000000D03*
X203250000Y-171350000D03*
X203250000Y-170700000D03*
X203250000Y-170050000D03*
X203250000Y-169400000D03*
X203250000Y-168750000D03*
X203250000Y-168100000D03*
X203250000Y-167450000D03*
%TD*%
D10*
%TO.C,D25*%
X216322500Y-161425000D03*
X215177500Y-161425000D03*
%TD*%
%TO.C,D7*%
X216322500Y-207125000D03*
X215177500Y-207125000D03*
%TD*%
%TO.C,D4*%
X216322500Y-214750000D03*
X215177500Y-214750000D03*
%TD*%
%TO.C,D2*%
X216322500Y-219825000D03*
X215177500Y-219825000D03*
%TD*%
D13*
%TO.C,U2*%
X197550000Y-200400000D03*
X197550000Y-201050000D03*
X197550000Y-201700000D03*
X197550000Y-202350000D03*
X197550000Y-203000000D03*
X197550000Y-203650000D03*
X197550000Y-204300000D03*
X197550000Y-204950000D03*
X197550000Y-205600000D03*
X197550000Y-206250000D03*
X203275000Y-206250000D03*
X203275000Y-205600000D03*
X203275000Y-204950000D03*
X203275000Y-204300000D03*
X203275000Y-203650000D03*
X203275000Y-203000000D03*
X203275000Y-202350000D03*
X203275000Y-201700000D03*
X203275000Y-201050000D03*
X203275000Y-200400000D03*
%TD*%
D10*
%TO.C,D19*%
X216322500Y-176625000D03*
X215177500Y-176625000D03*
%TD*%
M02*
