%TF.GenerationSoftware,KiCad,Pcbnew,8.0.5*%
%TF.CreationDate,2026-02-16T17:17:22+00:00*%
%TF.ProjectId,Blinker Fluid,426c696e-6b65-4722-9046-6c7569642e6b,rev?*%
%TF.SameCoordinates,Original*%
%TF.FileFunction,Copper,L2,Inr*%
%TF.FilePolarity,Positive*%
%FSLAX46Y46*%
G04 Gerber Fmt 4.6, Leading zero omitted, Abs format (unit mm)*
G04 Created by KiCad (PCBNEW 8.0.5) date 2026-02-16 17:17:22*
%MOMM*%
%LPD*%
G01*
G04 APERTURE LIST*
%TA.AperFunction,ComponentPad*%
%ADD10R,2.400000X1.600000*%
%TD*%
%TA.AperFunction,ComponentPad*%
%ADD11O,2.400000X1.600000*%
%TD*%
%TA.AperFunction,ViaPad*%
%ADD12C,0.600000*%
%TD*%
%TA.AperFunction,ViaPad*%
%ADD13C,0.800000*%
%TD*%
%TA.AperFunction,Conductor*%
%ADD14C,0.200000*%
%TD*%
G04 APERTURE END LIST*
D10*
%TO.N,D4*%
%TO.C,J1*%
X212060000Y-222400000D03*
D11*
%TO.N,D3*%
X212060000Y-219860000D03*
%TO.N,D2*%
X212060000Y-217320000D03*
%TO.N,D1*%
X212060000Y-214780000D03*
%TO.N,D0*%
X212060000Y-212240000D03*
%TO.N,_AS*%
X212060000Y-209700000D03*
%TO.N,_UDS*%
X212060000Y-207160000D03*
%TO.N,_LDS*%
X212060000Y-204620000D03*
%TO.N,_R{slash}W*%
X212060000Y-202080000D03*
%TO.N,_DTACK*%
X212060000Y-199540000D03*
%TO.N,_BG*%
X212060000Y-197000000D03*
%TO.N,_BGACK*%
X212060000Y-194460000D03*
%TO.N,_BR*%
X212060000Y-191920000D03*
%TO.N,+5V*%
X212060000Y-189380000D03*
%TO.N,CLK*%
X212060000Y-186840000D03*
%TO.N,GND*%
X212060000Y-184300000D03*
%TO.N,_HALT*%
X212060000Y-181760000D03*
%TO.N,_RESET*%
X212060000Y-179220000D03*
%TO.N,_VMA*%
X212060000Y-176680000D03*
%TO.N,E*%
X212060000Y-174140000D03*
%TO.N,_VPA*%
X212060000Y-171600000D03*
%TO.N,BERR*%
X212060000Y-169060000D03*
%TO.N,_IPL2*%
X212060000Y-166520000D03*
%TO.N,_IPL1*%
X212060000Y-163980000D03*
%TO.N,_IPL0*%
X212060000Y-161440000D03*
%TO.N,FC2*%
X212060000Y-158900000D03*
%TO.N,FC1*%
X212060000Y-156360000D03*
%TO.N,FC0*%
X212060000Y-153820000D03*
%TO.N,A1*%
X212060000Y-151280000D03*
%TO.N,A2*%
X212060000Y-148740000D03*
%TO.N,A3*%
X212060000Y-146200000D03*
%TO.N,A4*%
X212060000Y-143660000D03*
%TO.N,A5*%
X189200000Y-143660000D03*
%TO.N,A6*%
X189200000Y-146200000D03*
%TO.N,A7*%
X189200000Y-148740000D03*
%TO.N,A8*%
X189200000Y-151280000D03*
%TO.N,A9*%
X189200000Y-153820000D03*
%TO.N,A10*%
X189200000Y-156360000D03*
%TO.N,A11*%
X189200000Y-158900000D03*
%TO.N,A12*%
X189200000Y-161440000D03*
%TO.N,A13*%
X189200000Y-163980000D03*
%TO.N,A14*%
X189200000Y-166520000D03*
%TO.N,A15*%
X189200000Y-169060000D03*
%TO.N,A16*%
X189200000Y-171600000D03*
%TO.N,A17*%
X189200000Y-174140000D03*
%TO.N,A18*%
X189200000Y-176680000D03*
%TO.N,A19*%
X189200000Y-179220000D03*
%TO.N,A20*%
X189200000Y-181760000D03*
%TO.N,+5V*%
X189200000Y-184300000D03*
%TO.N,A21*%
X189200000Y-186840000D03*
%TO.N,A22*%
X189200000Y-189380000D03*
%TO.N,A23*%
X189200000Y-191920000D03*
%TO.N,GND*%
X189200000Y-194460000D03*
%TO.N,D15*%
X189200000Y-197000000D03*
%TO.N,D14*%
X189200000Y-199540000D03*
%TO.N,D13*%
X189200000Y-202080000D03*
%TO.N,D12*%
X189200000Y-204620000D03*
%TO.N,D11*%
X189200000Y-207160000D03*
%TO.N,D10*%
X189200000Y-209700000D03*
%TO.N,D9*%
X189200000Y-212240000D03*
%TO.N,D8*%
X189200000Y-214780000D03*
%TO.N,D7*%
X189200000Y-217320000D03*
%TO.N,D6*%
X189200000Y-219860000D03*
%TO.N,D5*%
X189200000Y-222400000D03*
%TD*%
D12*
%TO.N,GND*%
X184000000Y-180800000D03*
X184000000Y-201100000D03*
X184100000Y-150000000D03*
X194200000Y-199550000D03*
X206950000Y-151150000D03*
X206900000Y-143700000D03*
X217200000Y-180800000D03*
X184000000Y-216200000D03*
X199302500Y-202350000D03*
D13*
X185150000Y-194460000D03*
D12*
X217200000Y-157600000D03*
X184000000Y-188100000D03*
X207000000Y-160200000D03*
X184100000Y-142400000D03*
X209200000Y-189400000D03*
X217200000Y-223800000D03*
X194450000Y-151450000D03*
X194150000Y-206050000D03*
X217300000Y-150000000D03*
X193800000Y-192250000D03*
X217200000Y-208900000D03*
X207200000Y-175800000D03*
X184000000Y-157600000D03*
X206300000Y-214550000D03*
X200400000Y-177650000D03*
X194930000Y-166570000D03*
X201500000Y-193412500D03*
X184000000Y-223800000D03*
X217200000Y-201100000D03*
X193800000Y-184400000D03*
X207050000Y-165800000D03*
X200450000Y-188650000D03*
X184000000Y-165200000D03*
X194500000Y-158800000D03*
X194900000Y-214350000D03*
X193800000Y-143650000D03*
X217200000Y-188100000D03*
X194950000Y-177600000D03*
X206300000Y-207400000D03*
X199000000Y-193212500D03*
X206050000Y-222700000D03*
X184000000Y-173000000D03*
X217200000Y-216200000D03*
X184000000Y-208900000D03*
X217300000Y-142400000D03*
X194950000Y-222700000D03*
X217200000Y-170700000D03*
X217200000Y-165200000D03*
X191500000Y-196100000D03*
%TO.N,Net-(D1-A)*%
X214300000Y-222377500D03*
%TO.N,+5V*%
X214300000Y-194500000D03*
X185152500Y-185060000D03*
X206545000Y-179305000D03*
X214300000Y-197000000D03*
X198800000Y-198662500D03*
X214300000Y-207125000D03*
X214300000Y-163925000D03*
X202150000Y-215700000D03*
X198800000Y-213897500D03*
X214300000Y-161425000D03*
X214300000Y-171625000D03*
X202160000Y-182025000D03*
X214300000Y-191925000D03*
X202102500Y-200375000D03*
X214300000Y-169000000D03*
X214300000Y-202000000D03*
X214300000Y-209750000D03*
X214300000Y-166525000D03*
X214300000Y-179250000D03*
X214300000Y-181750000D03*
X199160000Y-184000000D03*
X202050000Y-167425000D03*
X198750000Y-150350000D03*
X214300000Y-176625000D03*
X214300000Y-204625000D03*
X198862500Y-165700000D03*
X202052500Y-152150000D03*
X214300000Y-199525000D03*
%TO.N,Net-(D2-A)*%
X214300000Y-219825000D03*
%TO.N,Net-(D3-A)*%
X214300000Y-217325000D03*
%TO.N,Net-(D4-A)*%
X214300000Y-214750000D03*
%TO.N,Net-(D5-A)*%
X214300000Y-212250000D03*
%TO.N,Net-(D6-K)*%
X216650000Y-210600000D03*
%TO.N,Net-(D7-K)*%
X216350000Y-208100000D03*
%TO.N,Net-(D8-K)*%
X216350000Y-205500000D03*
%TO.N,Net-(D9-K)*%
X216350000Y-202900000D03*
%TO.N,Net-(D10-K)*%
X216350000Y-200450000D03*
%TO.N,Net-(D11-K)*%
X216350000Y-197900000D03*
%TO.N,Net-(D12-K)*%
X216350000Y-195350000D03*
%TO.N,Net-(D13-K)*%
X216350000Y-192800000D03*
%TO.N,Net-(D14-A)*%
X216350000Y-190250000D03*
%TO.N,Net-(D15-A)*%
X214300000Y-186825000D03*
%TO.N,Net-(D17-K)*%
X216350000Y-182650000D03*
%TO.N,Net-(D18-K)*%
X216350000Y-180150000D03*
%TO.N,Net-(D19-K)*%
X216350000Y-177500000D03*
%TO.N,Net-(D20-A)*%
X214300000Y-174125000D03*
%TO.N,Net-(D21-K)*%
X216800000Y-172500000D03*
%TO.N,Net-(D22-K)*%
X216350000Y-169900000D03*
%TO.N,Net-(D23-K)*%
X216350000Y-167350000D03*
%TO.N,Net-(D24-K)*%
X216350000Y-164800000D03*
%TO.N,Net-(D25-K)*%
X216350000Y-162300000D03*
%TO.N,Net-(D26-A)*%
X214300000Y-158900000D03*
%TO.N,Net-(D27-A)*%
X214300000Y-156350000D03*
%TO.N,Net-(D28-A)*%
X214300000Y-153800000D03*
%TO.N,Net-(D29-A)*%
X214300000Y-151350000D03*
%TO.N,Net-(D30-A)*%
X214300000Y-148750000D03*
%TO.N,Net-(D31-A)*%
X214300000Y-146250000D03*
%TO.N,Net-(D32-A)*%
X214300000Y-143600000D03*
%TO.N,Net-(D33-A)*%
X187200000Y-143625000D03*
%TO.N,Net-(D34-A)*%
X187200000Y-146250000D03*
%TO.N,Net-(D35-A)*%
X187200000Y-148725000D03*
%TO.N,Net-(D36-A)*%
X187200000Y-151325000D03*
%TO.N,Net-(D37-A)*%
X187200000Y-153825000D03*
%TO.N,Net-(D38-A)*%
X187200000Y-156325000D03*
%TO.N,Net-(D39-A)*%
X187200000Y-158925000D03*
%TO.N,Net-(D40-A)*%
X187200000Y-161500000D03*
%TO.N,Net-(D41-A)*%
X187200000Y-164000000D03*
%TO.N,Net-(D42-A)*%
X187200000Y-166525000D03*
%TO.N,Net-(D43-A)*%
X187200000Y-169000000D03*
%TO.N,Net-(D44-A)*%
X187200000Y-171625000D03*
%TO.N,Net-(D45-A)*%
X187200000Y-174250000D03*
%TO.N,Net-(D46-A)*%
X187200000Y-176725000D03*
%TO.N,Net-(D47-A)*%
X187200000Y-179225000D03*
%TO.N,Net-(D48-A)*%
X187200000Y-181725000D03*
%TO.N,Net-(D49-A)*%
X187200000Y-184250000D03*
%TO.N,Net-(D50-A)*%
X187175000Y-186825000D03*
%TO.N,Net-(D51-A)*%
X187200000Y-189325000D03*
%TO.N,Net-(D52-A)*%
X187200000Y-191925000D03*
%TO.N,Net-(D53-A)*%
X187200000Y-197025000D03*
%TO.N,Net-(D54-A)*%
X187175000Y-199525000D03*
%TO.N,Net-(D55-A)*%
X187175000Y-202025000D03*
%TO.N,Net-(D56-A)*%
X187150000Y-204625000D03*
%TO.N,Net-(D57-A)*%
X187150000Y-207125000D03*
%TO.N,Net-(D58-A)*%
X187125000Y-209725000D03*
%TO.N,Net-(D59-A)*%
X187125000Y-212225000D03*
%TO.N,Net-(D60-A)*%
X187125000Y-214750000D03*
%TO.N,Net-(D61-A)*%
X187125000Y-217325000D03*
%TO.N,Net-(D62-A)*%
X187100000Y-219925000D03*
%TO.N,Net-(D63-A)*%
X187100000Y-222425000D03*
%TO.N,A17*%
X201512500Y-163100000D03*
%TO.N,_RESET*%
X198900000Y-172000000D03*
%TO.N,A8*%
X201785000Y-147100000D03*
%TO.N,A12*%
X201785000Y-149700000D03*
%TO.N,D12*%
X201410000Y-208672500D03*
%TO.N,D9*%
X201910000Y-210622500D03*
%TO.N,FC1*%
X199302500Y-156050000D03*
%TO.N,D1*%
X198850000Y-218950000D03*
%TO.N,D4*%
X199350000Y-220900000D03*
%TO.N,D14*%
X201500000Y-197337500D03*
%TO.N,_DTACK*%
X199312500Y-204950000D03*
%TO.N,A18*%
X202012500Y-163750000D03*
%TO.N,D8*%
X201410000Y-211272500D03*
%TO.N,E*%
X198900000Y-170700000D03*
%TO.N,_UDS*%
X199350000Y-217000000D03*
%TO.N,CLK*%
X198812500Y-201700000D03*
X207900000Y-187300000D03*
%TO.N,A3*%
X199302500Y-153450000D03*
%TO.N,_BR*%
X198812500Y-203000000D03*
%TO.N,D13*%
X202000000Y-197987500D03*
%TO.N,A6*%
X201785000Y-145800000D03*
%TO.N,A5*%
X201210000Y-145150000D03*
%TO.N,_HALT*%
X199400000Y-172650000D03*
%TO.N,_IPL0*%
X199302500Y-157350000D03*
%TO.N,A19*%
X201512500Y-164400000D03*
%TO.N,A4*%
X198802500Y-152800000D03*
%TO.N,_VMA*%
X199400000Y-171350000D03*
%TO.N,_BGACK*%
X199312500Y-203650000D03*
%TO.N,A2*%
X198802500Y-154100000D03*
%TO.N,D5*%
X201910000Y-213227500D03*
%TO.N,A16*%
X202012500Y-162450000D03*
%TO.N,A14*%
X202012500Y-161150000D03*
%TO.N,A11*%
X201210000Y-149050000D03*
%TO.N,D2*%
X199350000Y-219600000D03*
%TO.N,D3*%
X198850000Y-220250000D03*
%TO.N,D11*%
X201910000Y-209322500D03*
%TO.N,_VPA*%
X199400000Y-170050000D03*
%TO.N,D0*%
X199350000Y-218300000D03*
%TO.N,A22*%
X201500000Y-194737500D03*
%TO.N,A7*%
X201210000Y-146475000D03*
%TO.N,BERR*%
X198900000Y-169400000D03*
%TO.N,_AS*%
X198850000Y-217650000D03*
%TO.N,_LDS*%
X198850000Y-216350000D03*
%TO.N,D6*%
X201410000Y-212572500D03*
%TO.N,A9*%
X201210000Y-147750000D03*
%TO.N,A23*%
X202000000Y-195387500D03*
%TO.N,A10*%
X201785000Y-148400000D03*
%TO.N,FC2*%
X198802500Y-156700000D03*
%TO.N,A13*%
X201512500Y-160500000D03*
%TO.N,D10*%
X201410000Y-209972500D03*
%TO.N,A1*%
X199302500Y-154750000D03*
%TO.N,_IPL2*%
X199400000Y-168750000D03*
%TO.N,FC0*%
X198802500Y-155400000D03*
%TO.N,D7*%
X201910000Y-211922500D03*
%TO.N,_BG*%
X198812500Y-204300000D03*
%TO.N,_R{slash}W*%
X198812500Y-205600000D03*
%TO.N,A20*%
X202012500Y-165050000D03*
%TO.N,D15*%
X202000000Y-196687500D03*
%TO.N,A15*%
X201512500Y-161800000D03*
%TO.N,A21*%
X202000000Y-194087500D03*
%TO.N,_IPL1*%
X198900000Y-168100000D03*
%TO.N,LE*%
X204700000Y-173325000D03*
X196062500Y-159850000D03*
X196050000Y-208022500D03*
X196062500Y-144500000D03*
X196050000Y-192787500D03*
X204700000Y-221550000D03*
X196050000Y-183375000D03*
X204702500Y-206250000D03*
X204702500Y-158000000D03*
%TD*%
D14*
%TO.N,LE*%
X196050000Y-183375000D02*
X196210000Y-183375000D01*
X203910000Y-183375000D02*
X204700000Y-184165000D01*
X204700000Y-184165000D02*
X204700000Y-199500000D01*
X203910000Y-183375000D02*
X204700000Y-182585000D01*
X196210000Y-183375000D02*
X196260000Y-183425000D01*
X204700000Y-199500000D02*
X204700000Y-221550000D01*
X196062500Y-144500000D02*
X196062500Y-159850000D01*
X196050000Y-159862500D02*
X196062500Y-159850000D01*
X196050000Y-208022500D02*
X196050000Y-190975000D01*
X196050000Y-182100000D02*
X196050000Y-159862500D01*
X196210000Y-183375000D02*
X196260000Y-183325000D01*
X204700000Y-182585000D02*
X204700000Y-158002500D01*
X196012500Y-159800000D02*
X196062500Y-159850000D01*
X196050000Y-182200000D02*
X196050000Y-190975000D01*
X204700000Y-158002500D02*
X204702500Y-158000000D01*
X196050000Y-183375000D02*
X203910000Y-183375000D01*
%TD*%
%TA.AperFunction,Conductor*%
%TO.N,GND*%
G36*
X217675000Y-141770462D02*
G01*
X217729538Y-141825000D01*
X217749500Y-141899500D01*
X217749500Y-224100500D01*
X217729538Y-224175000D01*
X217675000Y-224229538D01*
X217600500Y-224249500D01*
X202524930Y-224249500D01*
X202450430Y-224229538D01*
X202395892Y-224175000D01*
X202383538Y-224147504D01*
X202367912Y-224100500D01*
X202363734Y-224087931D01*
X202246936Y-223852087D01*
X202246934Y-223852084D01*
X202098614Y-223634688D01*
X202098610Y-223634683D01*
X201921619Y-223439912D01*
X201921617Y-223439910D01*
X201921615Y-223439908D01*
X201719769Y-223271854D01*
X201719357Y-223271511D01*
X201495738Y-223132740D01*
X201495734Y-223132738D01*
X201255061Y-223026264D01*
X201001947Y-222954130D01*
X201001937Y-222954128D01*
X200741301Y-222917735D01*
X200741300Y-222917735D01*
X200478118Y-222917776D01*
X200217481Y-222954250D01*
X200217478Y-222954251D01*
X199964389Y-223026462D01*
X199723749Y-223133010D01*
X199723744Y-223133013D01*
X199500167Y-223271853D01*
X199500166Y-223271854D01*
X199297963Y-223440310D01*
X199121030Y-223635139D01*
X198972769Y-223852592D01*
X198972767Y-223852595D01*
X198856047Y-224088462D01*
X198856041Y-224088478D01*
X198836454Y-224147460D01*
X198794030Y-224211872D01*
X198725083Y-224246441D01*
X198695048Y-224249500D01*
X183649500Y-224249500D01*
X183575000Y-224229538D01*
X183520462Y-224175000D01*
X183500500Y-224100500D01*
X183500500Y-196000000D01*
X185600000Y-196000000D01*
X185600000Y-223400000D01*
X188302780Y-223400000D01*
X188370424Y-223416240D01*
X188377543Y-223419867D01*
X188377555Y-223419873D01*
X188542299Y-223473402D01*
X188713389Y-223500500D01*
X188713393Y-223500500D01*
X189686607Y-223500500D01*
X189686611Y-223500500D01*
X189857701Y-223473402D01*
X190022445Y-223419873D01*
X190025898Y-223418113D01*
X190029576Y-223416240D01*
X190097220Y-223400000D01*
X190800000Y-223400000D01*
X190800000Y-216349997D01*
X198244318Y-216349997D01*
X198244318Y-216350002D01*
X198264954Y-216506757D01*
X198325463Y-216652840D01*
X198421717Y-216778281D01*
X198421718Y-216778282D01*
X198554907Y-216880481D01*
X198552988Y-216882980D01*
X198595510Y-216925506D01*
X198615469Y-217000007D01*
X198595503Y-217074506D01*
X198552989Y-217117019D01*
X198554907Y-217119519D01*
X198421718Y-217221717D01*
X198421717Y-217221718D01*
X198325463Y-217347159D01*
X198264954Y-217493242D01*
X198244318Y-217649997D01*
X198244318Y-217650002D01*
X198264954Y-217806757D01*
X198325463Y-217952840D01*
X198421717Y-218078281D01*
X198421718Y-218078282D01*
X198554907Y-218180481D01*
X198552988Y-218182980D01*
X198595510Y-218225506D01*
X198615469Y-218300007D01*
X198595503Y-218374506D01*
X198552989Y-218417019D01*
X198554907Y-218419519D01*
X198421718Y-218521717D01*
X198421717Y-218521718D01*
X198325463Y-218647159D01*
X198264954Y-218793242D01*
X198244318Y-218949997D01*
X198244318Y-218950002D01*
X198264954Y-219106757D01*
X198325463Y-219252840D01*
X198421717Y-219378281D01*
X198421718Y-219378282D01*
X198554907Y-219480481D01*
X198552988Y-219482980D01*
X198595510Y-219525506D01*
X198615469Y-219600007D01*
X198595503Y-219674506D01*
X198552989Y-219717019D01*
X198554907Y-219719519D01*
X198421718Y-219821717D01*
X198421717Y-219821718D01*
X198325463Y-219947159D01*
X198264954Y-220093242D01*
X198244318Y-220249997D01*
X198244318Y-220250002D01*
X198264954Y-220406757D01*
X198325463Y-220552840D01*
X198325464Y-220552841D01*
X198421718Y-220678282D01*
X198547159Y-220774536D01*
X198658742Y-220820755D01*
X198719932Y-220867707D01*
X198749447Y-220938964D01*
X198749447Y-220938965D01*
X198764954Y-221056757D01*
X198825463Y-221202840D01*
X198825464Y-221202841D01*
X198921718Y-221328282D01*
X199047159Y-221424536D01*
X199193238Y-221485044D01*
X199193241Y-221485044D01*
X199193243Y-221485045D01*
X199193240Y-221485045D01*
X199349997Y-221505682D01*
X199350000Y-221505682D01*
X199350003Y-221505682D01*
X199506757Y-221485045D01*
X199506758Y-221485044D01*
X199506762Y-221485044D01*
X199652841Y-221424536D01*
X199778282Y-221328282D01*
X199874536Y-221202841D01*
X199935044Y-221056762D01*
X199950553Y-220938964D01*
X199955682Y-220900002D01*
X199955682Y-220899997D01*
X199935045Y-220743242D01*
X199935044Y-220743240D01*
X199935044Y-220743238D01*
X199874536Y-220597159D01*
X199778282Y-220471718D01*
X199652841Y-220375464D01*
X199652840Y-220375463D01*
X199645093Y-220369519D01*
X199647013Y-220367016D01*
X199604503Y-220324518D01*
X199584530Y-220250021D01*
X199604482Y-220175518D01*
X199647009Y-220132978D01*
X199645093Y-220130481D01*
X199693629Y-220093238D01*
X199778282Y-220028282D01*
X199874536Y-219902841D01*
X199935044Y-219756762D01*
X199939165Y-219725464D01*
X199955682Y-219600002D01*
X199955682Y-219599997D01*
X199935045Y-219443242D01*
X199935044Y-219443240D01*
X199935044Y-219443238D01*
X199874536Y-219297159D01*
X199778282Y-219171718D01*
X199652841Y-219075464D01*
X199652840Y-219075463D01*
X199645093Y-219069519D01*
X199647013Y-219067016D01*
X199604503Y-219024518D01*
X199584530Y-218950021D01*
X199604482Y-218875518D01*
X199647009Y-218832978D01*
X199645093Y-218830481D01*
X199693629Y-218793238D01*
X199778282Y-218728282D01*
X199874536Y-218602841D01*
X199935044Y-218456762D01*
X199939165Y-218425464D01*
X199955682Y-218300002D01*
X199955682Y-218299997D01*
X199935045Y-218143242D01*
X199935044Y-218143240D01*
X199935044Y-218143238D01*
X199874536Y-217997159D01*
X199778282Y-217871718D01*
X199652841Y-217775464D01*
X199652840Y-217775463D01*
X199645093Y-217769519D01*
X199647013Y-217767016D01*
X199604503Y-217724518D01*
X199584530Y-217650021D01*
X199604482Y-217575518D01*
X199647009Y-217532978D01*
X199645093Y-217530481D01*
X199693629Y-217493238D01*
X199778282Y-217428282D01*
X199874536Y-217302841D01*
X199935044Y-217156762D01*
X199939165Y-217125464D01*
X199955682Y-217000002D01*
X199955682Y-216999997D01*
X199935045Y-216843242D01*
X199935044Y-216843240D01*
X199935044Y-216843238D01*
X199874536Y-216697159D01*
X199778282Y-216571718D01*
X199693630Y-216506762D01*
X199652840Y-216475463D01*
X199541257Y-216429244D01*
X199480067Y-216382291D01*
X199450552Y-216311034D01*
X199450552Y-216311033D01*
X199435045Y-216193242D01*
X199435044Y-216193240D01*
X199435044Y-216193238D01*
X199374536Y-216047159D01*
X199278282Y-215921718D01*
X199193630Y-215856762D01*
X199152840Y-215825463D01*
X199072944Y-215792369D01*
X199006762Y-215764956D01*
X199006760Y-215764955D01*
X199006756Y-215764954D01*
X199006759Y-215764954D01*
X198850003Y-215744318D01*
X198849997Y-215744318D01*
X198693242Y-215764954D01*
X198547159Y-215825463D01*
X198421718Y-215921717D01*
X198421717Y-215921718D01*
X198325463Y-216047159D01*
X198264954Y-216193242D01*
X198244318Y-216349997D01*
X190800000Y-216349997D01*
X190800000Y-215699997D01*
X201544318Y-215699997D01*
X201544318Y-215700002D01*
X201564954Y-215856757D01*
X201625463Y-216002840D01*
X201625464Y-216002841D01*
X201721718Y-216128282D01*
X201847159Y-216224536D01*
X201993238Y-216285044D01*
X201993241Y-216285044D01*
X201993243Y-216285045D01*
X201993240Y-216285045D01*
X202149997Y-216305682D01*
X202150000Y-216305682D01*
X202150003Y-216305682D01*
X202306757Y-216285045D01*
X202306758Y-216285044D01*
X202306762Y-216285044D01*
X202452841Y-216224536D01*
X202578282Y-216128282D01*
X202674536Y-216002841D01*
X202735044Y-215856762D01*
X202739165Y-215825464D01*
X202755682Y-215700002D01*
X202755682Y-215699997D01*
X202735045Y-215543242D01*
X202735044Y-215543240D01*
X202735044Y-215543238D01*
X202674536Y-215397159D01*
X202578282Y-215271718D01*
X202452841Y-215175464D01*
X202452840Y-215175463D01*
X202372944Y-215142369D01*
X202306762Y-215114956D01*
X202306760Y-215114955D01*
X202306756Y-215114954D01*
X202306759Y-215114954D01*
X202150003Y-215094318D01*
X202149997Y-215094318D01*
X201993242Y-215114954D01*
X201847159Y-215175463D01*
X201721718Y-215271717D01*
X201721717Y-215271718D01*
X201625463Y-215397159D01*
X201564954Y-215543242D01*
X201544318Y-215699997D01*
X190800000Y-215699997D01*
X190800000Y-213897497D01*
X198194318Y-213897497D01*
X198194318Y-213897502D01*
X198214954Y-214054257D01*
X198275463Y-214200340D01*
X198275464Y-214200341D01*
X198371718Y-214325782D01*
X198497159Y-214422036D01*
X198643238Y-214482544D01*
X198643241Y-214482544D01*
X198643243Y-214482545D01*
X198643240Y-214482545D01*
X198799997Y-214503182D01*
X198800000Y-214503182D01*
X198800003Y-214503182D01*
X198956757Y-214482545D01*
X198956758Y-214482544D01*
X198956762Y-214482544D01*
X199102841Y-214422036D01*
X199228282Y-214325782D01*
X199324536Y-214200341D01*
X199385044Y-214054262D01*
X199405682Y-213897500D01*
X199405682Y-213897497D01*
X199385045Y-213740742D01*
X199385044Y-213740740D01*
X199385044Y-213740738D01*
X199324536Y-213594659D01*
X199228282Y-213469218D01*
X199117559Y-213384257D01*
X199102840Y-213372963D01*
X199022944Y-213339869D01*
X198956762Y-213312456D01*
X198956760Y-213312455D01*
X198956756Y-213312454D01*
X198956759Y-213312454D01*
X198800003Y-213291818D01*
X198799997Y-213291818D01*
X198643242Y-213312454D01*
X198497159Y-213372963D01*
X198371718Y-213469217D01*
X198371717Y-213469218D01*
X198275463Y-213594659D01*
X198214954Y-213740742D01*
X198194318Y-213897497D01*
X190800000Y-213897497D01*
X190800000Y-208672497D01*
X200804318Y-208672497D01*
X200804318Y-208672502D01*
X200824954Y-208829257D01*
X200885463Y-208975340D01*
X200981717Y-209100781D01*
X200981718Y-209100782D01*
X201114907Y-209202981D01*
X201112988Y-209205480D01*
X201155510Y-209248006D01*
X201175469Y-209322507D01*
X201155503Y-209397006D01*
X201112989Y-209439519D01*
X201114907Y-209442019D01*
X200981718Y-209544217D01*
X200981717Y-209544218D01*
X200885463Y-209669659D01*
X200824954Y-209815742D01*
X200804318Y-209972497D01*
X200804318Y-209972502D01*
X200824954Y-210129257D01*
X200885463Y-210275340D01*
X200981717Y-210400781D01*
X200981718Y-210400782D01*
X201114907Y-210502981D01*
X201112988Y-210505480D01*
X201155510Y-210548006D01*
X201175469Y-210622507D01*
X201155503Y-210697006D01*
X201112989Y-210739519D01*
X201114907Y-210742019D01*
X200981718Y-210844217D01*
X200981717Y-210844218D01*
X200885463Y-210969659D01*
X200824954Y-211115742D01*
X200804318Y-211272497D01*
X200804318Y-211272502D01*
X200824954Y-211429257D01*
X200885463Y-211575340D01*
X200981717Y-211700781D01*
X200981718Y-211700782D01*
X201114907Y-211802981D01*
X201112988Y-211805480D01*
X201155510Y-211848006D01*
X201175469Y-211922507D01*
X201155503Y-211997006D01*
X201112989Y-212039519D01*
X201114907Y-212042019D01*
X200981718Y-212144217D01*
X200981717Y-212144218D01*
X200885463Y-212269659D01*
X200824954Y-212415742D01*
X200804318Y-212572497D01*
X200804318Y-212572502D01*
X200824954Y-212729257D01*
X200885463Y-212875340D01*
X200981717Y-213000781D01*
X200981718Y-213000782D01*
X201107160Y-213097037D01*
X201163913Y-213120544D01*
X201218046Y-213142967D01*
X201279235Y-213189918D01*
X201308751Y-213261175D01*
X201308751Y-213261176D01*
X201324954Y-213384257D01*
X201385463Y-213530340D01*
X201385464Y-213530341D01*
X201481718Y-213655782D01*
X201607159Y-213752036D01*
X201753238Y-213812544D01*
X201753241Y-213812544D01*
X201753243Y-213812545D01*
X201753240Y-213812545D01*
X201909997Y-213833182D01*
X201910000Y-213833182D01*
X201910003Y-213833182D01*
X202066757Y-213812545D01*
X202066758Y-213812544D01*
X202066762Y-213812544D01*
X202212841Y-213752036D01*
X202338282Y-213655782D01*
X202434536Y-213530341D01*
X202495044Y-213384262D01*
X202496532Y-213372964D01*
X202515682Y-213227502D01*
X202515682Y-213227497D01*
X202495045Y-213070742D01*
X202495044Y-213070740D01*
X202495044Y-213070738D01*
X202434536Y-212924659D01*
X202338282Y-212799218D01*
X202212841Y-212702964D01*
X202212840Y-212702963D01*
X202205093Y-212697019D01*
X202206217Y-212695553D01*
X202160165Y-212649505D01*
X202140200Y-212575006D01*
X202160159Y-212500505D01*
X202206216Y-212454444D01*
X202205093Y-212452981D01*
X202253629Y-212415738D01*
X202338282Y-212350782D01*
X202434536Y-212225341D01*
X202495044Y-212079262D01*
X202499165Y-212047964D01*
X202515682Y-211922502D01*
X202515682Y-211922497D01*
X202495045Y-211765742D01*
X202495044Y-211765740D01*
X202495044Y-211765738D01*
X202434536Y-211619659D01*
X202338282Y-211494218D01*
X202212841Y-211397964D01*
X202212840Y-211397963D01*
X202205093Y-211392019D01*
X202207013Y-211389516D01*
X202164503Y-211347018D01*
X202144530Y-211272521D01*
X202164482Y-211198018D01*
X202207009Y-211155478D01*
X202205093Y-211152981D01*
X202212841Y-211147036D01*
X202338282Y-211050782D01*
X202434536Y-210925341D01*
X202495044Y-210779262D01*
X202499165Y-210747964D01*
X202515682Y-210622502D01*
X202515682Y-210622497D01*
X202495045Y-210465742D01*
X202495044Y-210465740D01*
X202495044Y-210465738D01*
X202434536Y-210319659D01*
X202338282Y-210194218D01*
X202308959Y-210171718D01*
X202205093Y-210092019D01*
X202207013Y-210089516D01*
X202164503Y-210047018D01*
X202144530Y-209972521D01*
X202164482Y-209898018D01*
X202207009Y-209855478D01*
X202205093Y-209852981D01*
X202253629Y-209815738D01*
X202338282Y-209750782D01*
X202434536Y-209625341D01*
X202495044Y-209479262D01*
X202499165Y-209447964D01*
X202515682Y-209322502D01*
X202515682Y-209322497D01*
X202495045Y-209165742D01*
X202495044Y-209165740D01*
X202495044Y-209165738D01*
X202434536Y-209019659D01*
X202338282Y-208894218D01*
X202253630Y-208829262D01*
X202212840Y-208797963D01*
X202101257Y-208751744D01*
X202040067Y-208704791D01*
X202010552Y-208633534D01*
X202010552Y-208633533D01*
X201995045Y-208515742D01*
X201995044Y-208515740D01*
X201995044Y-208515738D01*
X201934536Y-208369659D01*
X201838282Y-208244218D01*
X201753630Y-208179262D01*
X201712840Y-208147963D01*
X201632944Y-208114869D01*
X201566762Y-208087456D01*
X201566760Y-208087455D01*
X201566756Y-208087454D01*
X201566759Y-208087454D01*
X201410003Y-208066818D01*
X201409997Y-208066818D01*
X201253242Y-208087454D01*
X201107159Y-208147963D01*
X200981718Y-208244217D01*
X200981717Y-208244218D01*
X200885463Y-208369659D01*
X200824954Y-208515742D01*
X200804318Y-208672497D01*
X190800000Y-208672497D01*
X190800000Y-196000000D01*
X190600000Y-196000000D01*
X190097220Y-196000000D01*
X190029576Y-195983760D01*
X190022456Y-195980132D01*
X190022450Y-195980130D01*
X190022445Y-195980127D01*
X189857701Y-195926598D01*
X189703807Y-195902223D01*
X189633348Y-195870853D01*
X189588014Y-195808455D01*
X189579951Y-195731749D01*
X189611322Y-195661289D01*
X189673720Y-195615955D01*
X189703809Y-195607892D01*
X189869297Y-195581682D01*
X189869297Y-195581681D01*
X190041449Y-195525746D01*
X190202732Y-195443567D01*
X190202733Y-195443566D01*
X190349173Y-195337171D01*
X190349176Y-195337169D01*
X190477169Y-195209176D01*
X190477171Y-195209173D01*
X190583566Y-195062733D01*
X190583567Y-195062732D01*
X190665744Y-194901453D01*
X190721683Y-194729288D01*
X190736617Y-194635000D01*
X189878904Y-194635000D01*
X189900000Y-194528944D01*
X189900000Y-194391056D01*
X189878904Y-194285000D01*
X190736617Y-194285000D01*
X190721683Y-194190711D01*
X190665744Y-194018546D01*
X190583567Y-193857267D01*
X190583566Y-193857266D01*
X190477171Y-193710826D01*
X190477169Y-193710823D01*
X190349176Y-193582830D01*
X190349173Y-193582828D01*
X190202733Y-193476433D01*
X190202732Y-193476432D01*
X190041449Y-193394253D01*
X189869297Y-193338318D01*
X189869298Y-193338318D01*
X189703808Y-193312107D01*
X189633348Y-193280736D01*
X189588013Y-193218338D01*
X189579951Y-193141632D01*
X189611322Y-193071172D01*
X189673720Y-193025837D01*
X189703801Y-193017777D01*
X189785068Y-193004905D01*
X189804465Y-193001834D01*
X189827772Y-193000000D01*
X190800000Y-193000000D01*
X190800000Y-185800000D01*
X189984100Y-185800000D01*
X189938057Y-185792707D01*
X189857702Y-185766598D01*
X189823483Y-185761178D01*
X189686611Y-185739500D01*
X188713389Y-185739500D01*
X188576517Y-185761178D01*
X188542298Y-185766598D01*
X188542296Y-185766598D01*
X188461943Y-185792707D01*
X188415900Y-185800000D01*
X185800000Y-185800000D01*
X185800000Y-193000000D01*
X188572228Y-193000000D01*
X188595535Y-193001834D01*
X188617954Y-193005384D01*
X188696191Y-193017776D01*
X188766650Y-193049145D01*
X188811985Y-193111543D01*
X188820048Y-193188248D01*
X188788678Y-193258709D01*
X188726280Y-193304044D01*
X188696191Y-193312107D01*
X188530701Y-193338318D01*
X188358550Y-193394253D01*
X188197267Y-193476432D01*
X188197266Y-193476433D01*
X188050826Y-193582828D01*
X188050823Y-193582830D01*
X187922830Y-193710823D01*
X187922828Y-193710826D01*
X187816433Y-193857266D01*
X187816432Y-193857267D01*
X187734255Y-194018546D01*
X187678316Y-194190711D01*
X187663383Y-194285000D01*
X188521096Y-194285000D01*
X188500000Y-194391056D01*
X188500000Y-194528944D01*
X188521096Y-194635000D01*
X187663383Y-194635000D01*
X187678316Y-194729288D01*
X187734255Y-194901453D01*
X187816432Y-195062732D01*
X187816433Y-195062733D01*
X187922828Y-195209173D01*
X187922830Y-195209176D01*
X188050823Y-195337169D01*
X188050826Y-195337171D01*
X188197266Y-195443566D01*
X188197267Y-195443567D01*
X188358550Y-195525746D01*
X188530702Y-195581681D01*
X188530702Y-195581682D01*
X188696190Y-195607892D01*
X188766650Y-195639263D01*
X188811985Y-195701661D01*
X188820048Y-195778366D01*
X188788677Y-195848826D01*
X188726279Y-195894161D01*
X188696191Y-195902223D01*
X188645238Y-195910294D01*
X188542298Y-195926598D01*
X188400893Y-195972544D01*
X188377555Y-195980127D01*
X188377552Y-195980128D01*
X188377543Y-195980132D01*
X188370424Y-195983760D01*
X188302780Y-196000000D01*
X185600000Y-196000000D01*
X183500500Y-196000000D01*
X183500500Y-185059997D01*
X184546818Y-185059997D01*
X184546818Y-185060002D01*
X184567454Y-185216757D01*
X184627963Y-185362840D01*
X184699413Y-185455955D01*
X184724218Y-185488282D01*
X184849659Y-185584536D01*
X184995738Y-185645044D01*
X184995741Y-185645044D01*
X184995743Y-185645045D01*
X184995740Y-185645045D01*
X185152497Y-185665682D01*
X185152500Y-185665682D01*
X185152503Y-185665682D01*
X185309257Y-185645045D01*
X185309258Y-185645044D01*
X185309262Y-185645044D01*
X185455341Y-185584536D01*
X185580782Y-185488282D01*
X185677036Y-185362841D01*
X185737544Y-185216762D01*
X185742757Y-185177171D01*
X185758182Y-185060002D01*
X185758182Y-185059997D01*
X185737545Y-184903242D01*
X185737544Y-184903240D01*
X185737544Y-184903238D01*
X185677036Y-184757159D01*
X185580782Y-184631718D01*
X185580595Y-184631574D01*
X185455340Y-184535463D01*
X185375444Y-184502369D01*
X185309262Y-184474956D01*
X185309260Y-184474955D01*
X185309256Y-184474954D01*
X185309259Y-184474954D01*
X185152503Y-184454318D01*
X185152497Y-184454318D01*
X184995742Y-184474954D01*
X184849659Y-184535463D01*
X184724218Y-184631717D01*
X184724217Y-184631718D01*
X184627963Y-184757159D01*
X184567454Y-184903242D01*
X184546818Y-185059997D01*
X183500500Y-185059997D01*
X183500500Y-184249997D01*
X186594318Y-184249997D01*
X186594318Y-184250002D01*
X186614954Y-184406757D01*
X186675463Y-184552840D01*
X186735988Y-184631717D01*
X186771718Y-184678282D01*
X186897159Y-184774536D01*
X187043238Y-184835044D01*
X187043241Y-184835044D01*
X187043243Y-184835045D01*
X187043240Y-184835045D01*
X187199997Y-184855682D01*
X187200000Y-184855682D01*
X187200003Y-184855682D01*
X187356757Y-184835045D01*
X187356758Y-184835044D01*
X187356762Y-184835044D01*
X187502841Y-184774536D01*
X187579139Y-184715990D01*
X187650395Y-184686476D01*
X187726863Y-184696543D01*
X187788053Y-184743496D01*
X187802603Y-184766557D01*
X187858769Y-184876790D01*
X187928742Y-184973099D01*
X187960586Y-185016928D01*
X188083072Y-185139414D01*
X188223212Y-185241232D01*
X188377555Y-185319873D01*
X188542299Y-185373402D01*
X188713389Y-185400500D01*
X188713393Y-185400500D01*
X189686607Y-185400500D01*
X189686611Y-185400500D01*
X189857701Y-185373402D01*
X190022445Y-185319873D01*
X190176788Y-185241232D01*
X190316928Y-185139414D01*
X190439414Y-185016928D01*
X190541232Y-184876788D01*
X190619873Y-184722445D01*
X190673402Y-184557701D01*
X190700500Y-184386611D01*
X190700500Y-184213389D01*
X190673402Y-184042299D01*
X190619873Y-183877555D01*
X190541232Y-183723212D01*
X190541228Y-183723207D01*
X190541228Y-183723206D01*
X190439416Y-183583075D01*
X190439414Y-183583072D01*
X190316928Y-183460586D01*
X190316924Y-183460583D01*
X190199126Y-183374997D01*
X195444318Y-183374997D01*
X195444318Y-183375002D01*
X195464954Y-183531757D01*
X195525462Y-183677838D01*
X195525463Y-183677840D01*
X195525464Y-183677841D01*
X195618711Y-183799364D01*
X195648225Y-183870617D01*
X195649500Y-183890066D01*
X195649500Y-192272432D01*
X195629538Y-192346932D01*
X195618710Y-192363137D01*
X195525463Y-192484659D01*
X195464954Y-192630742D01*
X195444318Y-192787497D01*
X195444318Y-192787502D01*
X195464954Y-192944257D01*
X195525462Y-193090338D01*
X195525463Y-193090340D01*
X195525464Y-193090341D01*
X195618711Y-193211864D01*
X195648225Y-193283117D01*
X195649500Y-193302566D01*
X195649500Y-207507432D01*
X195629538Y-207581932D01*
X195618710Y-207598137D01*
X195525463Y-207719659D01*
X195464954Y-207865742D01*
X195444318Y-208022497D01*
X195444318Y-208022502D01*
X195464954Y-208179257D01*
X195525463Y-208325340D01*
X195584932Y-208402841D01*
X195621718Y-208450782D01*
X195747159Y-208547036D01*
X195893238Y-208607544D01*
X195893241Y-208607544D01*
X195893243Y-208607545D01*
X195893240Y-208607545D01*
X196049997Y-208628182D01*
X196050000Y-208628182D01*
X196050003Y-208628182D01*
X196206757Y-208607545D01*
X196206758Y-208607544D01*
X196206762Y-208607544D01*
X196352841Y-208547036D01*
X196478282Y-208450782D01*
X196574536Y-208325341D01*
X196635044Y-208179262D01*
X196639165Y-208147964D01*
X196655682Y-208022502D01*
X196655682Y-208022497D01*
X196635045Y-207865742D01*
X196635044Y-207865740D01*
X196635044Y-207865738D01*
X196574536Y-207719659D01*
X196549806Y-207687430D01*
X196481290Y-207598137D01*
X196451775Y-207526879D01*
X196450500Y-207507432D01*
X196450500Y-201699997D01*
X198206818Y-201699997D01*
X198206818Y-201700002D01*
X198227454Y-201856757D01*
X198287963Y-202002840D01*
X198384217Y-202128281D01*
X198384218Y-202128282D01*
X198517407Y-202230481D01*
X198515488Y-202232980D01*
X198558010Y-202275506D01*
X198577969Y-202350007D01*
X198558003Y-202424506D01*
X198515489Y-202467019D01*
X198517407Y-202469519D01*
X198384218Y-202571717D01*
X198384217Y-202571718D01*
X198287963Y-202697159D01*
X198227454Y-202843242D01*
X198206818Y-202999997D01*
X198206818Y-203000002D01*
X198227454Y-203156757D01*
X198287963Y-203302840D01*
X198384217Y-203428281D01*
X198384218Y-203428282D01*
X198517407Y-203530481D01*
X198515488Y-203532980D01*
X198558010Y-203575506D01*
X198577969Y-203650007D01*
X198558003Y-203724506D01*
X198515489Y-203767019D01*
X198517407Y-203769519D01*
X198384218Y-203871717D01*
X198384217Y-203871718D01*
X198287963Y-203997159D01*
X198227454Y-204143242D01*
X198206818Y-204299997D01*
X198206818Y-204300002D01*
X198227454Y-204456757D01*
X198287963Y-204602840D01*
X198384217Y-204728281D01*
X198384218Y-204728282D01*
X198517407Y-204830481D01*
X198515488Y-204832980D01*
X198558010Y-204875506D01*
X198577969Y-204950007D01*
X198558003Y-205024506D01*
X198515489Y-205067019D01*
X198517407Y-205069519D01*
X198384218Y-205171717D01*
X198384217Y-205171718D01*
X198287963Y-205297159D01*
X198227454Y-205443242D01*
X198206818Y-205599997D01*
X198206818Y-205600002D01*
X198227454Y-205756757D01*
X198287963Y-205902840D01*
X198381344Y-206024536D01*
X198384218Y-206028282D01*
X198509659Y-206124536D01*
X198655738Y-206185044D01*
X198655741Y-206185044D01*
X198655743Y-206185045D01*
X198655740Y-206185045D01*
X198812497Y-206205682D01*
X198812500Y-206205682D01*
X198812503Y-206205682D01*
X198969257Y-206185045D01*
X198969258Y-206185044D01*
X198969262Y-206185044D01*
X199115341Y-206124536D01*
X199240782Y-206028282D01*
X199337036Y-205902841D01*
X199397544Y-205756762D01*
X199413052Y-205638965D01*
X199442567Y-205567709D01*
X199503752Y-205520757D01*
X199615341Y-205474536D01*
X199740782Y-205378282D01*
X199837036Y-205252841D01*
X199897544Y-205106762D01*
X199901415Y-205077363D01*
X199918182Y-204950002D01*
X199918182Y-204949997D01*
X199897545Y-204793242D01*
X199897544Y-204793240D01*
X199897544Y-204793238D01*
X199837036Y-204647159D01*
X199740782Y-204521718D01*
X199615341Y-204425464D01*
X199615340Y-204425463D01*
X199607593Y-204419519D01*
X199609513Y-204417016D01*
X199567003Y-204374518D01*
X199547030Y-204300021D01*
X199566982Y-204225518D01*
X199609509Y-204182978D01*
X199607593Y-204180481D01*
X199656129Y-204143238D01*
X199740782Y-204078282D01*
X199837036Y-203952841D01*
X199897544Y-203806762D01*
X199901665Y-203775464D01*
X199918182Y-203650002D01*
X199918182Y-203649997D01*
X199897545Y-203493242D01*
X199897544Y-203493240D01*
X199897544Y-203493238D01*
X199837036Y-203347159D01*
X199740782Y-203221718D01*
X199656130Y-203156762D01*
X199615340Y-203125463D01*
X199503757Y-203079244D01*
X199442567Y-203032291D01*
X199413052Y-202961034D01*
X199413052Y-202961033D01*
X199397545Y-202843242D01*
X199397544Y-202843240D01*
X199397544Y-202843238D01*
X199337036Y-202697159D01*
X199240782Y-202571718D01*
X199115341Y-202475464D01*
X199115340Y-202475463D01*
X199107593Y-202469519D01*
X199109513Y-202467016D01*
X199067003Y-202424518D01*
X199047030Y-202350021D01*
X199066982Y-202275518D01*
X199109509Y-202232978D01*
X199107593Y-202230481D01*
X199115341Y-202224536D01*
X199240782Y-202128282D01*
X199337036Y-202002841D01*
X199397544Y-201856762D01*
X199418182Y-201700000D01*
X199397544Y-201543238D01*
X199337036Y-201397159D01*
X199240782Y-201271718D01*
X199115341Y-201175464D01*
X199115340Y-201175463D01*
X199035444Y-201142369D01*
X198969262Y-201114956D01*
X198969260Y-201114955D01*
X198969256Y-201114954D01*
X198969259Y-201114954D01*
X198812503Y-201094318D01*
X198812497Y-201094318D01*
X198655742Y-201114954D01*
X198509659Y-201175463D01*
X198384218Y-201271717D01*
X198384217Y-201271718D01*
X198287963Y-201397159D01*
X198227454Y-201543242D01*
X198206818Y-201699997D01*
X196450500Y-201699997D01*
X196450500Y-200374997D01*
X201496818Y-200374997D01*
X201496818Y-200375002D01*
X201517454Y-200531757D01*
X201577963Y-200677840D01*
X201635513Y-200752840D01*
X201674218Y-200803282D01*
X201799659Y-200899536D01*
X201945738Y-200960044D01*
X201945741Y-200960044D01*
X201945743Y-200960045D01*
X201945740Y-200960045D01*
X202102497Y-200980682D01*
X202102500Y-200980682D01*
X202102503Y-200980682D01*
X202259257Y-200960045D01*
X202259258Y-200960044D01*
X202259262Y-200960044D01*
X202405341Y-200899536D01*
X202530782Y-200803282D01*
X202627036Y-200677841D01*
X202687544Y-200531762D01*
X202708182Y-200375000D01*
X202708182Y-200374997D01*
X202687545Y-200218242D01*
X202687544Y-200218240D01*
X202687544Y-200218238D01*
X202627036Y-200072159D01*
X202530782Y-199946718D01*
X202503085Y-199925465D01*
X202405340Y-199850463D01*
X202325444Y-199817369D01*
X202259262Y-199789956D01*
X202259260Y-199789955D01*
X202259256Y-199789954D01*
X202259259Y-199789954D01*
X202102503Y-199769318D01*
X202102497Y-199769318D01*
X201945742Y-199789954D01*
X201799659Y-199850463D01*
X201674218Y-199946717D01*
X201674217Y-199946718D01*
X201577963Y-200072159D01*
X201517454Y-200218242D01*
X201496818Y-200374997D01*
X196450500Y-200374997D01*
X196450500Y-198662497D01*
X198194318Y-198662497D01*
X198194318Y-198662502D01*
X198214954Y-198819257D01*
X198275463Y-198965340D01*
X198275464Y-198965341D01*
X198371718Y-199090782D01*
X198497159Y-199187036D01*
X198643238Y-199247544D01*
X198643241Y-199247544D01*
X198643243Y-199247545D01*
X198643240Y-199247545D01*
X198799997Y-199268182D01*
X198800000Y-199268182D01*
X198800003Y-199268182D01*
X198956757Y-199247545D01*
X198956758Y-199247544D01*
X198956762Y-199247544D01*
X199102841Y-199187036D01*
X199228282Y-199090782D01*
X199324536Y-198965341D01*
X199385044Y-198819262D01*
X199405682Y-198662500D01*
X199405682Y-198662497D01*
X199385045Y-198505742D01*
X199385044Y-198505740D01*
X199385044Y-198505738D01*
X199324536Y-198359659D01*
X199228282Y-198234218D01*
X199187390Y-198202840D01*
X199102840Y-198137963D01*
X199022944Y-198104869D01*
X198956762Y-198077456D01*
X198956760Y-198077455D01*
X198956756Y-198077454D01*
X198956759Y-198077454D01*
X198800003Y-198056818D01*
X198799997Y-198056818D01*
X198643242Y-198077454D01*
X198497159Y-198137963D01*
X198371718Y-198234217D01*
X198371717Y-198234218D01*
X198275463Y-198359659D01*
X198214954Y-198505742D01*
X198194318Y-198662497D01*
X196450500Y-198662497D01*
X196450500Y-194737497D01*
X200894318Y-194737497D01*
X200894318Y-194737502D01*
X200914954Y-194894257D01*
X200975463Y-195040340D01*
X201046640Y-195133099D01*
X201071718Y-195165782D01*
X201197159Y-195262036D01*
X201308742Y-195308255D01*
X201369932Y-195355207D01*
X201399447Y-195426464D01*
X201399447Y-195426465D01*
X201414954Y-195544257D01*
X201475463Y-195690340D01*
X201571717Y-195815781D01*
X201571718Y-195815782D01*
X201704907Y-195917981D01*
X201702988Y-195920480D01*
X201745510Y-195963006D01*
X201765469Y-196037507D01*
X201745503Y-196112006D01*
X201702989Y-196154519D01*
X201704907Y-196157019D01*
X201571718Y-196259217D01*
X201571717Y-196259218D01*
X201475463Y-196384659D01*
X201414954Y-196530742D01*
X201399447Y-196648534D01*
X201369932Y-196719792D01*
X201308743Y-196766744D01*
X201197158Y-196812964D01*
X201071718Y-196909217D01*
X201071717Y-196909218D01*
X200975463Y-197034659D01*
X200914954Y-197180742D01*
X200894318Y-197337497D01*
X200894318Y-197337502D01*
X200914954Y-197494257D01*
X200975463Y-197640340D01*
X200975464Y-197640341D01*
X201071718Y-197765782D01*
X201197159Y-197862036D01*
X201308742Y-197908255D01*
X201369932Y-197955207D01*
X201399447Y-198026464D01*
X201399447Y-198026465D01*
X201414954Y-198144257D01*
X201475463Y-198290340D01*
X201515168Y-198342084D01*
X201571718Y-198415782D01*
X201697159Y-198512036D01*
X201843238Y-198572544D01*
X201843241Y-198572544D01*
X201843243Y-198572545D01*
X201843240Y-198572545D01*
X201999997Y-198593182D01*
X202000000Y-198593182D01*
X202000003Y-198593182D01*
X202156757Y-198572545D01*
X202156758Y-198572544D01*
X202156762Y-198572544D01*
X202302841Y-198512036D01*
X202428282Y-198415782D01*
X202524536Y-198290341D01*
X202585044Y-198144262D01*
X202585874Y-198137963D01*
X202605682Y-197987502D01*
X202605682Y-197987497D01*
X202585045Y-197830742D01*
X202585044Y-197830740D01*
X202585044Y-197830738D01*
X202524536Y-197684659D01*
X202428282Y-197559218D01*
X202302841Y-197462964D01*
X202302840Y-197462963D01*
X202295093Y-197457019D01*
X202297013Y-197454516D01*
X202254503Y-197412018D01*
X202234530Y-197337521D01*
X202254482Y-197263018D01*
X202297009Y-197220478D01*
X202295093Y-197217981D01*
X202343629Y-197180738D01*
X202428282Y-197115782D01*
X202524536Y-196990341D01*
X202585044Y-196844262D01*
X202589165Y-196812964D01*
X202605682Y-196687502D01*
X202605682Y-196687497D01*
X202585045Y-196530742D01*
X202585044Y-196530740D01*
X202585044Y-196530738D01*
X202524536Y-196384659D01*
X202428282Y-196259218D01*
X202302841Y-196162964D01*
X202302840Y-196162963D01*
X202295093Y-196157019D01*
X202297013Y-196154516D01*
X202254503Y-196112018D01*
X202234530Y-196037521D01*
X202254482Y-195963018D01*
X202297009Y-195920478D01*
X202295093Y-195917981D01*
X202326136Y-195894161D01*
X202428282Y-195815782D01*
X202524536Y-195690341D01*
X202585044Y-195544262D01*
X202600553Y-195426464D01*
X202605682Y-195387502D01*
X202605682Y-195387497D01*
X202585045Y-195230742D01*
X202585044Y-195230740D01*
X202585044Y-195230738D01*
X202524536Y-195084659D01*
X202428282Y-194959218D01*
X202302841Y-194862964D01*
X202302840Y-194862963D01*
X202295093Y-194857019D01*
X202297013Y-194854516D01*
X202254503Y-194812018D01*
X202234530Y-194737521D01*
X202254482Y-194663018D01*
X202297009Y-194620478D01*
X202295093Y-194617981D01*
X202343629Y-194580738D01*
X202428282Y-194515782D01*
X202524536Y-194390341D01*
X202585044Y-194244262D01*
X202589165Y-194212964D01*
X202605682Y-194087502D01*
X202605682Y-194087497D01*
X202585045Y-193930742D01*
X202585044Y-193930740D01*
X202585044Y-193930738D01*
X202524536Y-193784659D01*
X202428282Y-193659218D01*
X202328729Y-193582828D01*
X202302840Y-193562963D01*
X202222944Y-193529869D01*
X202156762Y-193502456D01*
X202156760Y-193502455D01*
X202156756Y-193502454D01*
X202156759Y-193502454D01*
X202000003Y-193481818D01*
X201999997Y-193481818D01*
X201843242Y-193502454D01*
X201697159Y-193562963D01*
X201571718Y-193659217D01*
X201571717Y-193659218D01*
X201475463Y-193784659D01*
X201414954Y-193930742D01*
X201399447Y-194048534D01*
X201369932Y-194119792D01*
X201308743Y-194166744D01*
X201197158Y-194212964D01*
X201071718Y-194309217D01*
X201071717Y-194309218D01*
X200975463Y-194434659D01*
X200914954Y-194580742D01*
X200894318Y-194737497D01*
X196450500Y-194737497D01*
X196450500Y-193302566D01*
X196470462Y-193228066D01*
X196481280Y-193211874D01*
X196574536Y-193090341D01*
X196635044Y-192944262D01*
X196654037Y-192800000D01*
X196655682Y-192787502D01*
X196655682Y-192787497D01*
X196635045Y-192630742D01*
X196635044Y-192630740D01*
X196635044Y-192630738D01*
X196574536Y-192484659D01*
X196499930Y-192387430D01*
X196481290Y-192363137D01*
X196451775Y-192291879D01*
X196450500Y-192272432D01*
X196450500Y-183924500D01*
X196470462Y-183850000D01*
X196525000Y-183795462D01*
X196599500Y-183775500D01*
X198413972Y-183775500D01*
X198488472Y-183795462D01*
X198543010Y-183850000D01*
X198562972Y-183924500D01*
X198561697Y-183943948D01*
X198554318Y-183999997D01*
X198554318Y-184000002D01*
X198574954Y-184156757D01*
X198635463Y-184302840D01*
X198635464Y-184302841D01*
X198731718Y-184428282D01*
X198857159Y-184524536D01*
X199003238Y-184585044D01*
X199003241Y-184585044D01*
X199003243Y-184585045D01*
X199003240Y-184585045D01*
X199159997Y-184605682D01*
X199160000Y-184605682D01*
X199160003Y-184605682D01*
X199316757Y-184585045D01*
X199316758Y-184585044D01*
X199316762Y-184585044D01*
X199462841Y-184524536D01*
X199588282Y-184428282D01*
X199684536Y-184302841D01*
X199745044Y-184156762D01*
X199753068Y-184095818D01*
X199765682Y-184000002D01*
X199765682Y-183999997D01*
X199758303Y-183943948D01*
X199768370Y-183867480D01*
X199815323Y-183806290D01*
X199886580Y-183776775D01*
X199906028Y-183775500D01*
X203682389Y-183775500D01*
X203756889Y-183795462D01*
X203787748Y-183819141D01*
X204255859Y-184287251D01*
X204294423Y-184354046D01*
X204299500Y-184392610D01*
X204299500Y-205738190D01*
X204279538Y-205812690D01*
X204268710Y-205828895D01*
X204177963Y-205947159D01*
X204117454Y-206093242D01*
X204096818Y-206249997D01*
X204096818Y-206250002D01*
X204117454Y-206406757D01*
X204177962Y-206552838D01*
X204177963Y-206552840D01*
X204177964Y-206552841D01*
X204268711Y-206671105D01*
X204298225Y-206742360D01*
X204299500Y-206761808D01*
X204299500Y-221034932D01*
X204279538Y-221109432D01*
X204268710Y-221125637D01*
X204175463Y-221247159D01*
X204114954Y-221393242D01*
X204094318Y-221549997D01*
X204094318Y-221550002D01*
X204114954Y-221706757D01*
X204175463Y-221852840D01*
X204175464Y-221852841D01*
X204271718Y-221978282D01*
X204397159Y-222074536D01*
X204543238Y-222135044D01*
X204543241Y-222135044D01*
X204543243Y-222135045D01*
X204543240Y-222135045D01*
X204699997Y-222155682D01*
X204700000Y-222155682D01*
X204700003Y-222155682D01*
X204856757Y-222135045D01*
X204856758Y-222135044D01*
X204856762Y-222135044D01*
X205002841Y-222074536D01*
X205128282Y-221978282D01*
X205224536Y-221852841D01*
X205285044Y-221706762D01*
X205305682Y-221550000D01*
X205305682Y-221549997D01*
X205285045Y-221393242D01*
X205285044Y-221393240D01*
X205285044Y-221393238D01*
X205224536Y-221247159D01*
X205190529Y-221202840D01*
X205131290Y-221125637D01*
X205101775Y-221054379D01*
X205100500Y-221034932D01*
X205100500Y-206768325D01*
X205120462Y-206693825D01*
X205131290Y-206677620D01*
X205136291Y-206671102D01*
X205227036Y-206552841D01*
X205287544Y-206406762D01*
X205308182Y-206250000D01*
X205308182Y-206249997D01*
X205287545Y-206093242D01*
X205287544Y-206093240D01*
X205287544Y-206093238D01*
X205227036Y-205947159D01*
X205212551Y-205928282D01*
X205131290Y-205822379D01*
X205101775Y-205751121D01*
X205100500Y-205731674D01*
X205100500Y-190900000D01*
X210500000Y-190900000D01*
X210500000Y-223400000D01*
X210573311Y-223400000D01*
X210647811Y-223419962D01*
X210678670Y-223443641D01*
X210687235Y-223452206D01*
X210790009Y-223497585D01*
X210815135Y-223500500D01*
X213304864Y-223500499D01*
X213304866Y-223500499D01*
X213317427Y-223499042D01*
X213329991Y-223497585D01*
X213432765Y-223452206D01*
X213441330Y-223443641D01*
X213508125Y-223405077D01*
X213546689Y-223400000D01*
X215700000Y-223400000D01*
X215700000Y-210599997D01*
X216044318Y-210599997D01*
X216044318Y-210600002D01*
X216064954Y-210756757D01*
X216125463Y-210902840D01*
X216125464Y-210902841D01*
X216221718Y-211028282D01*
X216347159Y-211124536D01*
X216493238Y-211185044D01*
X216493241Y-211185044D01*
X216493243Y-211185045D01*
X216493240Y-211185045D01*
X216649997Y-211205682D01*
X216650000Y-211205682D01*
X216650003Y-211205682D01*
X216806757Y-211185045D01*
X216806758Y-211185044D01*
X216806762Y-211185044D01*
X216952841Y-211124536D01*
X217078282Y-211028282D01*
X217174536Y-210902841D01*
X217235044Y-210756762D01*
X217236203Y-210747964D01*
X217255682Y-210600002D01*
X217255682Y-210599997D01*
X217235045Y-210443242D01*
X217235044Y-210443240D01*
X217235044Y-210443238D01*
X217174536Y-210297159D01*
X217078282Y-210171718D01*
X216952841Y-210075464D01*
X216952840Y-210075463D01*
X216842451Y-210029739D01*
X216806762Y-210014956D01*
X216806760Y-210014955D01*
X216806756Y-210014954D01*
X216806759Y-210014954D01*
X216650003Y-209994318D01*
X216649997Y-209994318D01*
X216493242Y-210014954D01*
X216347159Y-210075463D01*
X216221718Y-210171717D01*
X216221717Y-210171718D01*
X216125463Y-210297159D01*
X216064954Y-210443242D01*
X216044318Y-210599997D01*
X215700000Y-210599997D01*
X215700000Y-208660294D01*
X215719962Y-208585794D01*
X215774500Y-208531256D01*
X215849000Y-208511294D01*
X215923500Y-208531256D01*
X215939705Y-208542084D01*
X216025016Y-208607545D01*
X216047159Y-208624536D01*
X216193238Y-208685044D01*
X216193241Y-208685044D01*
X216193243Y-208685045D01*
X216193240Y-208685045D01*
X216349997Y-208705682D01*
X216350000Y-208705682D01*
X216350003Y-208705682D01*
X216506757Y-208685045D01*
X216506758Y-208685044D01*
X216506762Y-208685044D01*
X216652841Y-208624536D01*
X216778282Y-208528282D01*
X216874536Y-208402841D01*
X216935044Y-208256762D01*
X216936696Y-208244218D01*
X216955682Y-208100002D01*
X216955682Y-208099997D01*
X216935045Y-207943242D01*
X216935044Y-207943240D01*
X216935044Y-207943238D01*
X216874536Y-207797159D01*
X216778282Y-207671718D01*
X216661271Y-207581932D01*
X216652840Y-207575463D01*
X216566511Y-207539705D01*
X216506762Y-207514956D01*
X216506760Y-207514955D01*
X216506756Y-207514954D01*
X216506759Y-207514954D01*
X216350003Y-207494318D01*
X216349997Y-207494318D01*
X216193242Y-207514954D01*
X216047158Y-207575464D01*
X216047156Y-207575465D01*
X215939704Y-207657915D01*
X215868447Y-207687430D01*
X215791979Y-207677363D01*
X215730790Y-207630409D01*
X215701275Y-207559152D01*
X215700000Y-207539705D01*
X215700000Y-206060294D01*
X215719962Y-205985794D01*
X215774500Y-205931256D01*
X215849000Y-205911294D01*
X215923500Y-205931256D01*
X215939706Y-205942084D01*
X216047159Y-206024536D01*
X216193238Y-206085044D01*
X216193241Y-206085044D01*
X216193243Y-206085045D01*
X216193240Y-206085045D01*
X216349997Y-206105682D01*
X216350000Y-206105682D01*
X216350003Y-206105682D01*
X216506757Y-206085045D01*
X216506758Y-206085044D01*
X216506762Y-206085044D01*
X216652841Y-206024536D01*
X216778282Y-205928282D01*
X216874536Y-205802841D01*
X216935044Y-205656762D01*
X216942518Y-205599997D01*
X216955682Y-205500002D01*
X216955682Y-205499997D01*
X216935045Y-205343242D01*
X216935044Y-205343240D01*
X216935044Y-205343238D01*
X216874536Y-205197159D01*
X216778282Y-205071718D01*
X216775417Y-205069519D01*
X216652840Y-204975463D01*
X216566511Y-204939705D01*
X216506762Y-204914956D01*
X216506760Y-204914955D01*
X216506756Y-204914954D01*
X216506759Y-204914954D01*
X216350003Y-204894318D01*
X216349997Y-204894318D01*
X216193242Y-204914954D01*
X216047158Y-204975464D01*
X216047156Y-204975465D01*
X215939704Y-205057915D01*
X215868447Y-205087430D01*
X215791979Y-205077363D01*
X215730790Y-205030409D01*
X215701275Y-204959152D01*
X215700000Y-204939705D01*
X215700000Y-203460294D01*
X215719962Y-203385794D01*
X215774500Y-203331256D01*
X215849000Y-203311294D01*
X215923500Y-203331256D01*
X215939706Y-203342084D01*
X216047159Y-203424536D01*
X216193238Y-203485044D01*
X216193241Y-203485044D01*
X216193243Y-203485045D01*
X216193240Y-203485045D01*
X216349997Y-203505682D01*
X216350000Y-203505682D01*
X216350003Y-203505682D01*
X216506757Y-203485045D01*
X216506758Y-203485044D01*
X216506762Y-203485044D01*
X216652841Y-203424536D01*
X216778282Y-203328282D01*
X216874536Y-203202841D01*
X216935044Y-203056762D01*
X216942518Y-202999997D01*
X216955682Y-202900002D01*
X216955682Y-202899997D01*
X216935045Y-202743242D01*
X216935044Y-202743240D01*
X216935044Y-202743238D01*
X216874536Y-202597159D01*
X216778282Y-202471718D01*
X216775417Y-202469519D01*
X216652840Y-202375463D01*
X216566511Y-202339705D01*
X216506762Y-202314956D01*
X216506760Y-202314955D01*
X216506756Y-202314954D01*
X216506759Y-202314954D01*
X216350003Y-202294318D01*
X216349997Y-202294318D01*
X216193242Y-202314954D01*
X216047158Y-202375464D01*
X216047156Y-202375465D01*
X215939704Y-202457915D01*
X215868447Y-202487430D01*
X215791979Y-202477363D01*
X215730790Y-202430409D01*
X215701275Y-202359152D01*
X215700000Y-202339705D01*
X215700000Y-201010294D01*
X215719962Y-200935794D01*
X215774500Y-200881256D01*
X215849000Y-200861294D01*
X215923500Y-200881256D01*
X215939706Y-200892084D01*
X216047159Y-200974536D01*
X216193238Y-201035044D01*
X216193241Y-201035044D01*
X216193243Y-201035045D01*
X216193240Y-201035045D01*
X216349997Y-201055682D01*
X216350000Y-201055682D01*
X216350003Y-201055682D01*
X216506757Y-201035045D01*
X216506758Y-201035044D01*
X216506762Y-201035044D01*
X216652841Y-200974536D01*
X216778282Y-200878282D01*
X216874536Y-200752841D01*
X216935044Y-200606762D01*
X216955682Y-200450000D01*
X216955682Y-200449997D01*
X216935045Y-200293242D01*
X216935044Y-200293240D01*
X216935044Y-200293238D01*
X216874536Y-200147159D01*
X216778282Y-200021718D01*
X216652843Y-199925465D01*
X216652840Y-199925463D01*
X216566511Y-199889705D01*
X216506762Y-199864956D01*
X216506760Y-199864955D01*
X216506756Y-199864954D01*
X216506759Y-199864954D01*
X216350003Y-199844318D01*
X216349997Y-199844318D01*
X216193242Y-199864954D01*
X216047158Y-199925464D01*
X216047156Y-199925465D01*
X215939704Y-200007915D01*
X215868447Y-200037430D01*
X215791979Y-200027363D01*
X215730790Y-199980409D01*
X215701275Y-199909152D01*
X215700000Y-199889705D01*
X215700000Y-198460294D01*
X215719962Y-198385794D01*
X215774500Y-198331256D01*
X215849000Y-198311294D01*
X215923500Y-198331256D01*
X215939706Y-198342084D01*
X216047159Y-198424536D01*
X216193238Y-198485044D01*
X216193241Y-198485044D01*
X216193243Y-198485045D01*
X216193240Y-198485045D01*
X216349997Y-198505682D01*
X216350000Y-198505682D01*
X216350003Y-198505682D01*
X216506757Y-198485045D01*
X216506758Y-198485044D01*
X216506762Y-198485044D01*
X216652841Y-198424536D01*
X216778282Y-198328282D01*
X216874536Y-198202841D01*
X216935044Y-198056762D01*
X216944163Y-197987502D01*
X216955682Y-197900002D01*
X216955682Y-197899997D01*
X216935045Y-197743242D01*
X216935044Y-197743240D01*
X216935044Y-197743238D01*
X216874536Y-197597159D01*
X216778282Y-197471718D01*
X216700480Y-197412018D01*
X216652840Y-197375463D01*
X216566511Y-197339705D01*
X216506762Y-197314956D01*
X216506760Y-197314955D01*
X216506756Y-197314954D01*
X216506759Y-197314954D01*
X216350003Y-197294318D01*
X216349997Y-197294318D01*
X216193242Y-197314954D01*
X216047158Y-197375464D01*
X216047156Y-197375465D01*
X215939704Y-197457915D01*
X215868447Y-197487430D01*
X215791979Y-197477363D01*
X215730790Y-197430409D01*
X215701275Y-197359152D01*
X215700000Y-197339705D01*
X215700000Y-195910294D01*
X215719962Y-195835794D01*
X215774500Y-195781256D01*
X215849000Y-195761294D01*
X215923500Y-195781256D01*
X215939706Y-195792084D01*
X216047159Y-195874536D01*
X216193238Y-195935044D01*
X216193241Y-195935044D01*
X216193243Y-195935045D01*
X216193240Y-195935045D01*
X216349997Y-195955682D01*
X216350000Y-195955682D01*
X216350003Y-195955682D01*
X216506757Y-195935045D01*
X216506758Y-195935044D01*
X216506762Y-195935044D01*
X216652841Y-195874536D01*
X216778282Y-195778282D01*
X216874536Y-195652841D01*
X216935044Y-195506762D01*
X216945616Y-195426465D01*
X216955682Y-195350002D01*
X216955682Y-195349997D01*
X216935045Y-195193242D01*
X216935044Y-195193240D01*
X216935044Y-195193238D01*
X216874536Y-195047159D01*
X216778282Y-194921718D01*
X216693965Y-194857019D01*
X216652840Y-194825463D01*
X216566511Y-194789705D01*
X216506762Y-194764956D01*
X216506760Y-194764955D01*
X216506756Y-194764954D01*
X216506759Y-194764954D01*
X216350003Y-194744318D01*
X216349997Y-194744318D01*
X216193242Y-194764954D01*
X216047158Y-194825464D01*
X216047156Y-194825465D01*
X215939704Y-194907915D01*
X215868447Y-194937430D01*
X215791979Y-194927363D01*
X215730790Y-194880409D01*
X215701275Y-194809152D01*
X215700000Y-194789705D01*
X215700000Y-193360294D01*
X215719962Y-193285794D01*
X215774500Y-193231256D01*
X215849000Y-193211294D01*
X215923500Y-193231256D01*
X215939705Y-193242084D01*
X215996669Y-193285794D01*
X216047159Y-193324536D01*
X216193238Y-193385044D01*
X216193241Y-193385044D01*
X216193243Y-193385045D01*
X216193240Y-193385045D01*
X216349997Y-193405682D01*
X216350000Y-193405682D01*
X216350003Y-193405682D01*
X216506757Y-193385045D01*
X216506758Y-193385044D01*
X216506762Y-193385044D01*
X216652841Y-193324536D01*
X216778282Y-193228282D01*
X216874536Y-193102841D01*
X216935044Y-192956762D01*
X216936691Y-192944257D01*
X216955682Y-192800002D01*
X216955682Y-192799997D01*
X216935045Y-192643242D01*
X216935044Y-192643240D01*
X216935044Y-192643238D01*
X216874536Y-192497159D01*
X216778282Y-192371718D01*
X216734210Y-192337900D01*
X216652840Y-192275463D01*
X216566511Y-192239705D01*
X216506762Y-192214956D01*
X216506760Y-192214955D01*
X216506756Y-192214954D01*
X216506759Y-192214954D01*
X216350003Y-192194318D01*
X216349997Y-192194318D01*
X216193242Y-192214954D01*
X216047158Y-192275464D01*
X216047156Y-192275465D01*
X215939704Y-192357915D01*
X215868447Y-192387430D01*
X215791979Y-192377363D01*
X215730790Y-192330409D01*
X215701275Y-192259152D01*
X215700000Y-192239705D01*
X215700000Y-190900000D01*
X212905653Y-190900000D01*
X212859609Y-190892707D01*
X212745658Y-190855682D01*
X212717701Y-190846598D01*
X212546611Y-190819500D01*
X211573389Y-190819500D01*
X211402299Y-190846598D01*
X211260391Y-190892707D01*
X211214347Y-190900000D01*
X210500000Y-190900000D01*
X205100500Y-190900000D01*
X205100500Y-189293389D01*
X210559500Y-189293389D01*
X210559500Y-189466611D01*
X210571137Y-189540086D01*
X210586597Y-189637700D01*
X210615114Y-189725463D01*
X210640127Y-189802445D01*
X210649947Y-189821717D01*
X210718771Y-189956793D01*
X210817905Y-190093238D01*
X210820586Y-190096928D01*
X210943072Y-190219414D01*
X211083212Y-190321232D01*
X211237555Y-190399873D01*
X211402299Y-190453402D01*
X211573389Y-190480500D01*
X211573393Y-190480500D01*
X212546607Y-190480500D01*
X212546611Y-190480500D01*
X212717701Y-190453402D01*
X212882445Y-190399873D01*
X213036788Y-190321232D01*
X213134834Y-190249997D01*
X215744318Y-190249997D01*
X215744318Y-190250002D01*
X215764954Y-190406757D01*
X215825463Y-190552840D01*
X215825464Y-190552841D01*
X215921718Y-190678282D01*
X216047159Y-190774536D01*
X216193238Y-190835044D01*
X216193241Y-190835044D01*
X216193243Y-190835045D01*
X216193240Y-190835045D01*
X216349997Y-190855682D01*
X216350000Y-190855682D01*
X216350003Y-190855682D01*
X216506757Y-190835045D01*
X216506758Y-190835044D01*
X216506762Y-190835044D01*
X216652841Y-190774536D01*
X216778282Y-190678282D01*
X216874536Y-190552841D01*
X216935044Y-190406762D01*
X216935952Y-190399869D01*
X216955682Y-190250002D01*
X216955682Y-190249997D01*
X216935045Y-190093242D01*
X216935044Y-190093240D01*
X216935044Y-190093238D01*
X216874536Y-189947159D01*
X216778282Y-189821718D01*
X216753172Y-189802450D01*
X216652840Y-189725463D01*
X216572944Y-189692369D01*
X216506762Y-189664956D01*
X216506760Y-189664955D01*
X216506756Y-189664954D01*
X216506759Y-189664954D01*
X216350003Y-189644318D01*
X216349997Y-189644318D01*
X216193242Y-189664954D01*
X216047159Y-189725463D01*
X215921718Y-189821717D01*
X215921717Y-189821718D01*
X215825463Y-189947159D01*
X215764954Y-190093242D01*
X215744318Y-190249997D01*
X213134834Y-190249997D01*
X213176928Y-190219414D01*
X213299414Y-190096928D01*
X213401232Y-189956788D01*
X213479873Y-189802445D01*
X213533402Y-189637701D01*
X213560500Y-189466611D01*
X213560500Y-189293389D01*
X213533402Y-189122299D01*
X213479873Y-188957555D01*
X213401232Y-188803212D01*
X213299414Y-188663072D01*
X213176928Y-188540586D01*
X213176924Y-188540583D01*
X213036793Y-188438771D01*
X213036790Y-188438769D01*
X213036788Y-188438768D01*
X212882445Y-188360127D01*
X212834821Y-188344653D01*
X212717700Y-188306597D01*
X212620086Y-188291137D01*
X212546611Y-188279500D01*
X211573389Y-188279500D01*
X211507037Y-188290009D01*
X211402299Y-188306597D01*
X211237561Y-188360125D01*
X211237555Y-188360127D01*
X211237549Y-188360129D01*
X211237549Y-188360130D01*
X211083206Y-188438771D01*
X210943075Y-188540583D01*
X210820583Y-188663075D01*
X210718771Y-188803206D01*
X210640130Y-188957549D01*
X210640125Y-188957561D01*
X210586597Y-189122299D01*
X210568228Y-189238282D01*
X210559500Y-189293389D01*
X205100500Y-189293389D01*
X205100500Y-187299997D01*
X207294318Y-187299997D01*
X207294318Y-187300002D01*
X207314954Y-187456757D01*
X207375463Y-187602840D01*
X207375464Y-187602841D01*
X207471718Y-187728282D01*
X207597159Y-187824536D01*
X207743238Y-187885044D01*
X207743241Y-187885044D01*
X207743243Y-187885045D01*
X207743240Y-187885045D01*
X207899997Y-187905682D01*
X207900000Y-187905682D01*
X207900003Y-187905682D01*
X208056757Y-187885045D01*
X208056758Y-187885044D01*
X208056762Y-187885044D01*
X208202841Y-187824536D01*
X208328282Y-187728282D01*
X208424536Y-187602841D01*
X208485044Y-187456762D01*
X208505682Y-187300000D01*
X208485044Y-187143238D01*
X208424536Y-186997159D01*
X208328282Y-186871718D01*
X208202841Y-186775464D01*
X208202840Y-186775463D01*
X208122944Y-186742369D01*
X208056762Y-186714956D01*
X208056760Y-186714955D01*
X208056756Y-186714954D01*
X208056759Y-186714954D01*
X207900003Y-186694318D01*
X207899997Y-186694318D01*
X207743242Y-186714954D01*
X207597159Y-186775463D01*
X207471718Y-186871717D01*
X207471717Y-186871718D01*
X207375463Y-186997159D01*
X207314954Y-187143242D01*
X207294318Y-187299997D01*
X205100500Y-187299997D01*
X205100500Y-184229744D01*
X205100501Y-184229731D01*
X205100501Y-184112276D01*
X205100501Y-184112273D01*
X205073207Y-184010413D01*
X205036687Y-183947159D01*
X205020480Y-183919087D01*
X204945913Y-183844520D01*
X204945910Y-183844518D01*
X204581750Y-183480358D01*
X204543186Y-183413563D01*
X204543186Y-183336435D01*
X204581747Y-183269644D01*
X204933645Y-182917745D01*
X204933650Y-182917742D01*
X204945911Y-182905480D01*
X204945913Y-182905480D01*
X205020480Y-182830913D01*
X205073207Y-182739587D01*
X205083484Y-182701232D01*
X205100501Y-182637727D01*
X205100501Y-182532273D01*
X205100501Y-182523145D01*
X205100500Y-182523127D01*
X205100500Y-179304997D01*
X205939318Y-179304997D01*
X205939318Y-179305002D01*
X205959954Y-179461757D01*
X206020463Y-179607840D01*
X206107845Y-179721718D01*
X206116718Y-179733282D01*
X206242159Y-179829536D01*
X206388238Y-179890044D01*
X206388241Y-179890044D01*
X206388243Y-179890045D01*
X206388240Y-179890045D01*
X206544997Y-179910682D01*
X206545000Y-179910682D01*
X206545003Y-179910682D01*
X206701757Y-179890045D01*
X206701758Y-179890044D01*
X206701762Y-179890044D01*
X206847841Y-179829536D01*
X206973282Y-179733282D01*
X207069536Y-179607841D01*
X207130044Y-179461762D01*
X207150682Y-179305000D01*
X207130044Y-179148238D01*
X207069536Y-179002159D01*
X206973282Y-178876718D01*
X206847841Y-178780464D01*
X206847840Y-178780463D01*
X206767944Y-178747369D01*
X206701762Y-178719956D01*
X206701760Y-178719955D01*
X206701756Y-178719954D01*
X206701759Y-178719954D01*
X206545003Y-178699318D01*
X206544997Y-178699318D01*
X206388242Y-178719954D01*
X206242159Y-178780463D01*
X206116718Y-178876717D01*
X206116717Y-178876718D01*
X206020463Y-179002159D01*
X205959954Y-179148242D01*
X205939318Y-179304997D01*
X205100500Y-179304997D01*
X205100500Y-173840066D01*
X205120462Y-173765566D01*
X205131280Y-173749374D01*
X205224536Y-173627841D01*
X205285044Y-173481762D01*
X205305682Y-173325000D01*
X205305682Y-173324997D01*
X205285045Y-173168242D01*
X205285044Y-173168240D01*
X205285044Y-173168238D01*
X205224536Y-173022159D01*
X205171346Y-172952840D01*
X205131290Y-172900637D01*
X205101775Y-172829379D01*
X205100500Y-172809932D01*
X205100500Y-158518325D01*
X205120462Y-158443825D01*
X205131290Y-158427620D01*
X205136291Y-158421102D01*
X205227036Y-158302841D01*
X205287544Y-158156762D01*
X205308182Y-158000000D01*
X205308182Y-157999997D01*
X205287545Y-157843242D01*
X205287544Y-157843240D01*
X205287544Y-157843238D01*
X205227036Y-157697159D01*
X205130782Y-157571718D01*
X205046130Y-157506762D01*
X205005340Y-157475463D01*
X204925444Y-157442369D01*
X204859262Y-157414956D01*
X204859260Y-157414955D01*
X204859256Y-157414954D01*
X204859259Y-157414954D01*
X204702503Y-157394318D01*
X204702497Y-157394318D01*
X204545742Y-157414954D01*
X204399659Y-157475463D01*
X204274218Y-157571717D01*
X204274217Y-157571718D01*
X204177963Y-157697159D01*
X204117454Y-157843242D01*
X204096818Y-157999997D01*
X204096818Y-158000002D01*
X204117454Y-158156757D01*
X204177962Y-158302838D01*
X204177963Y-158302840D01*
X204177964Y-158302841D01*
X204268711Y-158421105D01*
X204298225Y-158492360D01*
X204299500Y-158511808D01*
X204299500Y-172809932D01*
X204279538Y-172884432D01*
X204268710Y-172900637D01*
X204175463Y-173022159D01*
X204114954Y-173168242D01*
X204094318Y-173324997D01*
X204094318Y-173325002D01*
X204114954Y-173481757D01*
X204175462Y-173627838D01*
X204175463Y-173627840D01*
X204175464Y-173627841D01*
X204268711Y-173749364D01*
X204298225Y-173820617D01*
X204299500Y-173840066D01*
X204299500Y-182357389D01*
X204279538Y-182431889D01*
X204255859Y-182462748D01*
X203787748Y-182930859D01*
X203720953Y-182969423D01*
X203682389Y-182974500D01*
X196599500Y-182974500D01*
X196525000Y-182954538D01*
X196470462Y-182900000D01*
X196450500Y-182825500D01*
X196450500Y-182024997D01*
X201554318Y-182024997D01*
X201554318Y-182025002D01*
X201574954Y-182181757D01*
X201635463Y-182327840D01*
X201715303Y-182431889D01*
X201731718Y-182453282D01*
X201857159Y-182549536D01*
X202003238Y-182610044D01*
X202003241Y-182610044D01*
X202003243Y-182610045D01*
X202003240Y-182610045D01*
X202159997Y-182630682D01*
X202160000Y-182630682D01*
X202160003Y-182630682D01*
X202316757Y-182610045D01*
X202316758Y-182610044D01*
X202316762Y-182610044D01*
X202462841Y-182549536D01*
X202588282Y-182453282D01*
X202684536Y-182327841D01*
X202745044Y-182181762D01*
X202754604Y-182109152D01*
X202765682Y-182025002D01*
X202765682Y-182024997D01*
X202745045Y-181868242D01*
X202745044Y-181868240D01*
X202745044Y-181868238D01*
X202684536Y-181722159D01*
X202588282Y-181596718D01*
X202462841Y-181500464D01*
X202462840Y-181500463D01*
X202382944Y-181467369D01*
X202316762Y-181439956D01*
X202316760Y-181439955D01*
X202316756Y-181439954D01*
X202316759Y-181439954D01*
X202160003Y-181419318D01*
X202159997Y-181419318D01*
X202003242Y-181439954D01*
X201857159Y-181500463D01*
X201731718Y-181596717D01*
X201731717Y-181596718D01*
X201635463Y-181722159D01*
X201574954Y-181868242D01*
X201554318Y-182024997D01*
X196450500Y-182024997D01*
X196450500Y-168099997D01*
X198294318Y-168099997D01*
X198294318Y-168100002D01*
X198314954Y-168256757D01*
X198375463Y-168402840D01*
X198471717Y-168528281D01*
X198471718Y-168528282D01*
X198604907Y-168630481D01*
X198602988Y-168632980D01*
X198645510Y-168675506D01*
X198665469Y-168750007D01*
X198645503Y-168824506D01*
X198602989Y-168867019D01*
X198604907Y-168869519D01*
X198471718Y-168971717D01*
X198471717Y-168971718D01*
X198375463Y-169097159D01*
X198314954Y-169243242D01*
X198294318Y-169399997D01*
X198294318Y-169400002D01*
X198314954Y-169556757D01*
X198375463Y-169702840D01*
X198471717Y-169828281D01*
X198471718Y-169828282D01*
X198604907Y-169930481D01*
X198602988Y-169932980D01*
X198645510Y-169975506D01*
X198665469Y-170050007D01*
X198645503Y-170124506D01*
X198602989Y-170167019D01*
X198604907Y-170169519D01*
X198471718Y-170271717D01*
X198471717Y-170271718D01*
X198375463Y-170397159D01*
X198314954Y-170543242D01*
X198294318Y-170699997D01*
X198294318Y-170700002D01*
X198314954Y-170856757D01*
X198375463Y-171002840D01*
X198471717Y-171128281D01*
X198471718Y-171128282D01*
X198604907Y-171230481D01*
X198602988Y-171232980D01*
X198645510Y-171275506D01*
X198665469Y-171350007D01*
X198645503Y-171424506D01*
X198602989Y-171467019D01*
X198604907Y-171469519D01*
X198471718Y-171571717D01*
X198471717Y-171571718D01*
X198375463Y-171697159D01*
X198314954Y-171843242D01*
X198294318Y-171999997D01*
X198294318Y-172000002D01*
X198314954Y-172156757D01*
X198375463Y-172302840D01*
X198406465Y-172343242D01*
X198471718Y-172428282D01*
X198597159Y-172524536D01*
X198708742Y-172570755D01*
X198769932Y-172617707D01*
X198799447Y-172688964D01*
X198799447Y-172688965D01*
X198814954Y-172806757D01*
X198875463Y-172952840D01*
X198875464Y-172952841D01*
X198971718Y-173078282D01*
X199097159Y-173174536D01*
X199243238Y-173235044D01*
X199243241Y-173235044D01*
X199243243Y-173235045D01*
X199243240Y-173235045D01*
X199399997Y-173255682D01*
X199400000Y-173255682D01*
X199400003Y-173255682D01*
X199556757Y-173235045D01*
X199556758Y-173235044D01*
X199556762Y-173235044D01*
X199702841Y-173174536D01*
X199828282Y-173078282D01*
X199924536Y-172952841D01*
X199985044Y-172806762D01*
X199985561Y-172802841D01*
X200005682Y-172650002D01*
X200005682Y-172649997D01*
X199985045Y-172493242D01*
X199985044Y-172493240D01*
X199985044Y-172493238D01*
X199924536Y-172347159D01*
X199828282Y-172221718D01*
X199702841Y-172125464D01*
X199702840Y-172125463D01*
X199695093Y-172119519D01*
X199697013Y-172117016D01*
X199654503Y-172074518D01*
X199634530Y-172000021D01*
X199654482Y-171925518D01*
X199697009Y-171882978D01*
X199695093Y-171880481D01*
X199743629Y-171843238D01*
X199828282Y-171778282D01*
X199924536Y-171652841D01*
X199985044Y-171506762D01*
X199989165Y-171475464D01*
X200005682Y-171350002D01*
X200005682Y-171349997D01*
X199985045Y-171193242D01*
X199985044Y-171193240D01*
X199985044Y-171193238D01*
X199924536Y-171047159D01*
X199828282Y-170921718D01*
X199702841Y-170825464D01*
X199702840Y-170825463D01*
X199695093Y-170819519D01*
X199697013Y-170817016D01*
X199654503Y-170774518D01*
X199634530Y-170700021D01*
X199654482Y-170625518D01*
X199697009Y-170582978D01*
X199695093Y-170580481D01*
X199743629Y-170543238D01*
X199828282Y-170478282D01*
X199924536Y-170352841D01*
X199985044Y-170206762D01*
X199985561Y-170202841D01*
X200005682Y-170050002D01*
X200005682Y-170049997D01*
X199985045Y-169893242D01*
X199985044Y-169893240D01*
X199985044Y-169893238D01*
X199924536Y-169747159D01*
X199828282Y-169621718D01*
X199702841Y-169525464D01*
X199702840Y-169525463D01*
X199695093Y-169519519D01*
X199697013Y-169517016D01*
X199654503Y-169474518D01*
X199634530Y-169400021D01*
X199654482Y-169325518D01*
X199697009Y-169282978D01*
X199695093Y-169280481D01*
X199743629Y-169243238D01*
X199828282Y-169178282D01*
X199924536Y-169052841D01*
X199985044Y-168906762D01*
X199989165Y-168875464D01*
X200005682Y-168750002D01*
X200005682Y-168749997D01*
X199985045Y-168593242D01*
X199985044Y-168593240D01*
X199985044Y-168593238D01*
X199924536Y-168447159D01*
X199828282Y-168321718D01*
X199743630Y-168256762D01*
X199702840Y-168225463D01*
X199591257Y-168179244D01*
X199530067Y-168132291D01*
X199500552Y-168061034D01*
X199500552Y-168061033D01*
X199485045Y-167943242D01*
X199485044Y-167943240D01*
X199485044Y-167943238D01*
X199424536Y-167797159D01*
X199328282Y-167671718D01*
X199211043Y-167581757D01*
X199202840Y-167575463D01*
X199122944Y-167542369D01*
X199056762Y-167514956D01*
X199056760Y-167514955D01*
X199056756Y-167514954D01*
X199056759Y-167514954D01*
X198900003Y-167494318D01*
X198899997Y-167494318D01*
X198743242Y-167514954D01*
X198597159Y-167575463D01*
X198471718Y-167671717D01*
X198471717Y-167671718D01*
X198375463Y-167797159D01*
X198314954Y-167943242D01*
X198294318Y-168099997D01*
X196450500Y-168099997D01*
X196450500Y-167424997D01*
X201444318Y-167424997D01*
X201444318Y-167425002D01*
X201464954Y-167581757D01*
X201525463Y-167727840D01*
X201566451Y-167781256D01*
X201621718Y-167853282D01*
X201747159Y-167949536D01*
X201893238Y-168010044D01*
X201893241Y-168010044D01*
X201893243Y-168010045D01*
X201893240Y-168010045D01*
X202049997Y-168030682D01*
X202050000Y-168030682D01*
X202050003Y-168030682D01*
X202206757Y-168010045D01*
X202206758Y-168010044D01*
X202206762Y-168010044D01*
X202352841Y-167949536D01*
X202478282Y-167853282D01*
X202574536Y-167727841D01*
X202635044Y-167581762D01*
X202635874Y-167575463D01*
X202655682Y-167425002D01*
X202655682Y-167424997D01*
X202635045Y-167268242D01*
X202635044Y-167268240D01*
X202635044Y-167268238D01*
X202574536Y-167122159D01*
X202478282Y-166996718D01*
X202362552Y-166907915D01*
X202352840Y-166900463D01*
X202272944Y-166867369D01*
X202206762Y-166839956D01*
X202206760Y-166839955D01*
X202206756Y-166839954D01*
X202206759Y-166839954D01*
X202050003Y-166819318D01*
X202049997Y-166819318D01*
X201893242Y-166839954D01*
X201747159Y-166900463D01*
X201621718Y-166996717D01*
X201621717Y-166996718D01*
X201525463Y-167122159D01*
X201464954Y-167268242D01*
X201444318Y-167424997D01*
X196450500Y-167424997D01*
X196450500Y-165699997D01*
X198256818Y-165699997D01*
X198256818Y-165700002D01*
X198277454Y-165856757D01*
X198337963Y-166002840D01*
X198337964Y-166002841D01*
X198434218Y-166128282D01*
X198559659Y-166224536D01*
X198705738Y-166285044D01*
X198705741Y-166285044D01*
X198705743Y-166285045D01*
X198705740Y-166285045D01*
X198862497Y-166305682D01*
X198862500Y-166305682D01*
X198862503Y-166305682D01*
X199019257Y-166285045D01*
X199019258Y-166285044D01*
X199019262Y-166285044D01*
X199165341Y-166224536D01*
X199290782Y-166128282D01*
X199387036Y-166002841D01*
X199447544Y-165856762D01*
X199468182Y-165700000D01*
X199468182Y-165699997D01*
X199447545Y-165543242D01*
X199447544Y-165543240D01*
X199447544Y-165543238D01*
X199387036Y-165397159D01*
X199290782Y-165271718D01*
X199206130Y-165206762D01*
X199165340Y-165175463D01*
X199085444Y-165142369D01*
X199019262Y-165114956D01*
X199019260Y-165114955D01*
X199019256Y-165114954D01*
X199019259Y-165114954D01*
X198862503Y-165094318D01*
X198862497Y-165094318D01*
X198705742Y-165114954D01*
X198559659Y-165175463D01*
X198434218Y-165271717D01*
X198434217Y-165271718D01*
X198337963Y-165397159D01*
X198277454Y-165543242D01*
X198256818Y-165699997D01*
X196450500Y-165699997D01*
X196450500Y-160499997D01*
X200906818Y-160499997D01*
X200906818Y-160500002D01*
X200927454Y-160656757D01*
X200987963Y-160802840D01*
X201084217Y-160928281D01*
X201084218Y-160928282D01*
X201217407Y-161030481D01*
X201215488Y-161032980D01*
X201258010Y-161075506D01*
X201277969Y-161150007D01*
X201258003Y-161224506D01*
X201215489Y-161267019D01*
X201217407Y-161269519D01*
X201084218Y-161371717D01*
X201084217Y-161371718D01*
X200987963Y-161497159D01*
X200927454Y-161643242D01*
X200906818Y-161799997D01*
X200906818Y-161800002D01*
X200927454Y-161956757D01*
X200987963Y-162102840D01*
X201084217Y-162228281D01*
X201084218Y-162228282D01*
X201217407Y-162330481D01*
X201215488Y-162332980D01*
X201258010Y-162375506D01*
X201277969Y-162450007D01*
X201258003Y-162524506D01*
X201215489Y-162567019D01*
X201217407Y-162569519D01*
X201084218Y-162671717D01*
X201084217Y-162671718D01*
X200987963Y-162797159D01*
X200927454Y-162943242D01*
X200906818Y-163099997D01*
X200906818Y-163100002D01*
X200927454Y-163256757D01*
X200987963Y-163402840D01*
X201084217Y-163528281D01*
X201084218Y-163528282D01*
X201217407Y-163630481D01*
X201215488Y-163632980D01*
X201258010Y-163675506D01*
X201277969Y-163750007D01*
X201258003Y-163824506D01*
X201215489Y-163867019D01*
X201217407Y-163869519D01*
X201084218Y-163971717D01*
X201084217Y-163971718D01*
X200987963Y-164097159D01*
X200927454Y-164243242D01*
X200906818Y-164399997D01*
X200906818Y-164400002D01*
X200927454Y-164556757D01*
X200987963Y-164702840D01*
X201062517Y-164800000D01*
X201084218Y-164828282D01*
X201209659Y-164924536D01*
X201321242Y-164970755D01*
X201382432Y-165017707D01*
X201411947Y-165088964D01*
X201411947Y-165088965D01*
X201427454Y-165206757D01*
X201487963Y-165352840D01*
X201487964Y-165352841D01*
X201584218Y-165478282D01*
X201709659Y-165574536D01*
X201855738Y-165635044D01*
X201855741Y-165635044D01*
X201855743Y-165635045D01*
X201855740Y-165635045D01*
X202012497Y-165655682D01*
X202012500Y-165655682D01*
X202012503Y-165655682D01*
X202169257Y-165635045D01*
X202169258Y-165635044D01*
X202169262Y-165635044D01*
X202315341Y-165574536D01*
X202440782Y-165478282D01*
X202537036Y-165352841D01*
X202597544Y-165206762D01*
X202601665Y-165175464D01*
X202618182Y-165050002D01*
X202618182Y-165049997D01*
X202597545Y-164893242D01*
X202597544Y-164893240D01*
X202597544Y-164893238D01*
X202537036Y-164747159D01*
X202440782Y-164621718D01*
X202315341Y-164525464D01*
X202315340Y-164525463D01*
X202307593Y-164519519D01*
X202309513Y-164517016D01*
X202267003Y-164474518D01*
X202247030Y-164400021D01*
X202266982Y-164325518D01*
X202309509Y-164282978D01*
X202307593Y-164280481D01*
X202315341Y-164274536D01*
X202440782Y-164178282D01*
X202537036Y-164052841D01*
X202597544Y-163906762D01*
X202601665Y-163875464D01*
X202618182Y-163750002D01*
X202618182Y-163749997D01*
X202597545Y-163593242D01*
X202597544Y-163593240D01*
X202597544Y-163593238D01*
X202537036Y-163447159D01*
X202440782Y-163321718D01*
X202315341Y-163225464D01*
X202315340Y-163225463D01*
X202307593Y-163219519D01*
X202309513Y-163217016D01*
X202267003Y-163174518D01*
X202247030Y-163100021D01*
X202266982Y-163025518D01*
X202309509Y-162982978D01*
X202307593Y-162980481D01*
X202356129Y-162943238D01*
X202440782Y-162878282D01*
X202537036Y-162752841D01*
X202597544Y-162606762D01*
X202598061Y-162602841D01*
X202618182Y-162450002D01*
X202618182Y-162449997D01*
X202597545Y-162293242D01*
X202597544Y-162293240D01*
X202597544Y-162293238D01*
X202537036Y-162147159D01*
X202440782Y-162021718D01*
X202315341Y-161925464D01*
X202315340Y-161925463D01*
X202307593Y-161919519D01*
X202309513Y-161917016D01*
X202267003Y-161874518D01*
X202247030Y-161800021D01*
X202266982Y-161725518D01*
X202309509Y-161682978D01*
X202307593Y-161680481D01*
X202356129Y-161643238D01*
X202440782Y-161578282D01*
X202537036Y-161452841D01*
X202597544Y-161306762D01*
X202601665Y-161275464D01*
X202618182Y-161150002D01*
X202618182Y-161149997D01*
X202597545Y-160993242D01*
X202597544Y-160993240D01*
X202597544Y-160993238D01*
X202537036Y-160847159D01*
X202440782Y-160721718D01*
X202356130Y-160656762D01*
X202315340Y-160625463D01*
X202203757Y-160579244D01*
X202142567Y-160532291D01*
X202113052Y-160461034D01*
X202113052Y-160461033D01*
X202097545Y-160343242D01*
X202097544Y-160343240D01*
X202097544Y-160343238D01*
X202037036Y-160197159D01*
X201940782Y-160071718D01*
X201856130Y-160006762D01*
X201815340Y-159975463D01*
X201735444Y-159942369D01*
X201669262Y-159914956D01*
X201669260Y-159914955D01*
X201669256Y-159914954D01*
X201669259Y-159914954D01*
X201512503Y-159894318D01*
X201512497Y-159894318D01*
X201355742Y-159914954D01*
X201209659Y-159975463D01*
X201084218Y-160071717D01*
X201084217Y-160071718D01*
X200987963Y-160197159D01*
X200927454Y-160343242D01*
X200906818Y-160499997D01*
X196450500Y-160499997D01*
X196450500Y-160380281D01*
X196470462Y-160305781D01*
X196485328Y-160286406D01*
X196484836Y-160286029D01*
X196490778Y-160278284D01*
X196490782Y-160278282D01*
X196587036Y-160152841D01*
X196647544Y-160006762D01*
X196651665Y-159975464D01*
X196668182Y-159850002D01*
X196668182Y-159849997D01*
X196647545Y-159693242D01*
X196647544Y-159693240D01*
X196647544Y-159693238D01*
X196587036Y-159547159D01*
X196493790Y-159425637D01*
X196464275Y-159354379D01*
X196463000Y-159334932D01*
X196463000Y-152799997D01*
X198196818Y-152799997D01*
X198196818Y-152800002D01*
X198217454Y-152956757D01*
X198277963Y-153102840D01*
X198374217Y-153228281D01*
X198374218Y-153228282D01*
X198507407Y-153330481D01*
X198505488Y-153332980D01*
X198548010Y-153375506D01*
X198567969Y-153450007D01*
X198548003Y-153524506D01*
X198505489Y-153567019D01*
X198507407Y-153569519D01*
X198374218Y-153671717D01*
X198374217Y-153671718D01*
X198277963Y-153797159D01*
X198217454Y-153943242D01*
X198196818Y-154099997D01*
X198196818Y-154100002D01*
X198217454Y-154256757D01*
X198277963Y-154402840D01*
X198374217Y-154528281D01*
X198374218Y-154528282D01*
X198507407Y-154630481D01*
X198505488Y-154632980D01*
X198548010Y-154675506D01*
X198567969Y-154750007D01*
X198548003Y-154824506D01*
X198505489Y-154867019D01*
X198507407Y-154869519D01*
X198374218Y-154971717D01*
X198374217Y-154971718D01*
X198277963Y-155097159D01*
X198217454Y-155243242D01*
X198196818Y-155399997D01*
X198196818Y-155400002D01*
X198217454Y-155556757D01*
X198277963Y-155702840D01*
X198374217Y-155828281D01*
X198374218Y-155828282D01*
X198507407Y-155930481D01*
X198505488Y-155932980D01*
X198548010Y-155975506D01*
X198567969Y-156050007D01*
X198548003Y-156124506D01*
X198505489Y-156167019D01*
X198507407Y-156169519D01*
X198374218Y-156271717D01*
X198374217Y-156271718D01*
X198277963Y-156397159D01*
X198217454Y-156543242D01*
X198196818Y-156699997D01*
X198196818Y-156700002D01*
X198217454Y-156856757D01*
X198277963Y-157002840D01*
X198277964Y-157002841D01*
X198374218Y-157128282D01*
X198499659Y-157224536D01*
X198611242Y-157270755D01*
X198672432Y-157317707D01*
X198701947Y-157388964D01*
X198701947Y-157388965D01*
X198717454Y-157506757D01*
X198777963Y-157652840D01*
X198777964Y-157652841D01*
X198874218Y-157778282D01*
X198999659Y-157874536D01*
X199145738Y-157935044D01*
X199145741Y-157935044D01*
X199145743Y-157935045D01*
X199145740Y-157935045D01*
X199302497Y-157955682D01*
X199302500Y-157955682D01*
X199302503Y-157955682D01*
X199459257Y-157935045D01*
X199459258Y-157935044D01*
X199459262Y-157935044D01*
X199605341Y-157874536D01*
X199730782Y-157778282D01*
X199827036Y-157652841D01*
X199887544Y-157506762D01*
X199891665Y-157475464D01*
X199908182Y-157350002D01*
X199908182Y-157349997D01*
X199887545Y-157193242D01*
X199887544Y-157193240D01*
X199887544Y-157193238D01*
X199827036Y-157047159D01*
X199730782Y-156921718D01*
X199605341Y-156825464D01*
X199605340Y-156825463D01*
X199597593Y-156819519D01*
X199599513Y-156817016D01*
X199557003Y-156774518D01*
X199537030Y-156700021D01*
X199556982Y-156625518D01*
X199599509Y-156582978D01*
X199597593Y-156580481D01*
X199646129Y-156543238D01*
X199730782Y-156478282D01*
X199827036Y-156352841D01*
X199887544Y-156206762D01*
X199891665Y-156175464D01*
X199908182Y-156050002D01*
X199908182Y-156049997D01*
X199887545Y-155893242D01*
X199887544Y-155893240D01*
X199887544Y-155893238D01*
X199827036Y-155747159D01*
X199730782Y-155621718D01*
X199605341Y-155525464D01*
X199605340Y-155525463D01*
X199597593Y-155519519D01*
X199599513Y-155517016D01*
X199557003Y-155474518D01*
X199537030Y-155400021D01*
X199556982Y-155325518D01*
X199599509Y-155282978D01*
X199597593Y-155280481D01*
X199646129Y-155243238D01*
X199730782Y-155178282D01*
X199827036Y-155052841D01*
X199887544Y-154906762D01*
X199891665Y-154875464D01*
X199908182Y-154750002D01*
X199908182Y-154749997D01*
X199887545Y-154593242D01*
X199887544Y-154593240D01*
X199887544Y-154593238D01*
X199827036Y-154447159D01*
X199730782Y-154321718D01*
X199605341Y-154225464D01*
X199605340Y-154225463D01*
X199597593Y-154219519D01*
X199599513Y-154217016D01*
X199557003Y-154174518D01*
X199537030Y-154100021D01*
X199556982Y-154025518D01*
X199599509Y-153982978D01*
X199597593Y-153980481D01*
X199646129Y-153943238D01*
X199730782Y-153878282D01*
X199827036Y-153752841D01*
X199887544Y-153606762D01*
X199891665Y-153575464D01*
X199908182Y-153450002D01*
X199908182Y-153449997D01*
X199887545Y-153293242D01*
X199887544Y-153293240D01*
X199887544Y-153293238D01*
X199827036Y-153147159D01*
X199730782Y-153021718D01*
X199646130Y-152956762D01*
X199605340Y-152925463D01*
X199493757Y-152879244D01*
X199432567Y-152832291D01*
X199403052Y-152761034D01*
X199403052Y-152761033D01*
X199387545Y-152643242D01*
X199387544Y-152643240D01*
X199387544Y-152643238D01*
X199327036Y-152497159D01*
X199230782Y-152371718D01*
X199146130Y-152306762D01*
X199105340Y-152275463D01*
X199025444Y-152242369D01*
X198959262Y-152214956D01*
X198959260Y-152214955D01*
X198959256Y-152214954D01*
X198959259Y-152214954D01*
X198802503Y-152194318D01*
X198802497Y-152194318D01*
X198645742Y-152214954D01*
X198499659Y-152275463D01*
X198374218Y-152371717D01*
X198374217Y-152371718D01*
X198277963Y-152497159D01*
X198217454Y-152643242D01*
X198196818Y-152799997D01*
X196463000Y-152799997D01*
X196463000Y-152149997D01*
X201446818Y-152149997D01*
X201446818Y-152150002D01*
X201467454Y-152306757D01*
X201527963Y-152452840D01*
X201527964Y-152452841D01*
X201624218Y-152578282D01*
X201749659Y-152674536D01*
X201895738Y-152735044D01*
X201895741Y-152735044D01*
X201895743Y-152735045D01*
X201895740Y-152735045D01*
X202052497Y-152755682D01*
X202052500Y-152755682D01*
X202052503Y-152755682D01*
X202209257Y-152735045D01*
X202209258Y-152735044D01*
X202209262Y-152735044D01*
X202355341Y-152674536D01*
X202480782Y-152578282D01*
X202577036Y-152452841D01*
X202637544Y-152306762D01*
X202641665Y-152275464D01*
X202658182Y-152150002D01*
X202658182Y-152149997D01*
X202637545Y-151993242D01*
X202637544Y-151993240D01*
X202637544Y-151993238D01*
X202577036Y-151847159D01*
X202480782Y-151721718D01*
X202355341Y-151625464D01*
X202355340Y-151625463D01*
X202275444Y-151592369D01*
X202209262Y-151564956D01*
X202209260Y-151564955D01*
X202209256Y-151564954D01*
X202209259Y-151564954D01*
X202052503Y-151544318D01*
X202052497Y-151544318D01*
X201895742Y-151564954D01*
X201749659Y-151625463D01*
X201624218Y-151721717D01*
X201624217Y-151721718D01*
X201527963Y-151847159D01*
X201467454Y-151993242D01*
X201446818Y-152149997D01*
X196463000Y-152149997D01*
X196463000Y-150349997D01*
X198144318Y-150349997D01*
X198144318Y-150350002D01*
X198164954Y-150506757D01*
X198225463Y-150652840D01*
X198225464Y-150652841D01*
X198321718Y-150778282D01*
X198447159Y-150874536D01*
X198593238Y-150935044D01*
X198593241Y-150935044D01*
X198593243Y-150935045D01*
X198593240Y-150935045D01*
X198749997Y-150955682D01*
X198750000Y-150955682D01*
X198750003Y-150955682D01*
X198906757Y-150935045D01*
X198906758Y-150935044D01*
X198906762Y-150935044D01*
X199052841Y-150874536D01*
X199178282Y-150778282D01*
X199274536Y-150652841D01*
X199335044Y-150506762D01*
X199355682Y-150350000D01*
X199355682Y-150349997D01*
X199335045Y-150193242D01*
X199335044Y-150193240D01*
X199335044Y-150193238D01*
X199274536Y-150047159D01*
X199178282Y-149921718D01*
X199093630Y-149856762D01*
X199052840Y-149825463D01*
X198972944Y-149792369D01*
X198906762Y-149764956D01*
X198906760Y-149764955D01*
X198906756Y-149764954D01*
X198906759Y-149764954D01*
X198750003Y-149744318D01*
X198749997Y-149744318D01*
X198593242Y-149764954D01*
X198447159Y-149825463D01*
X198321718Y-149921717D01*
X198321717Y-149921718D01*
X198225463Y-150047159D01*
X198164954Y-150193242D01*
X198144318Y-150349997D01*
X196463000Y-150349997D01*
X196463000Y-145149997D01*
X200604318Y-145149997D01*
X200604318Y-145150002D01*
X200624954Y-145306757D01*
X200685463Y-145452840D01*
X200781717Y-145578281D01*
X200781718Y-145578282D01*
X200907159Y-145674536D01*
X200907900Y-145674843D01*
X200908536Y-145675331D01*
X200915618Y-145679420D01*
X200915079Y-145680352D01*
X200969089Y-145721797D01*
X200998603Y-145793055D01*
X200988534Y-145869523D01*
X200941580Y-145930712D01*
X200907900Y-145950157D01*
X200907159Y-145950463D01*
X200781718Y-146046717D01*
X200781717Y-146046718D01*
X200685463Y-146172159D01*
X200624954Y-146318242D01*
X200604318Y-146474997D01*
X200604318Y-146475002D01*
X200624954Y-146631757D01*
X200685463Y-146777840D01*
X200781717Y-146903281D01*
X200781718Y-146903282D01*
X200900322Y-146994290D01*
X200947275Y-147055480D01*
X200957342Y-147131948D01*
X200927827Y-147203205D01*
X200900322Y-147230710D01*
X200781718Y-147321717D01*
X200781717Y-147321718D01*
X200685463Y-147447159D01*
X200624954Y-147593242D01*
X200604318Y-147749997D01*
X200604318Y-147750002D01*
X200624954Y-147906757D01*
X200685463Y-148052840D01*
X200781717Y-148178281D01*
X200781718Y-148178282D01*
X200914907Y-148280481D01*
X200912988Y-148282980D01*
X200955510Y-148325506D01*
X200975469Y-148400007D01*
X200955503Y-148474506D01*
X200912989Y-148517019D01*
X200914907Y-148519519D01*
X200781718Y-148621717D01*
X200781717Y-148621718D01*
X200685463Y-148747159D01*
X200624954Y-148893242D01*
X200604318Y-149049997D01*
X200604318Y-149050002D01*
X200624954Y-149206757D01*
X200685463Y-149352840D01*
X200685464Y-149352841D01*
X200781718Y-149478282D01*
X200907159Y-149574536D01*
X201053238Y-149635044D01*
X201059478Y-149635865D01*
X201130734Y-149665375D01*
X201177691Y-149726562D01*
X201187762Y-149764143D01*
X201199954Y-149856757D01*
X201260463Y-150002840D01*
X201260464Y-150002841D01*
X201356718Y-150128282D01*
X201482159Y-150224536D01*
X201628238Y-150285044D01*
X201628241Y-150285044D01*
X201628243Y-150285045D01*
X201628240Y-150285045D01*
X201784997Y-150305682D01*
X201785000Y-150305682D01*
X201785003Y-150305682D01*
X201941757Y-150285045D01*
X201941758Y-150285044D01*
X201941762Y-150285044D01*
X202087841Y-150224536D01*
X202213282Y-150128282D01*
X202309536Y-150002841D01*
X202370044Y-149856762D01*
X202374165Y-149825464D01*
X202390682Y-149700002D01*
X202390682Y-149699997D01*
X202370045Y-149543242D01*
X202370044Y-149543240D01*
X202370044Y-149543238D01*
X202309536Y-149397159D01*
X202213282Y-149271718D01*
X202087841Y-149175464D01*
X202087840Y-149175463D01*
X202080093Y-149169519D01*
X202082013Y-149167016D01*
X202039503Y-149124518D01*
X202019530Y-149050021D01*
X202039482Y-148975518D01*
X202082009Y-148932978D01*
X202080093Y-148930481D01*
X202128629Y-148893238D01*
X202213282Y-148828282D01*
X202309536Y-148702841D01*
X202370044Y-148556762D01*
X202374165Y-148525464D01*
X202390682Y-148400002D01*
X202390682Y-148399997D01*
X202370045Y-148243242D01*
X202370044Y-148243240D01*
X202370044Y-148243238D01*
X202309536Y-148097159D01*
X202213282Y-147971718D01*
X202087841Y-147875464D01*
X202087840Y-147875463D01*
X202080093Y-147869519D01*
X202082013Y-147867016D01*
X202039503Y-147824518D01*
X202019530Y-147750021D01*
X202039482Y-147675518D01*
X202082009Y-147632978D01*
X202080093Y-147630481D01*
X202128629Y-147593238D01*
X202213282Y-147528282D01*
X202309536Y-147402841D01*
X202370044Y-147256762D01*
X202374165Y-147225464D01*
X202390682Y-147100002D01*
X202390682Y-147099997D01*
X202370045Y-146943242D01*
X202370044Y-146943240D01*
X202370044Y-146943238D01*
X202309536Y-146797159D01*
X202213282Y-146671718D01*
X202087841Y-146575464D01*
X202087840Y-146575463D01*
X202080093Y-146569519D01*
X202082013Y-146567016D01*
X202039503Y-146524518D01*
X202019530Y-146450021D01*
X202039482Y-146375518D01*
X202082009Y-146332978D01*
X202080093Y-146330481D01*
X202087841Y-146324536D01*
X202213282Y-146228282D01*
X202309536Y-146102841D01*
X202370044Y-145956762D01*
X202370874Y-145950463D01*
X202390682Y-145800002D01*
X202390682Y-145799997D01*
X202370045Y-145643242D01*
X202370044Y-145643240D01*
X202370044Y-145643238D01*
X202309536Y-145497159D01*
X202213282Y-145371718D01*
X202128630Y-145306762D01*
X202087840Y-145275463D01*
X201941762Y-145214956D01*
X201935506Y-145214132D01*
X201864252Y-145184614D01*
X201817302Y-145123422D01*
X201807238Y-145085863D01*
X201795044Y-144993238D01*
X201734536Y-144847159D01*
X201638282Y-144721718D01*
X201553630Y-144656762D01*
X201512840Y-144625463D01*
X201432944Y-144592369D01*
X201366762Y-144564956D01*
X201366760Y-144564955D01*
X201366756Y-144564954D01*
X201366759Y-144564954D01*
X201210003Y-144544318D01*
X201209997Y-144544318D01*
X201053242Y-144564954D01*
X200907159Y-144625463D01*
X200781718Y-144721717D01*
X200781717Y-144721718D01*
X200685463Y-144847159D01*
X200624954Y-144993242D01*
X200604318Y-145149997D01*
X196463000Y-145149997D01*
X196463000Y-145015066D01*
X196482962Y-144940566D01*
X196493780Y-144924374D01*
X196587036Y-144802841D01*
X196647544Y-144656762D01*
X196651665Y-144625464D01*
X196668182Y-144500002D01*
X196668182Y-144499997D01*
X196647545Y-144343242D01*
X196647544Y-144343240D01*
X196647544Y-144343238D01*
X196587036Y-144197159D01*
X196490782Y-144071718D01*
X196365341Y-143975464D01*
X196365340Y-143975463D01*
X196285444Y-143942369D01*
X196219262Y-143914956D01*
X196219260Y-143914955D01*
X196219256Y-143914954D01*
X196219259Y-143914954D01*
X196062503Y-143894318D01*
X196062497Y-143894318D01*
X195905742Y-143914954D01*
X195759659Y-143975463D01*
X195634218Y-144071717D01*
X195634217Y-144071718D01*
X195537963Y-144197159D01*
X195477454Y-144343242D01*
X195456818Y-144499997D01*
X195456818Y-144500002D01*
X195477454Y-144656757D01*
X195537962Y-144802838D01*
X195537963Y-144802840D01*
X195537964Y-144802841D01*
X195631211Y-144924364D01*
X195660725Y-144995617D01*
X195662000Y-145015066D01*
X195662000Y-159334932D01*
X195642038Y-159409432D01*
X195631210Y-159425637D01*
X195537963Y-159547159D01*
X195477454Y-159693242D01*
X195456818Y-159849997D01*
X195456818Y-159850002D01*
X195477454Y-160006757D01*
X195537963Y-160152840D01*
X195618710Y-160258071D01*
X195648225Y-160329328D01*
X195649500Y-160348776D01*
X195649500Y-182859932D01*
X195629538Y-182934432D01*
X195618710Y-182950637D01*
X195525463Y-183072159D01*
X195464954Y-183218242D01*
X195444318Y-183374997D01*
X190199126Y-183374997D01*
X190176793Y-183358771D01*
X190176790Y-183358769D01*
X190176788Y-183358768D01*
X190022445Y-183280127D01*
X189947212Y-183255682D01*
X189857700Y-183226597D01*
X189760086Y-183211137D01*
X189686611Y-183199500D01*
X188713389Y-183199500D01*
X188647037Y-183210009D01*
X188542299Y-183226597D01*
X188409830Y-183269640D01*
X188377555Y-183280127D01*
X188377549Y-183280129D01*
X188377549Y-183280130D01*
X188223206Y-183358771D01*
X188083075Y-183460583D01*
X187960583Y-183583075D01*
X187858771Y-183723207D01*
X187839232Y-183761553D01*
X187787622Y-183818870D01*
X187714268Y-183842702D01*
X187638826Y-183826665D01*
X187615768Y-183812116D01*
X187608175Y-183806290D01*
X187549873Y-183761553D01*
X187502840Y-183725463D01*
X187422944Y-183692369D01*
X187356762Y-183664956D01*
X187356760Y-183664955D01*
X187356756Y-183664954D01*
X187356759Y-183664954D01*
X187200003Y-183644318D01*
X187199997Y-183644318D01*
X187043242Y-183664954D01*
X186897159Y-183725463D01*
X186771718Y-183821717D01*
X186771717Y-183821718D01*
X186675463Y-183947159D01*
X186614954Y-184093242D01*
X186594318Y-184249997D01*
X183500500Y-184249997D01*
X183500500Y-142600000D01*
X185800000Y-142600000D01*
X185800000Y-182800000D01*
X188415900Y-182800000D01*
X188461943Y-182807293D01*
X188500935Y-182819962D01*
X188542299Y-182833402D01*
X188713389Y-182860500D01*
X188713393Y-182860500D01*
X189686607Y-182860500D01*
X189686611Y-182860500D01*
X189857701Y-182833402D01*
X189899065Y-182819962D01*
X189938057Y-182807293D01*
X189984100Y-182800000D01*
X190800000Y-182800000D01*
X190800000Y-142600000D01*
X210500000Y-142600000D01*
X210500000Y-182800000D01*
X211275900Y-182800000D01*
X211321943Y-182807293D01*
X211360935Y-182819962D01*
X211402299Y-182833402D01*
X211556193Y-182857776D01*
X211626650Y-182889146D01*
X211671985Y-182951543D01*
X211680048Y-183028249D01*
X211648677Y-183098709D01*
X211586280Y-183144044D01*
X211556191Y-183152107D01*
X211390701Y-183178318D01*
X211218550Y-183234253D01*
X211057267Y-183316432D01*
X211057266Y-183316433D01*
X210910826Y-183422828D01*
X210910823Y-183422830D01*
X210782830Y-183550823D01*
X210782828Y-183550826D01*
X210676433Y-183697266D01*
X210676432Y-183697267D01*
X210594255Y-183858546D01*
X210538316Y-184030711D01*
X210523383Y-184125000D01*
X211381096Y-184125000D01*
X211360000Y-184231056D01*
X211360000Y-184368944D01*
X211381096Y-184475000D01*
X210523383Y-184475000D01*
X210538316Y-184569288D01*
X210594255Y-184741453D01*
X210676432Y-184902732D01*
X210676433Y-184902733D01*
X210782828Y-185049173D01*
X210782830Y-185049176D01*
X210910823Y-185177169D01*
X210910826Y-185177171D01*
X211057266Y-185283566D01*
X211057267Y-185283567D01*
X211218550Y-185365746D01*
X211390702Y-185421681D01*
X211390702Y-185421682D01*
X211556190Y-185447892D01*
X211626650Y-185479263D01*
X211671985Y-185541661D01*
X211680048Y-185618366D01*
X211648677Y-185688826D01*
X211586279Y-185734161D01*
X211556191Y-185742223D01*
X211528603Y-185746593D01*
X211402296Y-185766598D01*
X211321943Y-185792707D01*
X211275900Y-185800000D01*
X210500000Y-185800000D01*
X210500000Y-187900000D01*
X211337454Y-187900000D01*
X211383496Y-187907292D01*
X211402299Y-187913402D01*
X211573389Y-187940500D01*
X211573393Y-187940500D01*
X212546607Y-187940500D01*
X212546611Y-187940500D01*
X212717701Y-187913402D01*
X212736503Y-187907292D01*
X212782546Y-187900000D01*
X215700000Y-187900000D01*
X215700000Y-185800000D01*
X212844100Y-185800000D01*
X212798057Y-185792707D01*
X212717703Y-185766598D01*
X212633498Y-185753261D01*
X212563807Y-185742223D01*
X212493348Y-185710853D01*
X212448014Y-185648455D01*
X212439951Y-185571749D01*
X212471322Y-185501289D01*
X212533720Y-185455955D01*
X212563809Y-185447892D01*
X212729297Y-185421682D01*
X212729297Y-185421681D01*
X212901449Y-185365746D01*
X213062732Y-185283567D01*
X213062733Y-185283566D01*
X213209173Y-185177171D01*
X213209176Y-185177169D01*
X213337169Y-185049176D01*
X213337171Y-185049173D01*
X213443566Y-184902733D01*
X213443567Y-184902732D01*
X213525744Y-184741453D01*
X213581683Y-184569288D01*
X213596617Y-184475000D01*
X212738904Y-184475000D01*
X212760000Y-184368944D01*
X212760000Y-184231056D01*
X212738904Y-184125000D01*
X213596617Y-184125000D01*
X213581683Y-184030711D01*
X213525744Y-183858546D01*
X213443567Y-183697267D01*
X213443566Y-183697266D01*
X213337171Y-183550826D01*
X213337169Y-183550823D01*
X213209176Y-183422830D01*
X213209173Y-183422828D01*
X213062733Y-183316433D01*
X213062732Y-183316432D01*
X212901449Y-183234253D01*
X212729297Y-183178318D01*
X212729298Y-183178318D01*
X212563808Y-183152107D01*
X212493348Y-183120736D01*
X212448013Y-183058338D01*
X212439951Y-182981632D01*
X212471322Y-182911172D01*
X212533720Y-182865837D01*
X212563798Y-182857777D01*
X212717701Y-182833402D01*
X212759065Y-182819962D01*
X212798057Y-182807293D01*
X212844100Y-182800000D01*
X215662597Y-182800000D01*
X215737097Y-182819962D01*
X215791635Y-182874500D01*
X215800255Y-182891981D01*
X215825462Y-182952839D01*
X215921717Y-183078281D01*
X215921718Y-183078282D01*
X216047159Y-183174536D01*
X216193238Y-183235044D01*
X216193241Y-183235044D01*
X216193243Y-183235045D01*
X216193240Y-183235045D01*
X216349997Y-183255682D01*
X216350000Y-183255682D01*
X216350003Y-183255682D01*
X216506757Y-183235045D01*
X216506758Y-183235044D01*
X216506762Y-183235044D01*
X216652841Y-183174536D01*
X216778282Y-183078282D01*
X216874536Y-182952841D01*
X216935044Y-182806762D01*
X216935935Y-182800000D01*
X216955682Y-182650002D01*
X216955682Y-182649997D01*
X216935045Y-182493242D01*
X216935044Y-182493240D01*
X216935044Y-182493238D01*
X216874536Y-182347159D01*
X216778282Y-182221718D01*
X216652843Y-182125465D01*
X216652840Y-182125463D01*
X216566511Y-182089705D01*
X216506762Y-182064956D01*
X216506760Y-182064955D01*
X216506756Y-182064954D01*
X216506759Y-182064954D01*
X216350003Y-182044318D01*
X216349997Y-182044318D01*
X216193242Y-182064954D01*
X216047158Y-182125464D01*
X216047156Y-182125465D01*
X215939704Y-182207915D01*
X215868447Y-182237430D01*
X215791979Y-182227363D01*
X215730790Y-182180409D01*
X215701275Y-182109152D01*
X215700000Y-182089705D01*
X215700000Y-180710294D01*
X215719962Y-180635794D01*
X215774500Y-180581256D01*
X215849000Y-180561294D01*
X215923500Y-180581256D01*
X215939706Y-180592084D01*
X216047159Y-180674536D01*
X216193238Y-180735044D01*
X216193241Y-180735044D01*
X216193243Y-180735045D01*
X216193240Y-180735045D01*
X216349997Y-180755682D01*
X216350000Y-180755682D01*
X216350003Y-180755682D01*
X216506757Y-180735045D01*
X216506758Y-180735044D01*
X216506762Y-180735044D01*
X216652841Y-180674536D01*
X216778282Y-180578282D01*
X216874536Y-180452841D01*
X216935044Y-180306762D01*
X216955682Y-180150000D01*
X216935044Y-179993238D01*
X216874536Y-179847159D01*
X216778282Y-179721718D01*
X216652843Y-179625465D01*
X216652840Y-179625463D01*
X216566511Y-179589705D01*
X216506762Y-179564956D01*
X216506760Y-179564955D01*
X216506756Y-179564954D01*
X216506759Y-179564954D01*
X216350003Y-179544318D01*
X216349997Y-179544318D01*
X216193242Y-179564954D01*
X216047158Y-179625464D01*
X216047156Y-179625465D01*
X215939704Y-179707915D01*
X215868447Y-179737430D01*
X215791979Y-179727363D01*
X215730790Y-179680409D01*
X215701275Y-179609152D01*
X215700000Y-179589705D01*
X215700000Y-178060294D01*
X215719962Y-177985794D01*
X215774500Y-177931256D01*
X215849000Y-177911294D01*
X215923500Y-177931256D01*
X215939706Y-177942084D01*
X216047159Y-178024536D01*
X216193238Y-178085044D01*
X216193241Y-178085044D01*
X216193243Y-178085045D01*
X216193240Y-178085045D01*
X216349997Y-178105682D01*
X216350000Y-178105682D01*
X216350003Y-178105682D01*
X216506757Y-178085045D01*
X216506758Y-178085044D01*
X216506762Y-178085044D01*
X216652841Y-178024536D01*
X216778282Y-177928282D01*
X216874536Y-177802841D01*
X216935044Y-177656762D01*
X216955682Y-177500000D01*
X216935044Y-177343238D01*
X216874536Y-177197159D01*
X216778282Y-177071718D01*
X216652843Y-176975465D01*
X216652840Y-176975463D01*
X216566511Y-176939705D01*
X216506762Y-176914956D01*
X216506760Y-176914955D01*
X216506756Y-176914954D01*
X216506759Y-176914954D01*
X216350003Y-176894318D01*
X216349997Y-176894318D01*
X216193242Y-176914954D01*
X216047158Y-176975464D01*
X216047156Y-176975465D01*
X215939704Y-177057915D01*
X215868447Y-177087430D01*
X215791979Y-177077363D01*
X215730790Y-177030409D01*
X215701275Y-176959152D01*
X215700000Y-176939705D01*
X215700000Y-172499997D01*
X216194318Y-172499997D01*
X216194318Y-172500002D01*
X216214954Y-172656757D01*
X216275463Y-172802840D01*
X216278473Y-172806762D01*
X216371718Y-172928282D01*
X216497159Y-173024536D01*
X216643238Y-173085044D01*
X216643241Y-173085044D01*
X216643243Y-173085045D01*
X216643240Y-173085045D01*
X216799997Y-173105682D01*
X216800000Y-173105682D01*
X216800003Y-173105682D01*
X216956757Y-173085045D01*
X216956758Y-173085044D01*
X216956762Y-173085044D01*
X217102841Y-173024536D01*
X217228282Y-172928282D01*
X217324536Y-172802841D01*
X217385044Y-172656762D01*
X217385935Y-172650000D01*
X217405682Y-172500002D01*
X217405682Y-172499997D01*
X217385045Y-172343242D01*
X217385044Y-172343240D01*
X217385044Y-172343238D01*
X217324536Y-172197159D01*
X217228282Y-172071718D01*
X217134845Y-172000021D01*
X217102840Y-171975463D01*
X217022944Y-171942369D01*
X216956762Y-171914956D01*
X216956760Y-171914955D01*
X216956756Y-171914954D01*
X216956759Y-171914954D01*
X216800003Y-171894318D01*
X216799997Y-171894318D01*
X216643242Y-171914954D01*
X216497159Y-171975463D01*
X216371718Y-172071717D01*
X216371717Y-172071718D01*
X216275463Y-172197159D01*
X216214954Y-172343242D01*
X216194318Y-172499997D01*
X215700000Y-172499997D01*
X215700000Y-170460294D01*
X215719962Y-170385794D01*
X215774500Y-170331256D01*
X215849000Y-170311294D01*
X215923500Y-170331256D01*
X215939705Y-170342084D01*
X216047159Y-170424536D01*
X216193238Y-170485044D01*
X216193241Y-170485044D01*
X216193243Y-170485045D01*
X216193240Y-170485045D01*
X216349997Y-170505682D01*
X216350000Y-170505682D01*
X216350003Y-170505682D01*
X216506757Y-170485045D01*
X216506758Y-170485044D01*
X216506762Y-170485044D01*
X216652841Y-170424536D01*
X216778282Y-170328282D01*
X216874536Y-170202841D01*
X216935044Y-170056762D01*
X216935934Y-170050007D01*
X216955682Y-169900002D01*
X216955682Y-169899997D01*
X216935045Y-169743242D01*
X216935044Y-169743240D01*
X216935044Y-169743238D01*
X216874536Y-169597159D01*
X216778282Y-169471718D01*
X216684845Y-169400021D01*
X216652840Y-169375463D01*
X216566511Y-169339705D01*
X216506762Y-169314956D01*
X216506760Y-169314955D01*
X216506756Y-169314954D01*
X216506759Y-169314954D01*
X216350003Y-169294318D01*
X216349997Y-169294318D01*
X216193242Y-169314954D01*
X216047158Y-169375464D01*
X216047156Y-169375465D01*
X215939704Y-169457915D01*
X215868447Y-169487430D01*
X215791979Y-169477363D01*
X215730790Y-169430409D01*
X215701275Y-169359152D01*
X215700000Y-169339705D01*
X215700000Y-167910294D01*
X215719962Y-167835794D01*
X215774500Y-167781256D01*
X215849000Y-167761294D01*
X215923500Y-167781256D01*
X215939706Y-167792084D01*
X216047159Y-167874536D01*
X216193238Y-167935044D01*
X216193241Y-167935044D01*
X216193243Y-167935045D01*
X216193240Y-167935045D01*
X216349997Y-167955682D01*
X216350000Y-167955682D01*
X216350003Y-167955682D01*
X216506757Y-167935045D01*
X216506758Y-167935044D01*
X216506762Y-167935044D01*
X216652841Y-167874536D01*
X216778282Y-167778282D01*
X216874536Y-167652841D01*
X216935044Y-167506762D01*
X216936683Y-167494318D01*
X216955682Y-167350002D01*
X216955682Y-167349997D01*
X216935045Y-167193242D01*
X216935044Y-167193240D01*
X216935044Y-167193238D01*
X216874536Y-167047159D01*
X216778282Y-166921718D01*
X216671728Y-166839956D01*
X216652840Y-166825463D01*
X216566511Y-166789705D01*
X216506762Y-166764956D01*
X216506760Y-166764955D01*
X216506756Y-166764954D01*
X216506759Y-166764954D01*
X216350003Y-166744318D01*
X216349997Y-166744318D01*
X216193242Y-166764954D01*
X216047158Y-166825464D01*
X216047156Y-166825465D01*
X215939704Y-166907915D01*
X215868447Y-166937430D01*
X215791979Y-166927363D01*
X215730790Y-166880409D01*
X215701275Y-166809152D01*
X215700000Y-166789705D01*
X215700000Y-165360294D01*
X215719962Y-165285794D01*
X215774500Y-165231256D01*
X215849000Y-165211294D01*
X215923500Y-165231256D01*
X215939706Y-165242084D01*
X216047159Y-165324536D01*
X216193238Y-165385044D01*
X216193241Y-165385044D01*
X216193243Y-165385045D01*
X216193240Y-165385045D01*
X216349997Y-165405682D01*
X216350000Y-165405682D01*
X216350003Y-165405682D01*
X216506757Y-165385045D01*
X216506758Y-165385044D01*
X216506762Y-165385044D01*
X216652841Y-165324536D01*
X216778282Y-165228282D01*
X216874536Y-165102841D01*
X216935044Y-164956762D01*
X216955682Y-164800000D01*
X216955682Y-164799997D01*
X216935045Y-164643242D01*
X216935044Y-164643240D01*
X216935044Y-164643238D01*
X216874536Y-164497159D01*
X216778282Y-164371718D01*
X216730488Y-164335044D01*
X216652840Y-164275463D01*
X216566511Y-164239705D01*
X216506762Y-164214956D01*
X216506760Y-164214955D01*
X216506756Y-164214954D01*
X216506759Y-164214954D01*
X216350003Y-164194318D01*
X216349997Y-164194318D01*
X216193242Y-164214954D01*
X216047158Y-164275464D01*
X216047156Y-164275465D01*
X215939704Y-164357915D01*
X215868447Y-164387430D01*
X215791979Y-164377363D01*
X215730790Y-164330409D01*
X215701275Y-164259152D01*
X215700000Y-164239705D01*
X215700000Y-162860294D01*
X215719962Y-162785794D01*
X215774500Y-162731256D01*
X215849000Y-162711294D01*
X215923500Y-162731256D01*
X215939705Y-162742084D01*
X216047159Y-162824536D01*
X216193238Y-162885044D01*
X216193241Y-162885044D01*
X216193243Y-162885045D01*
X216193240Y-162885045D01*
X216349997Y-162905682D01*
X216350000Y-162905682D01*
X216350003Y-162905682D01*
X216506757Y-162885045D01*
X216506758Y-162885044D01*
X216506762Y-162885044D01*
X216652841Y-162824536D01*
X216778282Y-162728282D01*
X216874536Y-162602841D01*
X216935044Y-162456762D01*
X216935934Y-162450007D01*
X216955682Y-162300002D01*
X216955682Y-162299997D01*
X216935045Y-162143242D01*
X216935044Y-162143240D01*
X216935044Y-162143238D01*
X216874536Y-161997159D01*
X216778282Y-161871718D01*
X216684845Y-161800021D01*
X216652840Y-161775463D01*
X216566511Y-161739705D01*
X216506762Y-161714956D01*
X216506760Y-161714955D01*
X216506756Y-161714954D01*
X216506759Y-161714954D01*
X216350003Y-161694318D01*
X216349997Y-161694318D01*
X216193242Y-161714954D01*
X216047158Y-161775464D01*
X216047156Y-161775465D01*
X215939704Y-161857915D01*
X215868447Y-161887430D01*
X215791979Y-161877363D01*
X215730790Y-161830409D01*
X215701275Y-161759152D01*
X215700000Y-161739705D01*
X215700000Y-142600000D01*
X212782546Y-142600000D01*
X212736503Y-142592707D01*
X212717701Y-142586598D01*
X212546611Y-142559500D01*
X211573389Y-142559500D01*
X211402299Y-142586598D01*
X211383496Y-142592707D01*
X211337454Y-142600000D01*
X210500000Y-142600000D01*
X190800000Y-142600000D01*
X189922546Y-142600000D01*
X189876503Y-142592707D01*
X189857701Y-142586598D01*
X189686611Y-142559500D01*
X188713389Y-142559500D01*
X188542299Y-142586598D01*
X188523496Y-142592707D01*
X188477454Y-142600000D01*
X185800000Y-142600000D01*
X183500500Y-142600000D01*
X183500500Y-141899500D01*
X183520462Y-141825000D01*
X183575000Y-141770462D01*
X183649500Y-141750500D01*
X217600500Y-141750500D01*
X217675000Y-141770462D01*
G37*
%TD.AperFunction*%
%TD*%
M02*
