%TF.GenerationSoftware,KiCad,Pcbnew,8.0.5*%
%TF.CreationDate,2026-02-16T17:17:22+00:00*%
%TF.ProjectId,Blinker Fluid,426c696e-6b65-4722-9046-6c7569642e6b,rev?*%
%TF.SameCoordinates,Original*%
%TF.FileFunction,Legend,Top*%
%TF.FilePolarity,Positive*%
%FSLAX46Y46*%
G04 Gerber Fmt 4.6, Leading zero omitted, Abs format (unit mm)*
G04 Created by KiCad (PCBNEW 8.0.5) date 2026-02-16 17:17:22*
%MOMM*%
%LPD*%
G01*
G04 APERTURE LIST*
G04 Aperture macros list*
%AMRoundRect*
0 Rectangle with rounded corners*
0 $1 Rounding radius*
0 $2 $3 $4 $5 $6 $7 $8 $9 X,Y pos of 4 corners*
0 Add a 4 corners polygon primitive as box body*
4,1,4,$2,$3,$4,$5,$6,$7,$8,$9,$2,$3,0*
0 Add four circle primitives for the rounded corners*
1,1,$1+$1,$2,$3*
1,1,$1+$1,$4,$5*
1,1,$1+$1,$6,$7*
1,1,$1+$1,$8,$9*
0 Add four rect primitives between the rounded corners*
20,1,$1+$1,$2,$3,$4,$5,0*
20,1,$1+$1,$4,$5,$6,$7,0*
20,1,$1+$1,$6,$7,$8,$9,0*
20,1,$1+$1,$8,$9,$2,$3,0*%
G04 Aperture macros list end*
%ADD10C,0.100000*%
%ADD11C,0.150000*%
%ADD12C,0.062500*%
%ADD13C,0.120000*%
%ADD14RoundRect,0.160000X0.222500X0.160000X-0.222500X0.160000X-0.222500X-0.160000X0.222500X-0.160000X0*%
%ADD15RoundRect,0.160000X-0.222500X-0.160000X0.222500X-0.160000X0.222500X0.160000X-0.222500X0.160000X0*%
%ADD16RoundRect,0.100000X0.637500X0.100000X-0.637500X0.100000X-0.637500X-0.100000X0.637500X-0.100000X0*%
%ADD17RoundRect,0.100000X-0.637500X-0.100000X0.637500X-0.100000X0.637500X0.100000X-0.637500X0.100000X0*%
%ADD18RoundRect,0.155000X0.212500X0.155000X-0.212500X0.155000X-0.212500X-0.155000X0.212500X-0.155000X0*%
%ADD19RoundRect,0.250000X-0.400000X-0.275000X0.400000X-0.275000X0.400000X0.275000X-0.400000X0.275000X0*%
%ADD20RoundRect,0.160000X0.197500X0.160000X-0.197500X0.160000X-0.197500X-0.160000X0.197500X-0.160000X0*%
%ADD21R,2.400000X1.600000*%
%ADD22O,2.400000X1.600000*%
%ADD23RoundRect,0.160000X-0.197500X-0.160000X0.197500X-0.160000X0.197500X0.160000X-0.197500X0.160000X0*%
G04 APERTURE END LIST*
D10*
X215351503Y-158021704D02*
X215184836Y-158021704D01*
X215184836Y-158283609D02*
X215184836Y-157783609D01*
X215184836Y-157783609D02*
X215422931Y-157783609D01*
X215899121Y-158235990D02*
X215875312Y-158259800D01*
X215875312Y-158259800D02*
X215803883Y-158283609D01*
X215803883Y-158283609D02*
X215756264Y-158283609D01*
X215756264Y-158283609D02*
X215684836Y-158259800D01*
X215684836Y-158259800D02*
X215637217Y-158212180D01*
X215637217Y-158212180D02*
X215613407Y-158164561D01*
X215613407Y-158164561D02*
X215589598Y-158069323D01*
X215589598Y-158069323D02*
X215589598Y-157997895D01*
X215589598Y-157997895D02*
X215613407Y-157902657D01*
X215613407Y-157902657D02*
X215637217Y-157855038D01*
X215637217Y-157855038D02*
X215684836Y-157807419D01*
X215684836Y-157807419D02*
X215756264Y-157783609D01*
X215756264Y-157783609D02*
X215803883Y-157783609D01*
X215803883Y-157783609D02*
X215875312Y-157807419D01*
X215875312Y-157807419D02*
X215899121Y-157831228D01*
X216089598Y-157831228D02*
X216113407Y-157807419D01*
X216113407Y-157807419D02*
X216161026Y-157783609D01*
X216161026Y-157783609D02*
X216280074Y-157783609D01*
X216280074Y-157783609D02*
X216327693Y-157807419D01*
X216327693Y-157807419D02*
X216351502Y-157831228D01*
X216351502Y-157831228D02*
X216375312Y-157878847D01*
X216375312Y-157878847D02*
X216375312Y-157926466D01*
X216375312Y-157926466D02*
X216351502Y-157997895D01*
X216351502Y-157997895D02*
X216065788Y-158283609D01*
X216065788Y-158283609D02*
X216375312Y-158283609D01*
X214834836Y-170843133D02*
X215215789Y-170843133D01*
X215382456Y-170533609D02*
X215549122Y-171033609D01*
X215549122Y-171033609D02*
X215715789Y-170533609D01*
X215882455Y-171033609D02*
X215882455Y-170533609D01*
X215882455Y-170533609D02*
X216072931Y-170533609D01*
X216072931Y-170533609D02*
X216120550Y-170557419D01*
X216120550Y-170557419D02*
X216144360Y-170581228D01*
X216144360Y-170581228D02*
X216168169Y-170628847D01*
X216168169Y-170628847D02*
X216168169Y-170700276D01*
X216168169Y-170700276D02*
X216144360Y-170747895D01*
X216144360Y-170747895D02*
X216120550Y-170771704D01*
X216120550Y-170771704D02*
X216072931Y-170795514D01*
X216072931Y-170795514D02*
X215882455Y-170795514D01*
X216358646Y-170890752D02*
X216596741Y-170890752D01*
X216311027Y-171033609D02*
X216477693Y-170533609D01*
X216477693Y-170533609D02*
X216644360Y-171033609D01*
X185377068Y-219333609D02*
X185377068Y-218833609D01*
X185377068Y-218833609D02*
X185496116Y-218833609D01*
X185496116Y-218833609D02*
X185567544Y-218857419D01*
X185567544Y-218857419D02*
X185615163Y-218905038D01*
X185615163Y-218905038D02*
X185638973Y-218952657D01*
X185638973Y-218952657D02*
X185662782Y-219047895D01*
X185662782Y-219047895D02*
X185662782Y-219119323D01*
X185662782Y-219119323D02*
X185638973Y-219214561D01*
X185638973Y-219214561D02*
X185615163Y-219262180D01*
X185615163Y-219262180D02*
X185567544Y-219309800D01*
X185567544Y-219309800D02*
X185496116Y-219333609D01*
X185496116Y-219333609D02*
X185377068Y-219333609D01*
X186091354Y-218833609D02*
X185996116Y-218833609D01*
X185996116Y-218833609D02*
X185948497Y-218857419D01*
X185948497Y-218857419D02*
X185924687Y-218881228D01*
X185924687Y-218881228D02*
X185877068Y-218952657D01*
X185877068Y-218952657D02*
X185853259Y-219047895D01*
X185853259Y-219047895D02*
X185853259Y-219238371D01*
X185853259Y-219238371D02*
X185877068Y-219285990D01*
X185877068Y-219285990D02*
X185900878Y-219309800D01*
X185900878Y-219309800D02*
X185948497Y-219333609D01*
X185948497Y-219333609D02*
X186043735Y-219333609D01*
X186043735Y-219333609D02*
X186091354Y-219309800D01*
X186091354Y-219309800D02*
X186115163Y-219285990D01*
X186115163Y-219285990D02*
X186138973Y-219238371D01*
X186138973Y-219238371D02*
X186138973Y-219119323D01*
X186138973Y-219119323D02*
X186115163Y-219071704D01*
X186115163Y-219071704D02*
X186091354Y-219047895D01*
X186091354Y-219047895D02*
X186043735Y-219024085D01*
X186043735Y-219024085D02*
X185948497Y-219024085D01*
X185948497Y-219024085D02*
X185900878Y-219047895D01*
X185900878Y-219047895D02*
X185877068Y-219071704D01*
X185877068Y-219071704D02*
X185853259Y-219119323D01*
X185148498Y-155590752D02*
X185386593Y-155590752D01*
X185100879Y-155733609D02*
X185267545Y-155233609D01*
X185267545Y-155233609D02*
X185434212Y-155733609D01*
X185862783Y-155733609D02*
X185577069Y-155733609D01*
X185719926Y-155733609D02*
X185719926Y-155233609D01*
X185719926Y-155233609D02*
X185672307Y-155305038D01*
X185672307Y-155305038D02*
X185624688Y-155352657D01*
X185624688Y-155352657D02*
X185577069Y-155376466D01*
X186172306Y-155233609D02*
X186219925Y-155233609D01*
X186219925Y-155233609D02*
X186267544Y-155257419D01*
X186267544Y-155257419D02*
X186291354Y-155281228D01*
X186291354Y-155281228D02*
X186315163Y-155328847D01*
X186315163Y-155328847D02*
X186338973Y-155424085D01*
X186338973Y-155424085D02*
X186338973Y-155543133D01*
X186338973Y-155543133D02*
X186315163Y-155638371D01*
X186315163Y-155638371D02*
X186291354Y-155685990D01*
X186291354Y-155685990D02*
X186267544Y-155709800D01*
X186267544Y-155709800D02*
X186219925Y-155733609D01*
X186219925Y-155733609D02*
X186172306Y-155733609D01*
X186172306Y-155733609D02*
X186124687Y-155709800D01*
X186124687Y-155709800D02*
X186100878Y-155685990D01*
X186100878Y-155685990D02*
X186077068Y-155638371D01*
X186077068Y-155638371D02*
X186053259Y-155543133D01*
X186053259Y-155543133D02*
X186053259Y-155424085D01*
X186053259Y-155424085D02*
X186077068Y-155328847D01*
X186077068Y-155328847D02*
X186100878Y-155281228D01*
X186100878Y-155281228D02*
X186124687Y-155257419D01*
X186124687Y-155257419D02*
X186172306Y-155233609D01*
X185100878Y-204033609D02*
X185100878Y-203533609D01*
X185100878Y-203533609D02*
X185219926Y-203533609D01*
X185219926Y-203533609D02*
X185291354Y-203557419D01*
X185291354Y-203557419D02*
X185338973Y-203605038D01*
X185338973Y-203605038D02*
X185362783Y-203652657D01*
X185362783Y-203652657D02*
X185386592Y-203747895D01*
X185386592Y-203747895D02*
X185386592Y-203819323D01*
X185386592Y-203819323D02*
X185362783Y-203914561D01*
X185362783Y-203914561D02*
X185338973Y-203962180D01*
X185338973Y-203962180D02*
X185291354Y-204009800D01*
X185291354Y-204009800D02*
X185219926Y-204033609D01*
X185219926Y-204033609D02*
X185100878Y-204033609D01*
X185862783Y-204033609D02*
X185577069Y-204033609D01*
X185719926Y-204033609D02*
X185719926Y-203533609D01*
X185719926Y-203533609D02*
X185672307Y-203605038D01*
X185672307Y-203605038D02*
X185624688Y-203652657D01*
X185624688Y-203652657D02*
X185577069Y-203676466D01*
X186053259Y-203581228D02*
X186077068Y-203557419D01*
X186077068Y-203557419D02*
X186124687Y-203533609D01*
X186124687Y-203533609D02*
X186243735Y-203533609D01*
X186243735Y-203533609D02*
X186291354Y-203557419D01*
X186291354Y-203557419D02*
X186315163Y-203581228D01*
X186315163Y-203581228D02*
X186338973Y-203628847D01*
X186338973Y-203628847D02*
X186338973Y-203676466D01*
X186338973Y-203676466D02*
X186315163Y-203747895D01*
X186315163Y-203747895D02*
X186029449Y-204033609D01*
X186029449Y-204033609D02*
X186338973Y-204033609D01*
X185374688Y-145540752D02*
X185612783Y-145540752D01*
X185327069Y-145683609D02*
X185493735Y-145183609D01*
X185493735Y-145183609D02*
X185660402Y-145683609D01*
X186041354Y-145183609D02*
X185946116Y-145183609D01*
X185946116Y-145183609D02*
X185898497Y-145207419D01*
X185898497Y-145207419D02*
X185874687Y-145231228D01*
X185874687Y-145231228D02*
X185827068Y-145302657D01*
X185827068Y-145302657D02*
X185803259Y-145397895D01*
X185803259Y-145397895D02*
X185803259Y-145588371D01*
X185803259Y-145588371D02*
X185827068Y-145635990D01*
X185827068Y-145635990D02*
X185850878Y-145659800D01*
X185850878Y-145659800D02*
X185898497Y-145683609D01*
X185898497Y-145683609D02*
X185993735Y-145683609D01*
X185993735Y-145683609D02*
X186041354Y-145659800D01*
X186041354Y-145659800D02*
X186065163Y-145635990D01*
X186065163Y-145635990D02*
X186088973Y-145588371D01*
X186088973Y-145588371D02*
X186088973Y-145469323D01*
X186088973Y-145469323D02*
X186065163Y-145421704D01*
X186065163Y-145421704D02*
X186041354Y-145397895D01*
X186041354Y-145397895D02*
X185993735Y-145374085D01*
X185993735Y-145374085D02*
X185898497Y-145374085D01*
X185898497Y-145374085D02*
X185850878Y-145397895D01*
X185850878Y-145397895D02*
X185827068Y-145421704D01*
X185827068Y-145421704D02*
X185803259Y-145469323D01*
X215101503Y-168121704D02*
X215172931Y-168145514D01*
X215172931Y-168145514D02*
X215196741Y-168169323D01*
X215196741Y-168169323D02*
X215220550Y-168216942D01*
X215220550Y-168216942D02*
X215220550Y-168288371D01*
X215220550Y-168288371D02*
X215196741Y-168335990D01*
X215196741Y-168335990D02*
X215172931Y-168359800D01*
X215172931Y-168359800D02*
X215125312Y-168383609D01*
X215125312Y-168383609D02*
X214934836Y-168383609D01*
X214934836Y-168383609D02*
X214934836Y-167883609D01*
X214934836Y-167883609D02*
X215101503Y-167883609D01*
X215101503Y-167883609D02*
X215149122Y-167907419D01*
X215149122Y-167907419D02*
X215172931Y-167931228D01*
X215172931Y-167931228D02*
X215196741Y-167978847D01*
X215196741Y-167978847D02*
X215196741Y-168026466D01*
X215196741Y-168026466D02*
X215172931Y-168074085D01*
X215172931Y-168074085D02*
X215149122Y-168097895D01*
X215149122Y-168097895D02*
X215101503Y-168121704D01*
X215101503Y-168121704D02*
X214934836Y-168121704D01*
X215434836Y-168121704D02*
X215601503Y-168121704D01*
X215672931Y-168383609D02*
X215434836Y-168383609D01*
X215434836Y-168383609D02*
X215434836Y-167883609D01*
X215434836Y-167883609D02*
X215672931Y-167883609D01*
X216172931Y-168383609D02*
X216006265Y-168145514D01*
X215887217Y-168383609D02*
X215887217Y-167883609D01*
X215887217Y-167883609D02*
X216077693Y-167883609D01*
X216077693Y-167883609D02*
X216125312Y-167907419D01*
X216125312Y-167907419D02*
X216149122Y-167931228D01*
X216149122Y-167931228D02*
X216172931Y-167978847D01*
X216172931Y-167978847D02*
X216172931Y-168050276D01*
X216172931Y-168050276D02*
X216149122Y-168097895D01*
X216149122Y-168097895D02*
X216125312Y-168121704D01*
X216125312Y-168121704D02*
X216077693Y-168145514D01*
X216077693Y-168145514D02*
X215887217Y-168145514D01*
X216672931Y-168383609D02*
X216506265Y-168145514D01*
X216387217Y-168383609D02*
X216387217Y-167883609D01*
X216387217Y-167883609D02*
X216577693Y-167883609D01*
X216577693Y-167883609D02*
X216625312Y-167907419D01*
X216625312Y-167907419D02*
X216649122Y-167931228D01*
X216649122Y-167931228D02*
X216672931Y-167978847D01*
X216672931Y-167978847D02*
X216672931Y-168050276D01*
X216672931Y-168050276D02*
X216649122Y-168097895D01*
X216649122Y-168097895D02*
X216625312Y-168121704D01*
X216625312Y-168121704D02*
X216577693Y-168145514D01*
X216577693Y-168145514D02*
X216387217Y-168145514D01*
X185148498Y-168290752D02*
X185386593Y-168290752D01*
X185100879Y-168433609D02*
X185267545Y-167933609D01*
X185267545Y-167933609D02*
X185434212Y-168433609D01*
X185862783Y-168433609D02*
X185577069Y-168433609D01*
X185719926Y-168433609D02*
X185719926Y-167933609D01*
X185719926Y-167933609D02*
X185672307Y-168005038D01*
X185672307Y-168005038D02*
X185624688Y-168052657D01*
X185624688Y-168052657D02*
X185577069Y-168076466D01*
X186315163Y-167933609D02*
X186077068Y-167933609D01*
X186077068Y-167933609D02*
X186053259Y-168171704D01*
X186053259Y-168171704D02*
X186077068Y-168147895D01*
X186077068Y-168147895D02*
X186124687Y-168124085D01*
X186124687Y-168124085D02*
X186243735Y-168124085D01*
X186243735Y-168124085D02*
X186291354Y-168147895D01*
X186291354Y-168147895D02*
X186315163Y-168171704D01*
X186315163Y-168171704D02*
X186338973Y-168219323D01*
X186338973Y-168219323D02*
X186338973Y-168338371D01*
X186338973Y-168338371D02*
X186315163Y-168385990D01*
X186315163Y-168385990D02*
X186291354Y-168409800D01*
X186291354Y-168409800D02*
X186243735Y-168433609D01*
X186243735Y-168433609D02*
X186124687Y-168433609D01*
X186124687Y-168433609D02*
X186077068Y-168409800D01*
X186077068Y-168409800D02*
X186053259Y-168385990D01*
X215622931Y-188233609D02*
X215384836Y-188233609D01*
X215384836Y-188233609D02*
X215361027Y-188471704D01*
X215361027Y-188471704D02*
X215384836Y-188447895D01*
X215384836Y-188447895D02*
X215432455Y-188424085D01*
X215432455Y-188424085D02*
X215551503Y-188424085D01*
X215551503Y-188424085D02*
X215599122Y-188447895D01*
X215599122Y-188447895D02*
X215622931Y-188471704D01*
X215622931Y-188471704D02*
X215646741Y-188519323D01*
X215646741Y-188519323D02*
X215646741Y-188638371D01*
X215646741Y-188638371D02*
X215622931Y-188685990D01*
X215622931Y-188685990D02*
X215599122Y-188709800D01*
X215599122Y-188709800D02*
X215551503Y-188733609D01*
X215551503Y-188733609D02*
X215432455Y-188733609D01*
X215432455Y-188733609D02*
X215384836Y-188709800D01*
X215384836Y-188709800D02*
X215361027Y-188685990D01*
X215789598Y-188233609D02*
X215956264Y-188733609D01*
X215956264Y-188733609D02*
X216122931Y-188233609D01*
X185377068Y-211633609D02*
X185377068Y-211133609D01*
X185377068Y-211133609D02*
X185496116Y-211133609D01*
X185496116Y-211133609D02*
X185567544Y-211157419D01*
X185567544Y-211157419D02*
X185615163Y-211205038D01*
X185615163Y-211205038D02*
X185638973Y-211252657D01*
X185638973Y-211252657D02*
X185662782Y-211347895D01*
X185662782Y-211347895D02*
X185662782Y-211419323D01*
X185662782Y-211419323D02*
X185638973Y-211514561D01*
X185638973Y-211514561D02*
X185615163Y-211562180D01*
X185615163Y-211562180D02*
X185567544Y-211609800D01*
X185567544Y-211609800D02*
X185496116Y-211633609D01*
X185496116Y-211633609D02*
X185377068Y-211633609D01*
X185900878Y-211633609D02*
X185996116Y-211633609D01*
X185996116Y-211633609D02*
X186043735Y-211609800D01*
X186043735Y-211609800D02*
X186067544Y-211585990D01*
X186067544Y-211585990D02*
X186115163Y-211514561D01*
X186115163Y-211514561D02*
X186138973Y-211419323D01*
X186138973Y-211419323D02*
X186138973Y-211228847D01*
X186138973Y-211228847D02*
X186115163Y-211181228D01*
X186115163Y-211181228D02*
X186091354Y-211157419D01*
X186091354Y-211157419D02*
X186043735Y-211133609D01*
X186043735Y-211133609D02*
X185948497Y-211133609D01*
X185948497Y-211133609D02*
X185900878Y-211157419D01*
X185900878Y-211157419D02*
X185877068Y-211181228D01*
X185877068Y-211181228D02*
X185853259Y-211228847D01*
X185853259Y-211228847D02*
X185853259Y-211347895D01*
X185853259Y-211347895D02*
X185877068Y-211395514D01*
X185877068Y-211395514D02*
X185900878Y-211419323D01*
X185900878Y-211419323D02*
X185948497Y-211443133D01*
X185948497Y-211443133D02*
X186043735Y-211443133D01*
X186043735Y-211443133D02*
X186091354Y-211419323D01*
X186091354Y-211419323D02*
X186115163Y-211395514D01*
X186115163Y-211395514D02*
X186138973Y-211347895D01*
X185148498Y-160690752D02*
X185386593Y-160690752D01*
X185100879Y-160833609D02*
X185267545Y-160333609D01*
X185267545Y-160333609D02*
X185434212Y-160833609D01*
X185862783Y-160833609D02*
X185577069Y-160833609D01*
X185719926Y-160833609D02*
X185719926Y-160333609D01*
X185719926Y-160333609D02*
X185672307Y-160405038D01*
X185672307Y-160405038D02*
X185624688Y-160452657D01*
X185624688Y-160452657D02*
X185577069Y-160476466D01*
X186053259Y-160381228D02*
X186077068Y-160357419D01*
X186077068Y-160357419D02*
X186124687Y-160333609D01*
X186124687Y-160333609D02*
X186243735Y-160333609D01*
X186243735Y-160333609D02*
X186291354Y-160357419D01*
X186291354Y-160357419D02*
X186315163Y-160381228D01*
X186315163Y-160381228D02*
X186338973Y-160428847D01*
X186338973Y-160428847D02*
X186338973Y-160476466D01*
X186338973Y-160476466D02*
X186315163Y-160547895D01*
X186315163Y-160547895D02*
X186029449Y-160833609D01*
X186029449Y-160833609D02*
X186338973Y-160833609D01*
X185374688Y-150590752D02*
X185612783Y-150590752D01*
X185327069Y-150733609D02*
X185493735Y-150233609D01*
X185493735Y-150233609D02*
X185660402Y-150733609D01*
X185898497Y-150447895D02*
X185850878Y-150424085D01*
X185850878Y-150424085D02*
X185827068Y-150400276D01*
X185827068Y-150400276D02*
X185803259Y-150352657D01*
X185803259Y-150352657D02*
X185803259Y-150328847D01*
X185803259Y-150328847D02*
X185827068Y-150281228D01*
X185827068Y-150281228D02*
X185850878Y-150257419D01*
X185850878Y-150257419D02*
X185898497Y-150233609D01*
X185898497Y-150233609D02*
X185993735Y-150233609D01*
X185993735Y-150233609D02*
X186041354Y-150257419D01*
X186041354Y-150257419D02*
X186065163Y-150281228D01*
X186065163Y-150281228D02*
X186088973Y-150328847D01*
X186088973Y-150328847D02*
X186088973Y-150352657D01*
X186088973Y-150352657D02*
X186065163Y-150400276D01*
X186065163Y-150400276D02*
X186041354Y-150424085D01*
X186041354Y-150424085D02*
X185993735Y-150447895D01*
X185993735Y-150447895D02*
X185898497Y-150447895D01*
X185898497Y-150447895D02*
X185850878Y-150471704D01*
X185850878Y-150471704D02*
X185827068Y-150495514D01*
X185827068Y-150495514D02*
X185803259Y-150543133D01*
X185803259Y-150543133D02*
X185803259Y-150638371D01*
X185803259Y-150638371D02*
X185827068Y-150685990D01*
X185827068Y-150685990D02*
X185850878Y-150709800D01*
X185850878Y-150709800D02*
X185898497Y-150733609D01*
X185898497Y-150733609D02*
X185993735Y-150733609D01*
X185993735Y-150733609D02*
X186041354Y-150709800D01*
X186041354Y-150709800D02*
X186065163Y-150685990D01*
X186065163Y-150685990D02*
X186088973Y-150638371D01*
X186088973Y-150638371D02*
X186088973Y-150543133D01*
X186088973Y-150543133D02*
X186065163Y-150495514D01*
X186065163Y-150495514D02*
X186041354Y-150471704D01*
X186041354Y-150471704D02*
X185993735Y-150447895D01*
X185686592Y-183133609D02*
X185448497Y-183133609D01*
X185448497Y-183133609D02*
X185424688Y-183371704D01*
X185424688Y-183371704D02*
X185448497Y-183347895D01*
X185448497Y-183347895D02*
X185496116Y-183324085D01*
X185496116Y-183324085D02*
X185615164Y-183324085D01*
X185615164Y-183324085D02*
X185662783Y-183347895D01*
X185662783Y-183347895D02*
X185686592Y-183371704D01*
X185686592Y-183371704D02*
X185710402Y-183419323D01*
X185710402Y-183419323D02*
X185710402Y-183538371D01*
X185710402Y-183538371D02*
X185686592Y-183585990D01*
X185686592Y-183585990D02*
X185662783Y-183609800D01*
X185662783Y-183609800D02*
X185615164Y-183633609D01*
X185615164Y-183633609D02*
X185496116Y-183633609D01*
X185496116Y-183633609D02*
X185448497Y-183609800D01*
X185448497Y-183609800D02*
X185424688Y-183585990D01*
X185853259Y-183133609D02*
X186019925Y-183633609D01*
X186019925Y-183633609D02*
X186186592Y-183133609D01*
X214934836Y-191143133D02*
X215315789Y-191143133D01*
X215720551Y-191071704D02*
X215791979Y-191095514D01*
X215791979Y-191095514D02*
X215815789Y-191119323D01*
X215815789Y-191119323D02*
X215839598Y-191166942D01*
X215839598Y-191166942D02*
X215839598Y-191238371D01*
X215839598Y-191238371D02*
X215815789Y-191285990D01*
X215815789Y-191285990D02*
X215791979Y-191309800D01*
X215791979Y-191309800D02*
X215744360Y-191333609D01*
X215744360Y-191333609D02*
X215553884Y-191333609D01*
X215553884Y-191333609D02*
X215553884Y-190833609D01*
X215553884Y-190833609D02*
X215720551Y-190833609D01*
X215720551Y-190833609D02*
X215768170Y-190857419D01*
X215768170Y-190857419D02*
X215791979Y-190881228D01*
X215791979Y-190881228D02*
X215815789Y-190928847D01*
X215815789Y-190928847D02*
X215815789Y-190976466D01*
X215815789Y-190976466D02*
X215791979Y-191024085D01*
X215791979Y-191024085D02*
X215768170Y-191047895D01*
X215768170Y-191047895D02*
X215720551Y-191071704D01*
X215720551Y-191071704D02*
X215553884Y-191071704D01*
X216339598Y-191333609D02*
X216172932Y-191095514D01*
X216053884Y-191333609D02*
X216053884Y-190833609D01*
X216053884Y-190833609D02*
X216244360Y-190833609D01*
X216244360Y-190833609D02*
X216291979Y-190857419D01*
X216291979Y-190857419D02*
X216315789Y-190881228D01*
X216315789Y-190881228D02*
X216339598Y-190928847D01*
X216339598Y-190928847D02*
X216339598Y-191000276D01*
X216339598Y-191000276D02*
X216315789Y-191047895D01*
X216315789Y-191047895D02*
X216291979Y-191071704D01*
X216291979Y-191071704D02*
X216244360Y-191095514D01*
X216244360Y-191095514D02*
X216053884Y-191095514D01*
X185100878Y-209133609D02*
X185100878Y-208633609D01*
X185100878Y-208633609D02*
X185219926Y-208633609D01*
X185219926Y-208633609D02*
X185291354Y-208657419D01*
X185291354Y-208657419D02*
X185338973Y-208705038D01*
X185338973Y-208705038D02*
X185362783Y-208752657D01*
X185362783Y-208752657D02*
X185386592Y-208847895D01*
X185386592Y-208847895D02*
X185386592Y-208919323D01*
X185386592Y-208919323D02*
X185362783Y-209014561D01*
X185362783Y-209014561D02*
X185338973Y-209062180D01*
X185338973Y-209062180D02*
X185291354Y-209109800D01*
X185291354Y-209109800D02*
X185219926Y-209133609D01*
X185219926Y-209133609D02*
X185100878Y-209133609D01*
X185862783Y-209133609D02*
X185577069Y-209133609D01*
X185719926Y-209133609D02*
X185719926Y-208633609D01*
X185719926Y-208633609D02*
X185672307Y-208705038D01*
X185672307Y-208705038D02*
X185624688Y-208752657D01*
X185624688Y-208752657D02*
X185577069Y-208776466D01*
X186172306Y-208633609D02*
X186219925Y-208633609D01*
X186219925Y-208633609D02*
X186267544Y-208657419D01*
X186267544Y-208657419D02*
X186291354Y-208681228D01*
X186291354Y-208681228D02*
X186315163Y-208728847D01*
X186315163Y-208728847D02*
X186338973Y-208824085D01*
X186338973Y-208824085D02*
X186338973Y-208943133D01*
X186338973Y-208943133D02*
X186315163Y-209038371D01*
X186315163Y-209038371D02*
X186291354Y-209085990D01*
X186291354Y-209085990D02*
X186267544Y-209109800D01*
X186267544Y-209109800D02*
X186219925Y-209133609D01*
X186219925Y-209133609D02*
X186172306Y-209133609D01*
X186172306Y-209133609D02*
X186124687Y-209109800D01*
X186124687Y-209109800D02*
X186100878Y-209085990D01*
X186100878Y-209085990D02*
X186077068Y-209038371D01*
X186077068Y-209038371D02*
X186053259Y-208943133D01*
X186053259Y-208943133D02*
X186053259Y-208824085D01*
X186053259Y-208824085D02*
X186077068Y-208728847D01*
X186077068Y-208728847D02*
X186100878Y-208681228D01*
X186100878Y-208681228D02*
X186124687Y-208657419D01*
X186124687Y-208657419D02*
X186172306Y-208633609D01*
X185377068Y-221833609D02*
X185377068Y-221333609D01*
X185377068Y-221333609D02*
X185496116Y-221333609D01*
X185496116Y-221333609D02*
X185567544Y-221357419D01*
X185567544Y-221357419D02*
X185615163Y-221405038D01*
X185615163Y-221405038D02*
X185638973Y-221452657D01*
X185638973Y-221452657D02*
X185662782Y-221547895D01*
X185662782Y-221547895D02*
X185662782Y-221619323D01*
X185662782Y-221619323D02*
X185638973Y-221714561D01*
X185638973Y-221714561D02*
X185615163Y-221762180D01*
X185615163Y-221762180D02*
X185567544Y-221809800D01*
X185567544Y-221809800D02*
X185496116Y-221833609D01*
X185496116Y-221833609D02*
X185377068Y-221833609D01*
X186115163Y-221333609D02*
X185877068Y-221333609D01*
X185877068Y-221333609D02*
X185853259Y-221571704D01*
X185853259Y-221571704D02*
X185877068Y-221547895D01*
X185877068Y-221547895D02*
X185924687Y-221524085D01*
X185924687Y-221524085D02*
X186043735Y-221524085D01*
X186043735Y-221524085D02*
X186091354Y-221547895D01*
X186091354Y-221547895D02*
X186115163Y-221571704D01*
X186115163Y-221571704D02*
X186138973Y-221619323D01*
X186138973Y-221619323D02*
X186138973Y-221738371D01*
X186138973Y-221738371D02*
X186115163Y-221785990D01*
X186115163Y-221785990D02*
X186091354Y-221809800D01*
X186091354Y-221809800D02*
X186043735Y-221833609D01*
X186043735Y-221833609D02*
X185924687Y-221833609D01*
X185924687Y-221833609D02*
X185877068Y-221809800D01*
X185877068Y-221809800D02*
X185853259Y-221785990D01*
D11*
G36*
X208171517Y-221053524D02*
G01*
X208472424Y-221053524D01*
X208472424Y-220745778D01*
X209101593Y-220745778D01*
X209101593Y-221053524D01*
X209402501Y-221053524D01*
X209402501Y-222592254D01*
X207241440Y-222592254D01*
X207241440Y-221976762D01*
X207542347Y-221976762D01*
X208171517Y-221976762D01*
X208472424Y-221976762D01*
X209101593Y-221976762D01*
X209101593Y-221361270D01*
X208472424Y-221361270D01*
X208472424Y-221976762D01*
X208171517Y-221976762D01*
X208171517Y-221361270D01*
X207542347Y-221361270D01*
X207542347Y-221976762D01*
X207241440Y-221976762D01*
X207241440Y-221053524D01*
X207542347Y-221053524D01*
X207542347Y-220745778D01*
X208171517Y-220745778D01*
X208171517Y-221053524D01*
G37*
G36*
X209101593Y-218911270D02*
G01*
X207241440Y-218911270D01*
X207241440Y-219526762D01*
X209101593Y-219526762D01*
X209101593Y-219219016D01*
X209402501Y-219219016D01*
X209402501Y-218603524D01*
X209101593Y-218603524D01*
X209101593Y-218911270D01*
G37*
G36*
X209402501Y-216769016D02*
G01*
X209402501Y-216153524D01*
X209101593Y-216153524D01*
X209101593Y-216461270D01*
X207870609Y-216461270D01*
X207870609Y-217076762D01*
X209101593Y-217076762D01*
X209101593Y-216769016D01*
X209402501Y-216769016D01*
G37*
G36*
X207542347Y-216461270D02*
G01*
X207241440Y-216461270D01*
X207241440Y-217076762D01*
X207542347Y-217076762D01*
X207542347Y-216461270D01*
G37*
G36*
X209402501Y-215242254D02*
G01*
X209402501Y-214626762D01*
X208171517Y-214626762D01*
X208171517Y-214011270D01*
X209402501Y-214011270D01*
X209402501Y-213395778D01*
X208171517Y-213395778D01*
X208171517Y-213703524D01*
X207870609Y-213703524D01*
X207870609Y-215242254D01*
X209402501Y-215242254D01*
G37*
G36*
X208171517Y-211561270D02*
G01*
X208171517Y-211869016D01*
X208472424Y-211869016D01*
X208472424Y-212176762D01*
X207241440Y-212176762D01*
X207241440Y-212792254D01*
X209402501Y-212792254D01*
X209402501Y-212176762D01*
X208773331Y-212176762D01*
X208773331Y-211869016D01*
X209101593Y-211869016D01*
X209101593Y-211561270D01*
X209402501Y-211561270D01*
X209402501Y-210945778D01*
X209101593Y-210945778D01*
X209101593Y-211253524D01*
X208773331Y-211253524D01*
X208773331Y-211561270D01*
X208472424Y-211561270D01*
X208472424Y-211253524D01*
X208171517Y-211253524D01*
X208171517Y-210945778D01*
X207870609Y-210945778D01*
X207870609Y-211561270D01*
X208171517Y-211561270D01*
G37*
G36*
X208773331Y-209726762D02*
G01*
X209101593Y-209726762D01*
X209101593Y-208803524D01*
X209402501Y-208803524D01*
X209402501Y-210034508D01*
X209101593Y-210034508D01*
X209101593Y-210342254D01*
X208171517Y-210342254D01*
X208171517Y-210034508D01*
X207870609Y-210034508D01*
X207870609Y-209726762D01*
X208171517Y-209726762D01*
X208472424Y-209726762D01*
X208472424Y-209111270D01*
X208171517Y-209111270D01*
X208171517Y-209726762D01*
X207870609Y-209726762D01*
X207870609Y-208803524D01*
X208171517Y-208803524D01*
X208171517Y-208495778D01*
X208773331Y-208495778D01*
X208773331Y-209726762D01*
G37*
G36*
X209402501Y-207892254D02*
G01*
X209402501Y-207276762D01*
X208171517Y-207276762D01*
X208171517Y-206661270D01*
X208472424Y-206661270D01*
X208472424Y-206045778D01*
X208171517Y-206045778D01*
X208171517Y-206353524D01*
X207870609Y-206353524D01*
X207870609Y-207892254D01*
X209402501Y-207892254D01*
G37*
G36*
X208171517Y-201761270D02*
G01*
X208171517Y-202376762D01*
X207542347Y-202376762D01*
X207542347Y-201145778D01*
X207241440Y-201145778D01*
X207241440Y-202992254D01*
X209402501Y-202992254D01*
X209402501Y-202376762D01*
X208472424Y-202376762D01*
X208472424Y-201761270D01*
X208171517Y-201761270D01*
G37*
G36*
X209101593Y-199311270D02*
G01*
X207241440Y-199311270D01*
X207241440Y-199926762D01*
X209101593Y-199926762D01*
X209101593Y-199619016D01*
X209402501Y-199619016D01*
X209402501Y-199003524D01*
X209101593Y-199003524D01*
X209101593Y-199311270D01*
G37*
G36*
X209402501Y-196245778D02*
G01*
X207870609Y-196245778D01*
X207870609Y-196861270D01*
X209101593Y-196861270D01*
X209101593Y-197476762D01*
X207870609Y-197476762D01*
X207870609Y-198092254D01*
X209101593Y-198092254D01*
X209101593Y-197784508D01*
X209402501Y-197784508D01*
X209402501Y-196245778D01*
G37*
G36*
X209402501Y-194719016D02*
G01*
X209402501Y-194103524D01*
X209101593Y-194103524D01*
X209101593Y-194411270D01*
X207870609Y-194411270D01*
X207870609Y-195026762D01*
X209101593Y-195026762D01*
X209101593Y-194719016D01*
X209402501Y-194719016D01*
G37*
G36*
X207542347Y-194411270D02*
G01*
X207241440Y-194411270D01*
X207241440Y-195026762D01*
X207542347Y-195026762D01*
X207542347Y-194411270D01*
G37*
G36*
X209402501Y-192884508D02*
G01*
X209101593Y-192884508D01*
X209101593Y-193192254D01*
X208171517Y-193192254D01*
X208171517Y-192884508D01*
X207870609Y-192884508D01*
X207870609Y-192576762D01*
X208171517Y-192576762D01*
X209101593Y-192576762D01*
X209101593Y-191961270D01*
X208171517Y-191961270D01*
X208171517Y-192576762D01*
X207870609Y-192576762D01*
X207870609Y-191961270D01*
X207241440Y-191961270D01*
X207241440Y-191345778D01*
X209402501Y-191345778D01*
X209402501Y-192884508D01*
G37*
D10*
X185148498Y-158190752D02*
X185386593Y-158190752D01*
X185100879Y-158333609D02*
X185267545Y-157833609D01*
X185267545Y-157833609D02*
X185434212Y-158333609D01*
X185862783Y-158333609D02*
X185577069Y-158333609D01*
X185719926Y-158333609D02*
X185719926Y-157833609D01*
X185719926Y-157833609D02*
X185672307Y-157905038D01*
X185672307Y-157905038D02*
X185624688Y-157952657D01*
X185624688Y-157952657D02*
X185577069Y-157976466D01*
X186338973Y-158333609D02*
X186053259Y-158333609D01*
X186196116Y-158333609D02*
X186196116Y-157833609D01*
X186196116Y-157833609D02*
X186148497Y-157905038D01*
X186148497Y-157905038D02*
X186100878Y-157952657D01*
X186100878Y-157952657D02*
X186053259Y-157976466D01*
X185148498Y-191190752D02*
X185386593Y-191190752D01*
X185100879Y-191333609D02*
X185267545Y-190833609D01*
X185267545Y-190833609D02*
X185434212Y-191333609D01*
X185577069Y-190881228D02*
X185600878Y-190857419D01*
X185600878Y-190857419D02*
X185648497Y-190833609D01*
X185648497Y-190833609D02*
X185767545Y-190833609D01*
X185767545Y-190833609D02*
X185815164Y-190857419D01*
X185815164Y-190857419D02*
X185838973Y-190881228D01*
X185838973Y-190881228D02*
X185862783Y-190928847D01*
X185862783Y-190928847D02*
X185862783Y-190976466D01*
X185862783Y-190976466D02*
X185838973Y-191047895D01*
X185838973Y-191047895D02*
X185553259Y-191333609D01*
X185553259Y-191333609D02*
X185862783Y-191333609D01*
X186029449Y-190833609D02*
X186338973Y-190833609D01*
X186338973Y-190833609D02*
X186172306Y-191024085D01*
X186172306Y-191024085D02*
X186243735Y-191024085D01*
X186243735Y-191024085D02*
X186291354Y-191047895D01*
X186291354Y-191047895D02*
X186315163Y-191071704D01*
X186315163Y-191071704D02*
X186338973Y-191119323D01*
X186338973Y-191119323D02*
X186338973Y-191238371D01*
X186338973Y-191238371D02*
X186315163Y-191285990D01*
X186315163Y-191285990D02*
X186291354Y-191309800D01*
X186291354Y-191309800D02*
X186243735Y-191333609D01*
X186243735Y-191333609D02*
X186100878Y-191333609D01*
X186100878Y-191333609D02*
X186053259Y-191309800D01*
X186053259Y-191309800D02*
X186029449Y-191285990D01*
X215384836Y-221783609D02*
X215384836Y-221283609D01*
X215384836Y-221283609D02*
X215503884Y-221283609D01*
X215503884Y-221283609D02*
X215575312Y-221307419D01*
X215575312Y-221307419D02*
X215622931Y-221355038D01*
X215622931Y-221355038D02*
X215646741Y-221402657D01*
X215646741Y-221402657D02*
X215670550Y-221497895D01*
X215670550Y-221497895D02*
X215670550Y-221569323D01*
X215670550Y-221569323D02*
X215646741Y-221664561D01*
X215646741Y-221664561D02*
X215622931Y-221712180D01*
X215622931Y-221712180D02*
X215575312Y-221759800D01*
X215575312Y-221759800D02*
X215503884Y-221783609D01*
X215503884Y-221783609D02*
X215384836Y-221783609D01*
X216099122Y-221450276D02*
X216099122Y-221783609D01*
X215980074Y-221259800D02*
X215861027Y-221616942D01*
X215861027Y-221616942D02*
X216170550Y-221616942D01*
X215411027Y-142890752D02*
X215649122Y-142890752D01*
X215363408Y-143033609D02*
X215530074Y-142533609D01*
X215530074Y-142533609D02*
X215696741Y-143033609D01*
X216077693Y-142700276D02*
X216077693Y-143033609D01*
X215958645Y-142509800D02*
X215839598Y-142866942D01*
X215839598Y-142866942D02*
X216149121Y-142866942D01*
X215411027Y-145490752D02*
X215649122Y-145490752D01*
X215363408Y-145633609D02*
X215530074Y-145133609D01*
X215530074Y-145133609D02*
X215696741Y-145633609D01*
X215815788Y-145133609D02*
X216125312Y-145133609D01*
X216125312Y-145133609D02*
X215958645Y-145324085D01*
X215958645Y-145324085D02*
X216030074Y-145324085D01*
X216030074Y-145324085D02*
X216077693Y-145347895D01*
X216077693Y-145347895D02*
X216101502Y-145371704D01*
X216101502Y-145371704D02*
X216125312Y-145419323D01*
X216125312Y-145419323D02*
X216125312Y-145538371D01*
X216125312Y-145538371D02*
X216101502Y-145585990D01*
X216101502Y-145585990D02*
X216077693Y-145609800D01*
X216077693Y-145609800D02*
X216030074Y-145633609D01*
X216030074Y-145633609D02*
X215887217Y-145633609D01*
X215887217Y-145633609D02*
X215839598Y-145609800D01*
X215839598Y-145609800D02*
X215815788Y-145585990D01*
X185148498Y-173490752D02*
X185386593Y-173490752D01*
X185100879Y-173633609D02*
X185267545Y-173133609D01*
X185267545Y-173133609D02*
X185434212Y-173633609D01*
X185862783Y-173633609D02*
X185577069Y-173633609D01*
X185719926Y-173633609D02*
X185719926Y-173133609D01*
X185719926Y-173133609D02*
X185672307Y-173205038D01*
X185672307Y-173205038D02*
X185624688Y-173252657D01*
X185624688Y-173252657D02*
X185577069Y-173276466D01*
X186029449Y-173133609D02*
X186362782Y-173133609D01*
X186362782Y-173133609D02*
X186148497Y-173633609D01*
X185377068Y-214133609D02*
X185377068Y-213633609D01*
X185377068Y-213633609D02*
X185496116Y-213633609D01*
X185496116Y-213633609D02*
X185567544Y-213657419D01*
X185567544Y-213657419D02*
X185615163Y-213705038D01*
X185615163Y-213705038D02*
X185638973Y-213752657D01*
X185638973Y-213752657D02*
X185662782Y-213847895D01*
X185662782Y-213847895D02*
X185662782Y-213919323D01*
X185662782Y-213919323D02*
X185638973Y-214014561D01*
X185638973Y-214014561D02*
X185615163Y-214062180D01*
X185615163Y-214062180D02*
X185567544Y-214109800D01*
X185567544Y-214109800D02*
X185496116Y-214133609D01*
X185496116Y-214133609D02*
X185377068Y-214133609D01*
X185948497Y-213847895D02*
X185900878Y-213824085D01*
X185900878Y-213824085D02*
X185877068Y-213800276D01*
X185877068Y-213800276D02*
X185853259Y-213752657D01*
X185853259Y-213752657D02*
X185853259Y-213728847D01*
X185853259Y-213728847D02*
X185877068Y-213681228D01*
X185877068Y-213681228D02*
X185900878Y-213657419D01*
X185900878Y-213657419D02*
X185948497Y-213633609D01*
X185948497Y-213633609D02*
X186043735Y-213633609D01*
X186043735Y-213633609D02*
X186091354Y-213657419D01*
X186091354Y-213657419D02*
X186115163Y-213681228D01*
X186115163Y-213681228D02*
X186138973Y-213728847D01*
X186138973Y-213728847D02*
X186138973Y-213752657D01*
X186138973Y-213752657D02*
X186115163Y-213800276D01*
X186115163Y-213800276D02*
X186091354Y-213824085D01*
X186091354Y-213824085D02*
X186043735Y-213847895D01*
X186043735Y-213847895D02*
X185948497Y-213847895D01*
X185948497Y-213847895D02*
X185900878Y-213871704D01*
X185900878Y-213871704D02*
X185877068Y-213895514D01*
X185877068Y-213895514D02*
X185853259Y-213943133D01*
X185853259Y-213943133D02*
X185853259Y-214038371D01*
X185853259Y-214038371D02*
X185877068Y-214085990D01*
X185877068Y-214085990D02*
X185900878Y-214109800D01*
X185900878Y-214109800D02*
X185948497Y-214133609D01*
X185948497Y-214133609D02*
X186043735Y-214133609D01*
X186043735Y-214133609D02*
X186091354Y-214109800D01*
X186091354Y-214109800D02*
X186115163Y-214085990D01*
X186115163Y-214085990D02*
X186138973Y-214038371D01*
X186138973Y-214038371D02*
X186138973Y-213943133D01*
X186138973Y-213943133D02*
X186115163Y-213895514D01*
X186115163Y-213895514D02*
X186091354Y-213871704D01*
X186091354Y-213871704D02*
X186043735Y-213847895D01*
X185148498Y-178490752D02*
X185386593Y-178490752D01*
X185100879Y-178633609D02*
X185267545Y-178133609D01*
X185267545Y-178133609D02*
X185434212Y-178633609D01*
X185862783Y-178633609D02*
X185577069Y-178633609D01*
X185719926Y-178633609D02*
X185719926Y-178133609D01*
X185719926Y-178133609D02*
X185672307Y-178205038D01*
X185672307Y-178205038D02*
X185624688Y-178252657D01*
X185624688Y-178252657D02*
X185577069Y-178276466D01*
X186100878Y-178633609D02*
X186196116Y-178633609D01*
X186196116Y-178633609D02*
X186243735Y-178609800D01*
X186243735Y-178609800D02*
X186267544Y-178585990D01*
X186267544Y-178585990D02*
X186315163Y-178514561D01*
X186315163Y-178514561D02*
X186338973Y-178419323D01*
X186338973Y-178419323D02*
X186338973Y-178228847D01*
X186338973Y-178228847D02*
X186315163Y-178181228D01*
X186315163Y-178181228D02*
X186291354Y-178157419D01*
X186291354Y-178157419D02*
X186243735Y-178133609D01*
X186243735Y-178133609D02*
X186148497Y-178133609D01*
X186148497Y-178133609D02*
X186100878Y-178157419D01*
X186100878Y-178157419D02*
X186077068Y-178181228D01*
X186077068Y-178181228D02*
X186053259Y-178228847D01*
X186053259Y-178228847D02*
X186053259Y-178347895D01*
X186053259Y-178347895D02*
X186077068Y-178395514D01*
X186077068Y-178395514D02*
X186100878Y-178419323D01*
X186100878Y-178419323D02*
X186148497Y-178443133D01*
X186148497Y-178443133D02*
X186243735Y-178443133D01*
X186243735Y-178443133D02*
X186291354Y-178419323D01*
X186291354Y-178419323D02*
X186315163Y-178395514D01*
X186315163Y-178395514D02*
X186338973Y-178347895D01*
X185148498Y-175990752D02*
X185386593Y-175990752D01*
X185100879Y-176133609D02*
X185267545Y-175633609D01*
X185267545Y-175633609D02*
X185434212Y-176133609D01*
X185862783Y-176133609D02*
X185577069Y-176133609D01*
X185719926Y-176133609D02*
X185719926Y-175633609D01*
X185719926Y-175633609D02*
X185672307Y-175705038D01*
X185672307Y-175705038D02*
X185624688Y-175752657D01*
X185624688Y-175752657D02*
X185577069Y-175776466D01*
X186148497Y-175847895D02*
X186100878Y-175824085D01*
X186100878Y-175824085D02*
X186077068Y-175800276D01*
X186077068Y-175800276D02*
X186053259Y-175752657D01*
X186053259Y-175752657D02*
X186053259Y-175728847D01*
X186053259Y-175728847D02*
X186077068Y-175681228D01*
X186077068Y-175681228D02*
X186100878Y-175657419D01*
X186100878Y-175657419D02*
X186148497Y-175633609D01*
X186148497Y-175633609D02*
X186243735Y-175633609D01*
X186243735Y-175633609D02*
X186291354Y-175657419D01*
X186291354Y-175657419D02*
X186315163Y-175681228D01*
X186315163Y-175681228D02*
X186338973Y-175728847D01*
X186338973Y-175728847D02*
X186338973Y-175752657D01*
X186338973Y-175752657D02*
X186315163Y-175800276D01*
X186315163Y-175800276D02*
X186291354Y-175824085D01*
X186291354Y-175824085D02*
X186243735Y-175847895D01*
X186243735Y-175847895D02*
X186148497Y-175847895D01*
X186148497Y-175847895D02*
X186100878Y-175871704D01*
X186100878Y-175871704D02*
X186077068Y-175895514D01*
X186077068Y-175895514D02*
X186053259Y-175943133D01*
X186053259Y-175943133D02*
X186053259Y-176038371D01*
X186053259Y-176038371D02*
X186077068Y-176085990D01*
X186077068Y-176085990D02*
X186100878Y-176109800D01*
X186100878Y-176109800D02*
X186148497Y-176133609D01*
X186148497Y-176133609D02*
X186243735Y-176133609D01*
X186243735Y-176133609D02*
X186291354Y-176109800D01*
X186291354Y-176109800D02*
X186315163Y-176085990D01*
X186315163Y-176085990D02*
X186338973Y-176038371D01*
X186338973Y-176038371D02*
X186338973Y-175943133D01*
X186338973Y-175943133D02*
X186315163Y-175895514D01*
X186315163Y-175895514D02*
X186291354Y-175871704D01*
X186291354Y-175871704D02*
X186243735Y-175847895D01*
X215384836Y-211633609D02*
X215384836Y-211133609D01*
X215384836Y-211133609D02*
X215503884Y-211133609D01*
X215503884Y-211133609D02*
X215575312Y-211157419D01*
X215575312Y-211157419D02*
X215622931Y-211205038D01*
X215622931Y-211205038D02*
X215646741Y-211252657D01*
X215646741Y-211252657D02*
X215670550Y-211347895D01*
X215670550Y-211347895D02*
X215670550Y-211419323D01*
X215670550Y-211419323D02*
X215646741Y-211514561D01*
X215646741Y-211514561D02*
X215622931Y-211562180D01*
X215622931Y-211562180D02*
X215575312Y-211609800D01*
X215575312Y-211609800D02*
X215503884Y-211633609D01*
X215503884Y-211633609D02*
X215384836Y-211633609D01*
X215980074Y-211133609D02*
X216027693Y-211133609D01*
X216027693Y-211133609D02*
X216075312Y-211157419D01*
X216075312Y-211157419D02*
X216099122Y-211181228D01*
X216099122Y-211181228D02*
X216122931Y-211228847D01*
X216122931Y-211228847D02*
X216146741Y-211324085D01*
X216146741Y-211324085D02*
X216146741Y-211443133D01*
X216146741Y-211443133D02*
X216122931Y-211538371D01*
X216122931Y-211538371D02*
X216099122Y-211585990D01*
X216099122Y-211585990D02*
X216075312Y-211609800D01*
X216075312Y-211609800D02*
X216027693Y-211633609D01*
X216027693Y-211633609D02*
X215980074Y-211633609D01*
X215980074Y-211633609D02*
X215932455Y-211609800D01*
X215932455Y-211609800D02*
X215908646Y-211585990D01*
X215908646Y-211585990D02*
X215884836Y-211538371D01*
X215884836Y-211538371D02*
X215861027Y-211443133D01*
X215861027Y-211443133D02*
X215861027Y-211324085D01*
X215861027Y-211324085D02*
X215884836Y-211228847D01*
X215884836Y-211228847D02*
X215908646Y-211181228D01*
X215908646Y-211181228D02*
X215932455Y-211157419D01*
X215932455Y-211157419D02*
X215980074Y-211133609D01*
X185148498Y-170890752D02*
X185386593Y-170890752D01*
X185100879Y-171033609D02*
X185267545Y-170533609D01*
X185267545Y-170533609D02*
X185434212Y-171033609D01*
X185862783Y-171033609D02*
X185577069Y-171033609D01*
X185719926Y-171033609D02*
X185719926Y-170533609D01*
X185719926Y-170533609D02*
X185672307Y-170605038D01*
X185672307Y-170605038D02*
X185624688Y-170652657D01*
X185624688Y-170652657D02*
X185577069Y-170676466D01*
X186291354Y-170533609D02*
X186196116Y-170533609D01*
X186196116Y-170533609D02*
X186148497Y-170557419D01*
X186148497Y-170557419D02*
X186124687Y-170581228D01*
X186124687Y-170581228D02*
X186077068Y-170652657D01*
X186077068Y-170652657D02*
X186053259Y-170747895D01*
X186053259Y-170747895D02*
X186053259Y-170938371D01*
X186053259Y-170938371D02*
X186077068Y-170985990D01*
X186077068Y-170985990D02*
X186100878Y-171009800D01*
X186100878Y-171009800D02*
X186148497Y-171033609D01*
X186148497Y-171033609D02*
X186243735Y-171033609D01*
X186243735Y-171033609D02*
X186291354Y-171009800D01*
X186291354Y-171009800D02*
X186315163Y-170985990D01*
X186315163Y-170985990D02*
X186338973Y-170938371D01*
X186338973Y-170938371D02*
X186338973Y-170819323D01*
X186338973Y-170819323D02*
X186315163Y-170771704D01*
X186315163Y-170771704D02*
X186291354Y-170747895D01*
X186291354Y-170747895D02*
X186243735Y-170724085D01*
X186243735Y-170724085D02*
X186148497Y-170724085D01*
X186148497Y-170724085D02*
X186100878Y-170747895D01*
X186100878Y-170747895D02*
X186077068Y-170771704D01*
X186077068Y-170771704D02*
X186053259Y-170819323D01*
X185100878Y-206533609D02*
X185100878Y-206033609D01*
X185100878Y-206033609D02*
X185219926Y-206033609D01*
X185219926Y-206033609D02*
X185291354Y-206057419D01*
X185291354Y-206057419D02*
X185338973Y-206105038D01*
X185338973Y-206105038D02*
X185362783Y-206152657D01*
X185362783Y-206152657D02*
X185386592Y-206247895D01*
X185386592Y-206247895D02*
X185386592Y-206319323D01*
X185386592Y-206319323D02*
X185362783Y-206414561D01*
X185362783Y-206414561D02*
X185338973Y-206462180D01*
X185338973Y-206462180D02*
X185291354Y-206509800D01*
X185291354Y-206509800D02*
X185219926Y-206533609D01*
X185219926Y-206533609D02*
X185100878Y-206533609D01*
X185862783Y-206533609D02*
X185577069Y-206533609D01*
X185719926Y-206533609D02*
X185719926Y-206033609D01*
X185719926Y-206033609D02*
X185672307Y-206105038D01*
X185672307Y-206105038D02*
X185624688Y-206152657D01*
X185624688Y-206152657D02*
X185577069Y-206176466D01*
X186338973Y-206533609D02*
X186053259Y-206533609D01*
X186196116Y-206533609D02*
X186196116Y-206033609D01*
X186196116Y-206033609D02*
X186148497Y-206105038D01*
X186148497Y-206105038D02*
X186100878Y-206152657D01*
X186100878Y-206152657D02*
X186053259Y-206176466D01*
X215411027Y-147990752D02*
X215649122Y-147990752D01*
X215363408Y-148133609D02*
X215530074Y-147633609D01*
X215530074Y-147633609D02*
X215696741Y-148133609D01*
X215839598Y-147681228D02*
X215863407Y-147657419D01*
X215863407Y-147657419D02*
X215911026Y-147633609D01*
X215911026Y-147633609D02*
X216030074Y-147633609D01*
X216030074Y-147633609D02*
X216077693Y-147657419D01*
X216077693Y-147657419D02*
X216101502Y-147681228D01*
X216101502Y-147681228D02*
X216125312Y-147728847D01*
X216125312Y-147728847D02*
X216125312Y-147776466D01*
X216125312Y-147776466D02*
X216101502Y-147847895D01*
X216101502Y-147847895D02*
X215815788Y-148133609D01*
X215815788Y-148133609D02*
X216125312Y-148133609D01*
X214784836Y-165693133D02*
X215165789Y-165693133D01*
X215403884Y-165883609D02*
X215403884Y-165383609D01*
X215641979Y-165883609D02*
X215641979Y-165383609D01*
X215641979Y-165383609D02*
X215832455Y-165383609D01*
X215832455Y-165383609D02*
X215880074Y-165407419D01*
X215880074Y-165407419D02*
X215903884Y-165431228D01*
X215903884Y-165431228D02*
X215927693Y-165478847D01*
X215927693Y-165478847D02*
X215927693Y-165550276D01*
X215927693Y-165550276D02*
X215903884Y-165597895D01*
X215903884Y-165597895D02*
X215880074Y-165621704D01*
X215880074Y-165621704D02*
X215832455Y-165645514D01*
X215832455Y-165645514D02*
X215641979Y-165645514D01*
X216380074Y-165883609D02*
X216141979Y-165883609D01*
X216141979Y-165883609D02*
X216141979Y-165383609D01*
X216522932Y-165431228D02*
X216546741Y-165407419D01*
X216546741Y-165407419D02*
X216594360Y-165383609D01*
X216594360Y-165383609D02*
X216713408Y-165383609D01*
X216713408Y-165383609D02*
X216761027Y-165407419D01*
X216761027Y-165407419D02*
X216784836Y-165431228D01*
X216784836Y-165431228D02*
X216808646Y-165478847D01*
X216808646Y-165478847D02*
X216808646Y-165526466D01*
X216808646Y-165526466D02*
X216784836Y-165597895D01*
X216784836Y-165597895D02*
X216499122Y-165883609D01*
X216499122Y-165883609D02*
X216808646Y-165883609D01*
X215384836Y-219233609D02*
X215384836Y-218733609D01*
X215384836Y-218733609D02*
X215503884Y-218733609D01*
X215503884Y-218733609D02*
X215575312Y-218757419D01*
X215575312Y-218757419D02*
X215622931Y-218805038D01*
X215622931Y-218805038D02*
X215646741Y-218852657D01*
X215646741Y-218852657D02*
X215670550Y-218947895D01*
X215670550Y-218947895D02*
X215670550Y-219019323D01*
X215670550Y-219019323D02*
X215646741Y-219114561D01*
X215646741Y-219114561D02*
X215622931Y-219162180D01*
X215622931Y-219162180D02*
X215575312Y-219209800D01*
X215575312Y-219209800D02*
X215503884Y-219233609D01*
X215503884Y-219233609D02*
X215384836Y-219233609D01*
X215837217Y-218733609D02*
X216146741Y-218733609D01*
X216146741Y-218733609D02*
X215980074Y-218924085D01*
X215980074Y-218924085D02*
X216051503Y-218924085D01*
X216051503Y-218924085D02*
X216099122Y-218947895D01*
X216099122Y-218947895D02*
X216122931Y-218971704D01*
X216122931Y-218971704D02*
X216146741Y-219019323D01*
X216146741Y-219019323D02*
X216146741Y-219138371D01*
X216146741Y-219138371D02*
X216122931Y-219185990D01*
X216122931Y-219185990D02*
X216099122Y-219209800D01*
X216099122Y-219209800D02*
X216051503Y-219233609D01*
X216051503Y-219233609D02*
X215908646Y-219233609D01*
X215908646Y-219233609D02*
X215861027Y-219209800D01*
X215861027Y-219209800D02*
X215837217Y-219185990D01*
X214884836Y-178443133D02*
X215265789Y-178443133D01*
X215789598Y-178633609D02*
X215622932Y-178395514D01*
X215503884Y-178633609D02*
X215503884Y-178133609D01*
X215503884Y-178133609D02*
X215694360Y-178133609D01*
X215694360Y-178133609D02*
X215741979Y-178157419D01*
X215741979Y-178157419D02*
X215765789Y-178181228D01*
X215765789Y-178181228D02*
X215789598Y-178228847D01*
X215789598Y-178228847D02*
X215789598Y-178300276D01*
X215789598Y-178300276D02*
X215765789Y-178347895D01*
X215765789Y-178347895D02*
X215741979Y-178371704D01*
X215741979Y-178371704D02*
X215694360Y-178395514D01*
X215694360Y-178395514D02*
X215503884Y-178395514D01*
X215980075Y-178609800D02*
X216051503Y-178633609D01*
X216051503Y-178633609D02*
X216170551Y-178633609D01*
X216170551Y-178633609D02*
X216218170Y-178609800D01*
X216218170Y-178609800D02*
X216241979Y-178585990D01*
X216241979Y-178585990D02*
X216265789Y-178538371D01*
X216265789Y-178538371D02*
X216265789Y-178490752D01*
X216265789Y-178490752D02*
X216241979Y-178443133D01*
X216241979Y-178443133D02*
X216218170Y-178419323D01*
X216218170Y-178419323D02*
X216170551Y-178395514D01*
X216170551Y-178395514D02*
X216075313Y-178371704D01*
X216075313Y-178371704D02*
X216027694Y-178347895D01*
X216027694Y-178347895D02*
X216003884Y-178324085D01*
X216003884Y-178324085D02*
X215980075Y-178276466D01*
X215980075Y-178276466D02*
X215980075Y-178228847D01*
X215980075Y-178228847D02*
X216003884Y-178181228D01*
X216003884Y-178181228D02*
X216027694Y-178157419D01*
X216027694Y-178157419D02*
X216075313Y-178133609D01*
X216075313Y-178133609D02*
X216194360Y-178133609D01*
X216194360Y-178133609D02*
X216265789Y-178157419D01*
X216408646Y-178133609D02*
X216694360Y-178133609D01*
X216551503Y-178633609D02*
X216551503Y-178133609D01*
X185374688Y-142890752D02*
X185612783Y-142890752D01*
X185327069Y-143033609D02*
X185493735Y-142533609D01*
X185493735Y-142533609D02*
X185660402Y-143033609D01*
X186065163Y-142533609D02*
X185827068Y-142533609D01*
X185827068Y-142533609D02*
X185803259Y-142771704D01*
X185803259Y-142771704D02*
X185827068Y-142747895D01*
X185827068Y-142747895D02*
X185874687Y-142724085D01*
X185874687Y-142724085D02*
X185993735Y-142724085D01*
X185993735Y-142724085D02*
X186041354Y-142747895D01*
X186041354Y-142747895D02*
X186065163Y-142771704D01*
X186065163Y-142771704D02*
X186088973Y-142819323D01*
X186088973Y-142819323D02*
X186088973Y-142938371D01*
X186088973Y-142938371D02*
X186065163Y-142985990D01*
X186065163Y-142985990D02*
X186041354Y-143009800D01*
X186041354Y-143009800D02*
X185993735Y-143033609D01*
X185993735Y-143033609D02*
X185874687Y-143033609D01*
X185874687Y-143033609D02*
X185827068Y-143009800D01*
X185827068Y-143009800D02*
X185803259Y-142985990D01*
X185148498Y-186090752D02*
X185386593Y-186090752D01*
X185100879Y-186233609D02*
X185267545Y-185733609D01*
X185267545Y-185733609D02*
X185434212Y-186233609D01*
X185577069Y-185781228D02*
X185600878Y-185757419D01*
X185600878Y-185757419D02*
X185648497Y-185733609D01*
X185648497Y-185733609D02*
X185767545Y-185733609D01*
X185767545Y-185733609D02*
X185815164Y-185757419D01*
X185815164Y-185757419D02*
X185838973Y-185781228D01*
X185838973Y-185781228D02*
X185862783Y-185828847D01*
X185862783Y-185828847D02*
X185862783Y-185876466D01*
X185862783Y-185876466D02*
X185838973Y-185947895D01*
X185838973Y-185947895D02*
X185553259Y-186233609D01*
X185553259Y-186233609D02*
X185862783Y-186233609D01*
X186338973Y-186233609D02*
X186053259Y-186233609D01*
X186196116Y-186233609D02*
X186196116Y-185733609D01*
X186196116Y-185733609D02*
X186148497Y-185805038D01*
X186148497Y-185805038D02*
X186100878Y-185852657D01*
X186100878Y-185852657D02*
X186053259Y-185876466D01*
X215351503Y-155471704D02*
X215184836Y-155471704D01*
X215184836Y-155733609D02*
X215184836Y-155233609D01*
X215184836Y-155233609D02*
X215422931Y-155233609D01*
X215899121Y-155685990D02*
X215875312Y-155709800D01*
X215875312Y-155709800D02*
X215803883Y-155733609D01*
X215803883Y-155733609D02*
X215756264Y-155733609D01*
X215756264Y-155733609D02*
X215684836Y-155709800D01*
X215684836Y-155709800D02*
X215637217Y-155662180D01*
X215637217Y-155662180D02*
X215613407Y-155614561D01*
X215613407Y-155614561D02*
X215589598Y-155519323D01*
X215589598Y-155519323D02*
X215589598Y-155447895D01*
X215589598Y-155447895D02*
X215613407Y-155352657D01*
X215613407Y-155352657D02*
X215637217Y-155305038D01*
X215637217Y-155305038D02*
X215684836Y-155257419D01*
X215684836Y-155257419D02*
X215756264Y-155233609D01*
X215756264Y-155233609D02*
X215803883Y-155233609D01*
X215803883Y-155233609D02*
X215875312Y-155257419D01*
X215875312Y-155257419D02*
X215899121Y-155281228D01*
X216375312Y-155733609D02*
X216089598Y-155733609D01*
X216232455Y-155733609D02*
X216232455Y-155233609D01*
X216232455Y-155233609D02*
X216184836Y-155305038D01*
X216184836Y-155305038D02*
X216137217Y-155352657D01*
X216137217Y-155352657D02*
X216089598Y-155376466D01*
X214334836Y-198743133D02*
X214715789Y-198743133D01*
X214953884Y-198933609D02*
X214953884Y-198433609D01*
X214953884Y-198433609D02*
X215072932Y-198433609D01*
X215072932Y-198433609D02*
X215144360Y-198457419D01*
X215144360Y-198457419D02*
X215191979Y-198505038D01*
X215191979Y-198505038D02*
X215215789Y-198552657D01*
X215215789Y-198552657D02*
X215239598Y-198647895D01*
X215239598Y-198647895D02*
X215239598Y-198719323D01*
X215239598Y-198719323D02*
X215215789Y-198814561D01*
X215215789Y-198814561D02*
X215191979Y-198862180D01*
X215191979Y-198862180D02*
X215144360Y-198909800D01*
X215144360Y-198909800D02*
X215072932Y-198933609D01*
X215072932Y-198933609D02*
X214953884Y-198933609D01*
X215382456Y-198433609D02*
X215668170Y-198433609D01*
X215525313Y-198933609D02*
X215525313Y-198433609D01*
X215811027Y-198790752D02*
X216049122Y-198790752D01*
X215763408Y-198933609D02*
X215930074Y-198433609D01*
X215930074Y-198433609D02*
X216096741Y-198933609D01*
X216549121Y-198885990D02*
X216525312Y-198909800D01*
X216525312Y-198909800D02*
X216453883Y-198933609D01*
X216453883Y-198933609D02*
X216406264Y-198933609D01*
X216406264Y-198933609D02*
X216334836Y-198909800D01*
X216334836Y-198909800D02*
X216287217Y-198862180D01*
X216287217Y-198862180D02*
X216263407Y-198814561D01*
X216263407Y-198814561D02*
X216239598Y-198719323D01*
X216239598Y-198719323D02*
X216239598Y-198647895D01*
X216239598Y-198647895D02*
X216263407Y-198552657D01*
X216263407Y-198552657D02*
X216287217Y-198505038D01*
X216287217Y-198505038D02*
X216334836Y-198457419D01*
X216334836Y-198457419D02*
X216406264Y-198433609D01*
X216406264Y-198433609D02*
X216453883Y-198433609D01*
X216453883Y-198433609D02*
X216525312Y-198457419D01*
X216525312Y-198457419D02*
X216549121Y-198481228D01*
X216763407Y-198933609D02*
X216763407Y-198433609D01*
X217049121Y-198933609D02*
X216834836Y-198647895D01*
X217049121Y-198433609D02*
X216763407Y-198719323D01*
X214784836Y-206343133D02*
X215165789Y-206343133D01*
X215403884Y-206033609D02*
X215403884Y-206438371D01*
X215403884Y-206438371D02*
X215427694Y-206485990D01*
X215427694Y-206485990D02*
X215451503Y-206509800D01*
X215451503Y-206509800D02*
X215499122Y-206533609D01*
X215499122Y-206533609D02*
X215594360Y-206533609D01*
X215594360Y-206533609D02*
X215641979Y-206509800D01*
X215641979Y-206509800D02*
X215665789Y-206485990D01*
X215665789Y-206485990D02*
X215689598Y-206438371D01*
X215689598Y-206438371D02*
X215689598Y-206033609D01*
X215927694Y-206533609D02*
X215927694Y-206033609D01*
X215927694Y-206033609D02*
X216046742Y-206033609D01*
X216046742Y-206033609D02*
X216118170Y-206057419D01*
X216118170Y-206057419D02*
X216165789Y-206105038D01*
X216165789Y-206105038D02*
X216189599Y-206152657D01*
X216189599Y-206152657D02*
X216213408Y-206247895D01*
X216213408Y-206247895D02*
X216213408Y-206319323D01*
X216213408Y-206319323D02*
X216189599Y-206414561D01*
X216189599Y-206414561D02*
X216165789Y-206462180D01*
X216165789Y-206462180D02*
X216118170Y-206509800D01*
X216118170Y-206509800D02*
X216046742Y-206533609D01*
X216046742Y-206533609D02*
X215927694Y-206533609D01*
X216403885Y-206509800D02*
X216475313Y-206533609D01*
X216475313Y-206533609D02*
X216594361Y-206533609D01*
X216594361Y-206533609D02*
X216641980Y-206509800D01*
X216641980Y-206509800D02*
X216665789Y-206485990D01*
X216665789Y-206485990D02*
X216689599Y-206438371D01*
X216689599Y-206438371D02*
X216689599Y-206390752D01*
X216689599Y-206390752D02*
X216665789Y-206343133D01*
X216665789Y-206343133D02*
X216641980Y-206319323D01*
X216641980Y-206319323D02*
X216594361Y-206295514D01*
X216594361Y-206295514D02*
X216499123Y-206271704D01*
X216499123Y-206271704D02*
X216451504Y-206247895D01*
X216451504Y-206247895D02*
X216427694Y-206224085D01*
X216427694Y-206224085D02*
X216403885Y-206176466D01*
X216403885Y-206176466D02*
X216403885Y-206128847D01*
X216403885Y-206128847D02*
X216427694Y-206081228D01*
X216427694Y-206081228D02*
X216451504Y-206057419D01*
X216451504Y-206057419D02*
X216499123Y-206033609D01*
X216499123Y-206033609D02*
X216618170Y-206033609D01*
X216618170Y-206033609D02*
X216689599Y-206057419D01*
X214784836Y-175843133D02*
X215165789Y-175843133D01*
X215332456Y-175533609D02*
X215499122Y-176033609D01*
X215499122Y-176033609D02*
X215665789Y-175533609D01*
X215832455Y-176033609D02*
X215832455Y-175533609D01*
X215832455Y-175533609D02*
X215999122Y-175890752D01*
X215999122Y-175890752D02*
X216165788Y-175533609D01*
X216165788Y-175533609D02*
X216165788Y-176033609D01*
X216380075Y-175890752D02*
X216618170Y-175890752D01*
X216332456Y-176033609D02*
X216499122Y-175533609D01*
X216499122Y-175533609D02*
X216665789Y-176033609D01*
X185100878Y-201433609D02*
X185100878Y-200933609D01*
X185100878Y-200933609D02*
X185219926Y-200933609D01*
X185219926Y-200933609D02*
X185291354Y-200957419D01*
X185291354Y-200957419D02*
X185338973Y-201005038D01*
X185338973Y-201005038D02*
X185362783Y-201052657D01*
X185362783Y-201052657D02*
X185386592Y-201147895D01*
X185386592Y-201147895D02*
X185386592Y-201219323D01*
X185386592Y-201219323D02*
X185362783Y-201314561D01*
X185362783Y-201314561D02*
X185338973Y-201362180D01*
X185338973Y-201362180D02*
X185291354Y-201409800D01*
X185291354Y-201409800D02*
X185219926Y-201433609D01*
X185219926Y-201433609D02*
X185100878Y-201433609D01*
X185862783Y-201433609D02*
X185577069Y-201433609D01*
X185719926Y-201433609D02*
X185719926Y-200933609D01*
X185719926Y-200933609D02*
X185672307Y-201005038D01*
X185672307Y-201005038D02*
X185624688Y-201052657D01*
X185624688Y-201052657D02*
X185577069Y-201076466D01*
X186029449Y-200933609D02*
X186338973Y-200933609D01*
X186338973Y-200933609D02*
X186172306Y-201124085D01*
X186172306Y-201124085D02*
X186243735Y-201124085D01*
X186243735Y-201124085D02*
X186291354Y-201147895D01*
X186291354Y-201147895D02*
X186315163Y-201171704D01*
X186315163Y-201171704D02*
X186338973Y-201219323D01*
X186338973Y-201219323D02*
X186338973Y-201338371D01*
X186338973Y-201338371D02*
X186315163Y-201385990D01*
X186315163Y-201385990D02*
X186291354Y-201409800D01*
X186291354Y-201409800D02*
X186243735Y-201433609D01*
X186243735Y-201433609D02*
X186100878Y-201433609D01*
X186100878Y-201433609D02*
X186053259Y-201409800D01*
X186053259Y-201409800D02*
X186029449Y-201385990D01*
X185148498Y-163290752D02*
X185386593Y-163290752D01*
X185100879Y-163433609D02*
X185267545Y-162933609D01*
X185267545Y-162933609D02*
X185434212Y-163433609D01*
X185862783Y-163433609D02*
X185577069Y-163433609D01*
X185719926Y-163433609D02*
X185719926Y-162933609D01*
X185719926Y-162933609D02*
X185672307Y-163005038D01*
X185672307Y-163005038D02*
X185624688Y-163052657D01*
X185624688Y-163052657D02*
X185577069Y-163076466D01*
X186029449Y-162933609D02*
X186338973Y-162933609D01*
X186338973Y-162933609D02*
X186172306Y-163124085D01*
X186172306Y-163124085D02*
X186243735Y-163124085D01*
X186243735Y-163124085D02*
X186291354Y-163147895D01*
X186291354Y-163147895D02*
X186315163Y-163171704D01*
X186315163Y-163171704D02*
X186338973Y-163219323D01*
X186338973Y-163219323D02*
X186338973Y-163338371D01*
X186338973Y-163338371D02*
X186315163Y-163385990D01*
X186315163Y-163385990D02*
X186291354Y-163409800D01*
X186291354Y-163409800D02*
X186243735Y-163433609D01*
X186243735Y-163433609D02*
X186100878Y-163433609D01*
X186100878Y-163433609D02*
X186053259Y-163409800D01*
X186053259Y-163409800D02*
X186029449Y-163385990D01*
X215384836Y-216733609D02*
X215384836Y-216233609D01*
X215384836Y-216233609D02*
X215503884Y-216233609D01*
X215503884Y-216233609D02*
X215575312Y-216257419D01*
X215575312Y-216257419D02*
X215622931Y-216305038D01*
X215622931Y-216305038D02*
X215646741Y-216352657D01*
X215646741Y-216352657D02*
X215670550Y-216447895D01*
X215670550Y-216447895D02*
X215670550Y-216519323D01*
X215670550Y-216519323D02*
X215646741Y-216614561D01*
X215646741Y-216614561D02*
X215622931Y-216662180D01*
X215622931Y-216662180D02*
X215575312Y-216709800D01*
X215575312Y-216709800D02*
X215503884Y-216733609D01*
X215503884Y-216733609D02*
X215384836Y-216733609D01*
X215861027Y-216281228D02*
X215884836Y-216257419D01*
X215884836Y-216257419D02*
X215932455Y-216233609D01*
X215932455Y-216233609D02*
X216051503Y-216233609D01*
X216051503Y-216233609D02*
X216099122Y-216257419D01*
X216099122Y-216257419D02*
X216122931Y-216281228D01*
X216122931Y-216281228D02*
X216146741Y-216328847D01*
X216146741Y-216328847D02*
X216146741Y-216376466D01*
X216146741Y-216376466D02*
X216122931Y-216447895D01*
X216122931Y-216447895D02*
X215837217Y-216733609D01*
X215837217Y-216733609D02*
X216146741Y-216733609D01*
X215384836Y-214133609D02*
X215384836Y-213633609D01*
X215384836Y-213633609D02*
X215503884Y-213633609D01*
X215503884Y-213633609D02*
X215575312Y-213657419D01*
X215575312Y-213657419D02*
X215622931Y-213705038D01*
X215622931Y-213705038D02*
X215646741Y-213752657D01*
X215646741Y-213752657D02*
X215670550Y-213847895D01*
X215670550Y-213847895D02*
X215670550Y-213919323D01*
X215670550Y-213919323D02*
X215646741Y-214014561D01*
X215646741Y-214014561D02*
X215622931Y-214062180D01*
X215622931Y-214062180D02*
X215575312Y-214109800D01*
X215575312Y-214109800D02*
X215503884Y-214133609D01*
X215503884Y-214133609D02*
X215384836Y-214133609D01*
X216146741Y-214133609D02*
X215861027Y-214133609D01*
X216003884Y-214133609D02*
X216003884Y-213633609D01*
X216003884Y-213633609D02*
X215956265Y-213705038D01*
X215956265Y-213705038D02*
X215908646Y-213752657D01*
X215908646Y-213752657D02*
X215861027Y-213776466D01*
X214684836Y-180943133D02*
X215065789Y-180943133D01*
X215303884Y-181133609D02*
X215303884Y-180633609D01*
X215303884Y-180871704D02*
X215589598Y-180871704D01*
X215589598Y-181133609D02*
X215589598Y-180633609D01*
X215803885Y-180990752D02*
X216041980Y-180990752D01*
X215756266Y-181133609D02*
X215922932Y-180633609D01*
X215922932Y-180633609D02*
X216089599Y-181133609D01*
X216494360Y-181133609D02*
X216256265Y-181133609D01*
X216256265Y-181133609D02*
X216256265Y-180633609D01*
X216589599Y-180633609D02*
X216875313Y-180633609D01*
X216732456Y-181133609D02*
X216732456Y-180633609D01*
X185374688Y-153090752D02*
X185612783Y-153090752D01*
X185327069Y-153233609D02*
X185493735Y-152733609D01*
X185493735Y-152733609D02*
X185660402Y-153233609D01*
X185850878Y-153233609D02*
X185946116Y-153233609D01*
X185946116Y-153233609D02*
X185993735Y-153209800D01*
X185993735Y-153209800D02*
X186017544Y-153185990D01*
X186017544Y-153185990D02*
X186065163Y-153114561D01*
X186065163Y-153114561D02*
X186088973Y-153019323D01*
X186088973Y-153019323D02*
X186088973Y-152828847D01*
X186088973Y-152828847D02*
X186065163Y-152781228D01*
X186065163Y-152781228D02*
X186041354Y-152757419D01*
X186041354Y-152757419D02*
X185993735Y-152733609D01*
X185993735Y-152733609D02*
X185898497Y-152733609D01*
X185898497Y-152733609D02*
X185850878Y-152757419D01*
X185850878Y-152757419D02*
X185827068Y-152781228D01*
X185827068Y-152781228D02*
X185803259Y-152828847D01*
X185803259Y-152828847D02*
X185803259Y-152947895D01*
X185803259Y-152947895D02*
X185827068Y-152995514D01*
X185827068Y-152995514D02*
X185850878Y-153019323D01*
X185850878Y-153019323D02*
X185898497Y-153043133D01*
X185898497Y-153043133D02*
X185993735Y-153043133D01*
X185993735Y-153043133D02*
X186041354Y-153019323D01*
X186041354Y-153019323D02*
X186065163Y-152995514D01*
X186065163Y-152995514D02*
X186088973Y-152947895D01*
D12*
X214800641Y-182720916D02*
X214991118Y-182720916D01*
X214895879Y-182816154D02*
X214895879Y-182625678D01*
D10*
X185100878Y-198933609D02*
X185100878Y-198433609D01*
X185100878Y-198433609D02*
X185219926Y-198433609D01*
X185219926Y-198433609D02*
X185291354Y-198457419D01*
X185291354Y-198457419D02*
X185338973Y-198505038D01*
X185338973Y-198505038D02*
X185362783Y-198552657D01*
X185362783Y-198552657D02*
X185386592Y-198647895D01*
X185386592Y-198647895D02*
X185386592Y-198719323D01*
X185386592Y-198719323D02*
X185362783Y-198814561D01*
X185362783Y-198814561D02*
X185338973Y-198862180D01*
X185338973Y-198862180D02*
X185291354Y-198909800D01*
X185291354Y-198909800D02*
X185219926Y-198933609D01*
X185219926Y-198933609D02*
X185100878Y-198933609D01*
X185862783Y-198933609D02*
X185577069Y-198933609D01*
X185719926Y-198933609D02*
X185719926Y-198433609D01*
X185719926Y-198433609D02*
X185672307Y-198505038D01*
X185672307Y-198505038D02*
X185624688Y-198552657D01*
X185624688Y-198552657D02*
X185577069Y-198576466D01*
X186291354Y-198600276D02*
X186291354Y-198933609D01*
X186172306Y-198409800D02*
X186053259Y-198766942D01*
X186053259Y-198766942D02*
X186362782Y-198766942D01*
X214734836Y-160643133D02*
X215115789Y-160643133D01*
X215353884Y-160833609D02*
X215353884Y-160333609D01*
X215591979Y-160833609D02*
X215591979Y-160333609D01*
X215591979Y-160333609D02*
X215782455Y-160333609D01*
X215782455Y-160333609D02*
X215830074Y-160357419D01*
X215830074Y-160357419D02*
X215853884Y-160381228D01*
X215853884Y-160381228D02*
X215877693Y-160428847D01*
X215877693Y-160428847D02*
X215877693Y-160500276D01*
X215877693Y-160500276D02*
X215853884Y-160547895D01*
X215853884Y-160547895D02*
X215830074Y-160571704D01*
X215830074Y-160571704D02*
X215782455Y-160595514D01*
X215782455Y-160595514D02*
X215591979Y-160595514D01*
X216330074Y-160833609D02*
X216091979Y-160833609D01*
X216091979Y-160833609D02*
X216091979Y-160333609D01*
X216591979Y-160333609D02*
X216639598Y-160333609D01*
X216639598Y-160333609D02*
X216687217Y-160357419D01*
X216687217Y-160357419D02*
X216711027Y-160381228D01*
X216711027Y-160381228D02*
X216734836Y-160428847D01*
X216734836Y-160428847D02*
X216758646Y-160524085D01*
X216758646Y-160524085D02*
X216758646Y-160643133D01*
X216758646Y-160643133D02*
X216734836Y-160738371D01*
X216734836Y-160738371D02*
X216711027Y-160785990D01*
X216711027Y-160785990D02*
X216687217Y-160809800D01*
X216687217Y-160809800D02*
X216639598Y-160833609D01*
X216639598Y-160833609D02*
X216591979Y-160833609D01*
X216591979Y-160833609D02*
X216544360Y-160809800D01*
X216544360Y-160809800D02*
X216520551Y-160785990D01*
X216520551Y-160785990D02*
X216496741Y-160738371D01*
X216496741Y-160738371D02*
X216472932Y-160643133D01*
X216472932Y-160643133D02*
X216472932Y-160524085D01*
X216472932Y-160524085D02*
X216496741Y-160428847D01*
X216496741Y-160428847D02*
X216520551Y-160381228D01*
X216520551Y-160381228D02*
X216544360Y-160357419D01*
X216544360Y-160357419D02*
X216591979Y-160333609D01*
X214984836Y-201193133D02*
X215365789Y-201193133D01*
X215889598Y-201383609D02*
X215722932Y-201145514D01*
X215603884Y-201383609D02*
X215603884Y-200883609D01*
X215603884Y-200883609D02*
X215794360Y-200883609D01*
X215794360Y-200883609D02*
X215841979Y-200907419D01*
X215841979Y-200907419D02*
X215865789Y-200931228D01*
X215865789Y-200931228D02*
X215889598Y-200978847D01*
X215889598Y-200978847D02*
X215889598Y-201050276D01*
X215889598Y-201050276D02*
X215865789Y-201097895D01*
X215865789Y-201097895D02*
X215841979Y-201121704D01*
X215841979Y-201121704D02*
X215794360Y-201145514D01*
X215794360Y-201145514D02*
X215603884Y-201145514D01*
X216056265Y-200883609D02*
X216175313Y-201383609D01*
X216175313Y-201383609D02*
X216270551Y-201026466D01*
X216270551Y-201026466D02*
X216365789Y-201383609D01*
X216365789Y-201383609D02*
X216484837Y-200883609D01*
X215401503Y-152971704D02*
X215234836Y-152971704D01*
X215234836Y-153233609D02*
X215234836Y-152733609D01*
X215234836Y-152733609D02*
X215472931Y-152733609D01*
X215949121Y-153185990D02*
X215925312Y-153209800D01*
X215925312Y-153209800D02*
X215853883Y-153233609D01*
X215853883Y-153233609D02*
X215806264Y-153233609D01*
X215806264Y-153233609D02*
X215734836Y-153209800D01*
X215734836Y-153209800D02*
X215687217Y-153162180D01*
X215687217Y-153162180D02*
X215663407Y-153114561D01*
X215663407Y-153114561D02*
X215639598Y-153019323D01*
X215639598Y-153019323D02*
X215639598Y-152947895D01*
X215639598Y-152947895D02*
X215663407Y-152852657D01*
X215663407Y-152852657D02*
X215687217Y-152805038D01*
X215687217Y-152805038D02*
X215734836Y-152757419D01*
X215734836Y-152757419D02*
X215806264Y-152733609D01*
X215806264Y-152733609D02*
X215853883Y-152733609D01*
X215853883Y-152733609D02*
X215925312Y-152757419D01*
X215925312Y-152757419D02*
X215949121Y-152781228D01*
X216258645Y-152733609D02*
X216306264Y-152733609D01*
X216306264Y-152733609D02*
X216353883Y-152757419D01*
X216353883Y-152757419D02*
X216377693Y-152781228D01*
X216377693Y-152781228D02*
X216401502Y-152828847D01*
X216401502Y-152828847D02*
X216425312Y-152924085D01*
X216425312Y-152924085D02*
X216425312Y-153043133D01*
X216425312Y-153043133D02*
X216401502Y-153138371D01*
X216401502Y-153138371D02*
X216377693Y-153185990D01*
X216377693Y-153185990D02*
X216353883Y-153209800D01*
X216353883Y-153209800D02*
X216306264Y-153233609D01*
X216306264Y-153233609D02*
X216258645Y-153233609D01*
X216258645Y-153233609D02*
X216211026Y-153209800D01*
X216211026Y-153209800D02*
X216187217Y-153185990D01*
X216187217Y-153185990D02*
X216163407Y-153138371D01*
X216163407Y-153138371D02*
X216139598Y-153043133D01*
X216139598Y-153043133D02*
X216139598Y-152924085D01*
X216139598Y-152924085D02*
X216163407Y-152828847D01*
X216163407Y-152828847D02*
X216187217Y-152781228D01*
X216187217Y-152781228D02*
X216211026Y-152757419D01*
X216211026Y-152757419D02*
X216258645Y-152733609D01*
X185377068Y-216733609D02*
X185377068Y-216233609D01*
X185377068Y-216233609D02*
X185496116Y-216233609D01*
X185496116Y-216233609D02*
X185567544Y-216257419D01*
X185567544Y-216257419D02*
X185615163Y-216305038D01*
X185615163Y-216305038D02*
X185638973Y-216352657D01*
X185638973Y-216352657D02*
X185662782Y-216447895D01*
X185662782Y-216447895D02*
X185662782Y-216519323D01*
X185662782Y-216519323D02*
X185638973Y-216614561D01*
X185638973Y-216614561D02*
X185615163Y-216662180D01*
X185615163Y-216662180D02*
X185567544Y-216709800D01*
X185567544Y-216709800D02*
X185496116Y-216733609D01*
X185496116Y-216733609D02*
X185377068Y-216733609D01*
X185829449Y-216233609D02*
X186162782Y-216233609D01*
X186162782Y-216233609D02*
X185948497Y-216733609D01*
X185374688Y-147990752D02*
X185612783Y-147990752D01*
X185327069Y-148133609D02*
X185493735Y-147633609D01*
X185493735Y-147633609D02*
X185660402Y-148133609D01*
X185779449Y-147633609D02*
X186112782Y-147633609D01*
X186112782Y-147633609D02*
X185898497Y-148133609D01*
X214784836Y-163143133D02*
X215165789Y-163143133D01*
X215403884Y-163333609D02*
X215403884Y-162833609D01*
X215641979Y-163333609D02*
X215641979Y-162833609D01*
X215641979Y-162833609D02*
X215832455Y-162833609D01*
X215832455Y-162833609D02*
X215880074Y-162857419D01*
X215880074Y-162857419D02*
X215903884Y-162881228D01*
X215903884Y-162881228D02*
X215927693Y-162928847D01*
X215927693Y-162928847D02*
X215927693Y-163000276D01*
X215927693Y-163000276D02*
X215903884Y-163047895D01*
X215903884Y-163047895D02*
X215880074Y-163071704D01*
X215880074Y-163071704D02*
X215832455Y-163095514D01*
X215832455Y-163095514D02*
X215641979Y-163095514D01*
X216380074Y-163333609D02*
X216141979Y-163333609D01*
X216141979Y-163333609D02*
X216141979Y-162833609D01*
X216808646Y-163333609D02*
X216522932Y-163333609D01*
X216665789Y-163333609D02*
X216665789Y-162833609D01*
X216665789Y-162833609D02*
X216618170Y-162905038D01*
X216618170Y-162905038D02*
X216570551Y-162952657D01*
X216570551Y-162952657D02*
X216522932Y-162976466D01*
X214234836Y-193693133D02*
X214615789Y-193693133D01*
X215020551Y-193621704D02*
X215091979Y-193645514D01*
X215091979Y-193645514D02*
X215115789Y-193669323D01*
X215115789Y-193669323D02*
X215139598Y-193716942D01*
X215139598Y-193716942D02*
X215139598Y-193788371D01*
X215139598Y-193788371D02*
X215115789Y-193835990D01*
X215115789Y-193835990D02*
X215091979Y-193859800D01*
X215091979Y-193859800D02*
X215044360Y-193883609D01*
X215044360Y-193883609D02*
X214853884Y-193883609D01*
X214853884Y-193883609D02*
X214853884Y-193383609D01*
X214853884Y-193383609D02*
X215020551Y-193383609D01*
X215020551Y-193383609D02*
X215068170Y-193407419D01*
X215068170Y-193407419D02*
X215091979Y-193431228D01*
X215091979Y-193431228D02*
X215115789Y-193478847D01*
X215115789Y-193478847D02*
X215115789Y-193526466D01*
X215115789Y-193526466D02*
X215091979Y-193574085D01*
X215091979Y-193574085D02*
X215068170Y-193597895D01*
X215068170Y-193597895D02*
X215020551Y-193621704D01*
X215020551Y-193621704D02*
X214853884Y-193621704D01*
X215615789Y-193407419D02*
X215568170Y-193383609D01*
X215568170Y-193383609D02*
X215496741Y-193383609D01*
X215496741Y-193383609D02*
X215425313Y-193407419D01*
X215425313Y-193407419D02*
X215377694Y-193455038D01*
X215377694Y-193455038D02*
X215353884Y-193502657D01*
X215353884Y-193502657D02*
X215330075Y-193597895D01*
X215330075Y-193597895D02*
X215330075Y-193669323D01*
X215330075Y-193669323D02*
X215353884Y-193764561D01*
X215353884Y-193764561D02*
X215377694Y-193812180D01*
X215377694Y-193812180D02*
X215425313Y-193859800D01*
X215425313Y-193859800D02*
X215496741Y-193883609D01*
X215496741Y-193883609D02*
X215544360Y-193883609D01*
X215544360Y-193883609D02*
X215615789Y-193859800D01*
X215615789Y-193859800D02*
X215639598Y-193835990D01*
X215639598Y-193835990D02*
X215639598Y-193669323D01*
X215639598Y-193669323D02*
X215544360Y-193669323D01*
X215830075Y-193740752D02*
X216068170Y-193740752D01*
X215782456Y-193883609D02*
X215949122Y-193383609D01*
X215949122Y-193383609D02*
X216115789Y-193883609D01*
X216568169Y-193835990D02*
X216544360Y-193859800D01*
X216544360Y-193859800D02*
X216472931Y-193883609D01*
X216472931Y-193883609D02*
X216425312Y-193883609D01*
X216425312Y-193883609D02*
X216353884Y-193859800D01*
X216353884Y-193859800D02*
X216306265Y-193812180D01*
X216306265Y-193812180D02*
X216282455Y-193764561D01*
X216282455Y-193764561D02*
X216258646Y-193669323D01*
X216258646Y-193669323D02*
X216258646Y-193597895D01*
X216258646Y-193597895D02*
X216282455Y-193502657D01*
X216282455Y-193502657D02*
X216306265Y-193455038D01*
X216306265Y-193455038D02*
X216353884Y-193407419D01*
X216353884Y-193407419D02*
X216425312Y-193383609D01*
X216425312Y-193383609D02*
X216472931Y-193383609D01*
X216472931Y-193383609D02*
X216544360Y-193407419D01*
X216544360Y-193407419D02*
X216568169Y-193431228D01*
X216782455Y-193883609D02*
X216782455Y-193383609D01*
X217068169Y-193883609D02*
X216853884Y-193597895D01*
X217068169Y-193383609D02*
X216782455Y-193669323D01*
X185148498Y-180990752D02*
X185386593Y-180990752D01*
X185100879Y-181133609D02*
X185267545Y-180633609D01*
X185267545Y-180633609D02*
X185434212Y-181133609D01*
X185577069Y-180681228D02*
X185600878Y-180657419D01*
X185600878Y-180657419D02*
X185648497Y-180633609D01*
X185648497Y-180633609D02*
X185767545Y-180633609D01*
X185767545Y-180633609D02*
X185815164Y-180657419D01*
X185815164Y-180657419D02*
X185838973Y-180681228D01*
X185838973Y-180681228D02*
X185862783Y-180728847D01*
X185862783Y-180728847D02*
X185862783Y-180776466D01*
X185862783Y-180776466D02*
X185838973Y-180847895D01*
X185838973Y-180847895D02*
X185553259Y-181133609D01*
X185553259Y-181133609D02*
X185862783Y-181133609D01*
X186172306Y-180633609D02*
X186219925Y-180633609D01*
X186219925Y-180633609D02*
X186267544Y-180657419D01*
X186267544Y-180657419D02*
X186291354Y-180681228D01*
X186291354Y-180681228D02*
X186315163Y-180728847D01*
X186315163Y-180728847D02*
X186338973Y-180824085D01*
X186338973Y-180824085D02*
X186338973Y-180943133D01*
X186338973Y-180943133D02*
X186315163Y-181038371D01*
X186315163Y-181038371D02*
X186291354Y-181085990D01*
X186291354Y-181085990D02*
X186267544Y-181109800D01*
X186267544Y-181109800D02*
X186219925Y-181133609D01*
X186219925Y-181133609D02*
X186172306Y-181133609D01*
X186172306Y-181133609D02*
X186124687Y-181109800D01*
X186124687Y-181109800D02*
X186100878Y-181085990D01*
X186100878Y-181085990D02*
X186077068Y-181038371D01*
X186077068Y-181038371D02*
X186053259Y-180943133D01*
X186053259Y-180943133D02*
X186053259Y-180824085D01*
X186053259Y-180824085D02*
X186077068Y-180728847D01*
X186077068Y-180728847D02*
X186100878Y-180681228D01*
X186100878Y-180681228D02*
X186124687Y-180657419D01*
X186124687Y-180657419D02*
X186172306Y-180633609D01*
X185148498Y-188590752D02*
X185386593Y-188590752D01*
X185100879Y-188733609D02*
X185267545Y-188233609D01*
X185267545Y-188233609D02*
X185434212Y-188733609D01*
X185577069Y-188281228D02*
X185600878Y-188257419D01*
X185600878Y-188257419D02*
X185648497Y-188233609D01*
X185648497Y-188233609D02*
X185767545Y-188233609D01*
X185767545Y-188233609D02*
X185815164Y-188257419D01*
X185815164Y-188257419D02*
X185838973Y-188281228D01*
X185838973Y-188281228D02*
X185862783Y-188328847D01*
X185862783Y-188328847D02*
X185862783Y-188376466D01*
X185862783Y-188376466D02*
X185838973Y-188447895D01*
X185838973Y-188447895D02*
X185553259Y-188733609D01*
X185553259Y-188733609D02*
X185862783Y-188733609D01*
X186053259Y-188281228D02*
X186077068Y-188257419D01*
X186077068Y-188257419D02*
X186124687Y-188233609D01*
X186124687Y-188233609D02*
X186243735Y-188233609D01*
X186243735Y-188233609D02*
X186291354Y-188257419D01*
X186291354Y-188257419D02*
X186315163Y-188281228D01*
X186315163Y-188281228D02*
X186338973Y-188328847D01*
X186338973Y-188328847D02*
X186338973Y-188376466D01*
X186338973Y-188376466D02*
X186315163Y-188447895D01*
X186315163Y-188447895D02*
X186029449Y-188733609D01*
X186029449Y-188733609D02*
X186338973Y-188733609D01*
X185148498Y-165790752D02*
X185386593Y-165790752D01*
X185100879Y-165933609D02*
X185267545Y-165433609D01*
X185267545Y-165433609D02*
X185434212Y-165933609D01*
X185862783Y-165933609D02*
X185577069Y-165933609D01*
X185719926Y-165933609D02*
X185719926Y-165433609D01*
X185719926Y-165433609D02*
X185672307Y-165505038D01*
X185672307Y-165505038D02*
X185624688Y-165552657D01*
X185624688Y-165552657D02*
X185577069Y-165576466D01*
X186291354Y-165600276D02*
X186291354Y-165933609D01*
X186172306Y-165409800D02*
X186053259Y-165766942D01*
X186053259Y-165766942D02*
X186362782Y-165766942D01*
X214984836Y-196193133D02*
X215365789Y-196193133D01*
X215770551Y-196121704D02*
X215841979Y-196145514D01*
X215841979Y-196145514D02*
X215865789Y-196169323D01*
X215865789Y-196169323D02*
X215889598Y-196216942D01*
X215889598Y-196216942D02*
X215889598Y-196288371D01*
X215889598Y-196288371D02*
X215865789Y-196335990D01*
X215865789Y-196335990D02*
X215841979Y-196359800D01*
X215841979Y-196359800D02*
X215794360Y-196383609D01*
X215794360Y-196383609D02*
X215603884Y-196383609D01*
X215603884Y-196383609D02*
X215603884Y-195883609D01*
X215603884Y-195883609D02*
X215770551Y-195883609D01*
X215770551Y-195883609D02*
X215818170Y-195907419D01*
X215818170Y-195907419D02*
X215841979Y-195931228D01*
X215841979Y-195931228D02*
X215865789Y-195978847D01*
X215865789Y-195978847D02*
X215865789Y-196026466D01*
X215865789Y-196026466D02*
X215841979Y-196074085D01*
X215841979Y-196074085D02*
X215818170Y-196097895D01*
X215818170Y-196097895D02*
X215770551Y-196121704D01*
X215770551Y-196121704D02*
X215603884Y-196121704D01*
X216365789Y-195907419D02*
X216318170Y-195883609D01*
X216318170Y-195883609D02*
X216246741Y-195883609D01*
X216246741Y-195883609D02*
X216175313Y-195907419D01*
X216175313Y-195907419D02*
X216127694Y-195955038D01*
X216127694Y-195955038D02*
X216103884Y-196002657D01*
X216103884Y-196002657D02*
X216080075Y-196097895D01*
X216080075Y-196097895D02*
X216080075Y-196169323D01*
X216080075Y-196169323D02*
X216103884Y-196264561D01*
X216103884Y-196264561D02*
X216127694Y-196312180D01*
X216127694Y-196312180D02*
X216175313Y-196359800D01*
X216175313Y-196359800D02*
X216246741Y-196383609D01*
X216246741Y-196383609D02*
X216294360Y-196383609D01*
X216294360Y-196383609D02*
X216365789Y-196359800D01*
X216365789Y-196359800D02*
X216389598Y-196335990D01*
X216389598Y-196335990D02*
X216389598Y-196169323D01*
X216389598Y-196169323D02*
X216294360Y-196169323D01*
X215470550Y-186185990D02*
X215446741Y-186209800D01*
X215446741Y-186209800D02*
X215375312Y-186233609D01*
X215375312Y-186233609D02*
X215327693Y-186233609D01*
X215327693Y-186233609D02*
X215256265Y-186209800D01*
X215256265Y-186209800D02*
X215208646Y-186162180D01*
X215208646Y-186162180D02*
X215184836Y-186114561D01*
X215184836Y-186114561D02*
X215161027Y-186019323D01*
X215161027Y-186019323D02*
X215161027Y-185947895D01*
X215161027Y-185947895D02*
X215184836Y-185852657D01*
X215184836Y-185852657D02*
X215208646Y-185805038D01*
X215208646Y-185805038D02*
X215256265Y-185757419D01*
X215256265Y-185757419D02*
X215327693Y-185733609D01*
X215327693Y-185733609D02*
X215375312Y-185733609D01*
X215375312Y-185733609D02*
X215446741Y-185757419D01*
X215446741Y-185757419D02*
X215470550Y-185781228D01*
X215922931Y-186233609D02*
X215684836Y-186233609D01*
X215684836Y-186233609D02*
X215684836Y-185733609D01*
X216089598Y-186233609D02*
X216089598Y-185733609D01*
X216375312Y-186233609D02*
X216161027Y-185947895D01*
X216375312Y-185733609D02*
X216089598Y-186019323D01*
X214984836Y-173671704D02*
X215151503Y-173671704D01*
X215222931Y-173933609D02*
X214984836Y-173933609D01*
X214984836Y-173933609D02*
X214984836Y-173433609D01*
X214984836Y-173433609D02*
X215222931Y-173433609D01*
X215084836Y-208943133D02*
X215465789Y-208943133D01*
X215680075Y-208990752D02*
X215918170Y-208990752D01*
X215632456Y-209133609D02*
X215799122Y-208633609D01*
X215799122Y-208633609D02*
X215965789Y-209133609D01*
X216108646Y-209109800D02*
X216180074Y-209133609D01*
X216180074Y-209133609D02*
X216299122Y-209133609D01*
X216299122Y-209133609D02*
X216346741Y-209109800D01*
X216346741Y-209109800D02*
X216370550Y-209085990D01*
X216370550Y-209085990D02*
X216394360Y-209038371D01*
X216394360Y-209038371D02*
X216394360Y-208990752D01*
X216394360Y-208990752D02*
X216370550Y-208943133D01*
X216370550Y-208943133D02*
X216346741Y-208919323D01*
X216346741Y-208919323D02*
X216299122Y-208895514D01*
X216299122Y-208895514D02*
X216203884Y-208871704D01*
X216203884Y-208871704D02*
X216156265Y-208847895D01*
X216156265Y-208847895D02*
X216132455Y-208824085D01*
X216132455Y-208824085D02*
X216108646Y-208776466D01*
X216108646Y-208776466D02*
X216108646Y-208728847D01*
X216108646Y-208728847D02*
X216132455Y-208681228D01*
X216132455Y-208681228D02*
X216156265Y-208657419D01*
X216156265Y-208657419D02*
X216203884Y-208633609D01*
X216203884Y-208633609D02*
X216322931Y-208633609D01*
X216322931Y-208633609D02*
X216394360Y-208657419D01*
X185100878Y-196433609D02*
X185100878Y-195933609D01*
X185100878Y-195933609D02*
X185219926Y-195933609D01*
X185219926Y-195933609D02*
X185291354Y-195957419D01*
X185291354Y-195957419D02*
X185338973Y-196005038D01*
X185338973Y-196005038D02*
X185362783Y-196052657D01*
X185362783Y-196052657D02*
X185386592Y-196147895D01*
X185386592Y-196147895D02*
X185386592Y-196219323D01*
X185386592Y-196219323D02*
X185362783Y-196314561D01*
X185362783Y-196314561D02*
X185338973Y-196362180D01*
X185338973Y-196362180D02*
X185291354Y-196409800D01*
X185291354Y-196409800D02*
X185219926Y-196433609D01*
X185219926Y-196433609D02*
X185100878Y-196433609D01*
X185862783Y-196433609D02*
X185577069Y-196433609D01*
X185719926Y-196433609D02*
X185719926Y-195933609D01*
X185719926Y-195933609D02*
X185672307Y-196005038D01*
X185672307Y-196005038D02*
X185624688Y-196052657D01*
X185624688Y-196052657D02*
X185577069Y-196076466D01*
X186315163Y-195933609D02*
X186077068Y-195933609D01*
X186077068Y-195933609D02*
X186053259Y-196171704D01*
X186053259Y-196171704D02*
X186077068Y-196147895D01*
X186077068Y-196147895D02*
X186124687Y-196124085D01*
X186124687Y-196124085D02*
X186243735Y-196124085D01*
X186243735Y-196124085D02*
X186291354Y-196147895D01*
X186291354Y-196147895D02*
X186315163Y-196171704D01*
X186315163Y-196171704D02*
X186338973Y-196219323D01*
X186338973Y-196219323D02*
X186338973Y-196338371D01*
X186338973Y-196338371D02*
X186315163Y-196385990D01*
X186315163Y-196385990D02*
X186291354Y-196409800D01*
X186291354Y-196409800D02*
X186243735Y-196433609D01*
X186243735Y-196433609D02*
X186124687Y-196433609D01*
X186124687Y-196433609D02*
X186077068Y-196409800D01*
X186077068Y-196409800D02*
X186053259Y-196385990D01*
X215411027Y-150590752D02*
X215649122Y-150590752D01*
X215363408Y-150733609D02*
X215530074Y-150233609D01*
X215530074Y-150233609D02*
X215696741Y-150733609D01*
X216125312Y-150733609D02*
X215839598Y-150733609D01*
X215982455Y-150733609D02*
X215982455Y-150233609D01*
X215982455Y-150233609D02*
X215934836Y-150305038D01*
X215934836Y-150305038D02*
X215887217Y-150352657D01*
X215887217Y-150352657D02*
X215839598Y-150376466D01*
X214884836Y-203843133D02*
X215265789Y-203843133D01*
X215741979Y-204033609D02*
X215503884Y-204033609D01*
X215503884Y-204033609D02*
X215503884Y-203533609D01*
X215908646Y-204033609D02*
X215908646Y-203533609D01*
X215908646Y-203533609D02*
X216027694Y-203533609D01*
X216027694Y-203533609D02*
X216099122Y-203557419D01*
X216099122Y-203557419D02*
X216146741Y-203605038D01*
X216146741Y-203605038D02*
X216170551Y-203652657D01*
X216170551Y-203652657D02*
X216194360Y-203747895D01*
X216194360Y-203747895D02*
X216194360Y-203819323D01*
X216194360Y-203819323D02*
X216170551Y-203914561D01*
X216170551Y-203914561D02*
X216146741Y-203962180D01*
X216146741Y-203962180D02*
X216099122Y-204009800D01*
X216099122Y-204009800D02*
X216027694Y-204033609D01*
X216027694Y-204033609D02*
X215908646Y-204033609D01*
X216384837Y-204009800D02*
X216456265Y-204033609D01*
X216456265Y-204033609D02*
X216575313Y-204033609D01*
X216575313Y-204033609D02*
X216622932Y-204009800D01*
X216622932Y-204009800D02*
X216646741Y-203985990D01*
X216646741Y-203985990D02*
X216670551Y-203938371D01*
X216670551Y-203938371D02*
X216670551Y-203890752D01*
X216670551Y-203890752D02*
X216646741Y-203843133D01*
X216646741Y-203843133D02*
X216622932Y-203819323D01*
X216622932Y-203819323D02*
X216575313Y-203795514D01*
X216575313Y-203795514D02*
X216480075Y-203771704D01*
X216480075Y-203771704D02*
X216432456Y-203747895D01*
X216432456Y-203747895D02*
X216408646Y-203724085D01*
X216408646Y-203724085D02*
X216384837Y-203676466D01*
X216384837Y-203676466D02*
X216384837Y-203628847D01*
X216384837Y-203628847D02*
X216408646Y-203581228D01*
X216408646Y-203581228D02*
X216432456Y-203557419D01*
X216432456Y-203557419D02*
X216480075Y-203533609D01*
X216480075Y-203533609D02*
X216599122Y-203533609D01*
X216599122Y-203533609D02*
X216670551Y-203557419D01*
X204844047Y-165401109D02*
X204844047Y-165805871D01*
X204844047Y-165805871D02*
X204867857Y-165853490D01*
X204867857Y-165853490D02*
X204891666Y-165877300D01*
X204891666Y-165877300D02*
X204939285Y-165901109D01*
X204939285Y-165901109D02*
X205034523Y-165901109D01*
X205034523Y-165901109D02*
X205082142Y-165877300D01*
X205082142Y-165877300D02*
X205105952Y-165853490D01*
X205105952Y-165853490D02*
X205129761Y-165805871D01*
X205129761Y-165805871D02*
X205129761Y-165401109D01*
X205582143Y-165401109D02*
X205486905Y-165401109D01*
X205486905Y-165401109D02*
X205439286Y-165424919D01*
X205439286Y-165424919D02*
X205415476Y-165448728D01*
X205415476Y-165448728D02*
X205367857Y-165520157D01*
X205367857Y-165520157D02*
X205344048Y-165615395D01*
X205344048Y-165615395D02*
X205344048Y-165805871D01*
X205344048Y-165805871D02*
X205367857Y-165853490D01*
X205367857Y-165853490D02*
X205391667Y-165877300D01*
X205391667Y-165877300D02*
X205439286Y-165901109D01*
X205439286Y-165901109D02*
X205534524Y-165901109D01*
X205534524Y-165901109D02*
X205582143Y-165877300D01*
X205582143Y-165877300D02*
X205605952Y-165853490D01*
X205605952Y-165853490D02*
X205629762Y-165805871D01*
X205629762Y-165805871D02*
X205629762Y-165686823D01*
X205629762Y-165686823D02*
X205605952Y-165639204D01*
X205605952Y-165639204D02*
X205582143Y-165615395D01*
X205582143Y-165615395D02*
X205534524Y-165591585D01*
X205534524Y-165591585D02*
X205439286Y-165591585D01*
X205439286Y-165591585D02*
X205391667Y-165615395D01*
X205391667Y-165615395D02*
X205367857Y-165639204D01*
X205367857Y-165639204D02*
X205344048Y-165686823D01*
X200138609Y-164596427D02*
X200138609Y-164263094D01*
X200138609Y-164263094D02*
X200638609Y-164477379D01*
X200305276Y-163858332D02*
X200638609Y-163858332D01*
X200114800Y-163977380D02*
X200471942Y-164096427D01*
X200471942Y-164096427D02*
X200471942Y-163786904D01*
X200638609Y-163596428D02*
X200138609Y-163596428D01*
X200376704Y-163596428D02*
X200376704Y-163310714D01*
X200638609Y-163310714D02*
X200138609Y-163310714D01*
X200590990Y-162786904D02*
X200614800Y-162810713D01*
X200614800Y-162810713D02*
X200638609Y-162882142D01*
X200638609Y-162882142D02*
X200638609Y-162929761D01*
X200638609Y-162929761D02*
X200614800Y-163001189D01*
X200614800Y-163001189D02*
X200567180Y-163048808D01*
X200567180Y-163048808D02*
X200519561Y-163072618D01*
X200519561Y-163072618D02*
X200424323Y-163096427D01*
X200424323Y-163096427D02*
X200352895Y-163096427D01*
X200352895Y-163096427D02*
X200257657Y-163072618D01*
X200257657Y-163072618D02*
X200210038Y-163048808D01*
X200210038Y-163048808D02*
X200162419Y-163001189D01*
X200162419Y-163001189D02*
X200138609Y-162929761D01*
X200138609Y-162929761D02*
X200138609Y-162882142D01*
X200138609Y-162882142D02*
X200162419Y-162810713D01*
X200162419Y-162810713D02*
X200186228Y-162786904D01*
X200138609Y-162644046D02*
X200138609Y-162358332D01*
X200638609Y-162501189D02*
X200138609Y-162501189D01*
X200138609Y-161953571D02*
X200138609Y-162191666D01*
X200138609Y-162191666D02*
X200376704Y-162215475D01*
X200376704Y-162215475D02*
X200352895Y-162191666D01*
X200352895Y-162191666D02*
X200329085Y-162144047D01*
X200329085Y-162144047D02*
X200329085Y-162024999D01*
X200329085Y-162024999D02*
X200352895Y-161977380D01*
X200352895Y-161977380D02*
X200376704Y-161953571D01*
X200376704Y-161953571D02*
X200424323Y-161929761D01*
X200424323Y-161929761D02*
X200543371Y-161929761D01*
X200543371Y-161929761D02*
X200590990Y-161953571D01*
X200590990Y-161953571D02*
X200614800Y-161977380D01*
X200614800Y-161977380D02*
X200638609Y-162024999D01*
X200638609Y-162024999D02*
X200638609Y-162144047D01*
X200638609Y-162144047D02*
X200614800Y-162191666D01*
X200614800Y-162191666D02*
X200590990Y-162215475D01*
X200138609Y-161763095D02*
X200138609Y-161429762D01*
X200138609Y-161429762D02*
X200638609Y-161644047D01*
X200305276Y-161025000D02*
X200638609Y-161025000D01*
X200114800Y-161144048D02*
X200471942Y-161263095D01*
X200471942Y-161263095D02*
X200471942Y-160953572D01*
X204831547Y-198338609D02*
X204831547Y-198743371D01*
X204831547Y-198743371D02*
X204855357Y-198790990D01*
X204855357Y-198790990D02*
X204879166Y-198814800D01*
X204879166Y-198814800D02*
X204926785Y-198838609D01*
X204926785Y-198838609D02*
X205022023Y-198838609D01*
X205022023Y-198838609D02*
X205069642Y-198814800D01*
X205069642Y-198814800D02*
X205093452Y-198790990D01*
X205093452Y-198790990D02*
X205117261Y-198743371D01*
X205117261Y-198743371D02*
X205117261Y-198338609D01*
X205307738Y-198338609D02*
X205641071Y-198338609D01*
X205641071Y-198338609D02*
X205426786Y-198838609D01*
X200126109Y-197533927D02*
X200126109Y-197200594D01*
X200126109Y-197200594D02*
X200626109Y-197414879D01*
X200292776Y-196795832D02*
X200626109Y-196795832D01*
X200102300Y-196914880D02*
X200459442Y-197033927D01*
X200459442Y-197033927D02*
X200459442Y-196724404D01*
X200626109Y-196533928D02*
X200126109Y-196533928D01*
X200364204Y-196533928D02*
X200364204Y-196248214D01*
X200626109Y-196248214D02*
X200126109Y-196248214D01*
X200578490Y-195724404D02*
X200602300Y-195748213D01*
X200602300Y-195748213D02*
X200626109Y-195819642D01*
X200626109Y-195819642D02*
X200626109Y-195867261D01*
X200626109Y-195867261D02*
X200602300Y-195938689D01*
X200602300Y-195938689D02*
X200554680Y-195986308D01*
X200554680Y-195986308D02*
X200507061Y-196010118D01*
X200507061Y-196010118D02*
X200411823Y-196033927D01*
X200411823Y-196033927D02*
X200340395Y-196033927D01*
X200340395Y-196033927D02*
X200245157Y-196010118D01*
X200245157Y-196010118D02*
X200197538Y-195986308D01*
X200197538Y-195986308D02*
X200149919Y-195938689D01*
X200149919Y-195938689D02*
X200126109Y-195867261D01*
X200126109Y-195867261D02*
X200126109Y-195819642D01*
X200126109Y-195819642D02*
X200149919Y-195748213D01*
X200149919Y-195748213D02*
X200173728Y-195724404D01*
X200126109Y-195581546D02*
X200126109Y-195295832D01*
X200626109Y-195438689D02*
X200126109Y-195438689D01*
X200126109Y-194891071D02*
X200126109Y-195129166D01*
X200126109Y-195129166D02*
X200364204Y-195152975D01*
X200364204Y-195152975D02*
X200340395Y-195129166D01*
X200340395Y-195129166D02*
X200316585Y-195081547D01*
X200316585Y-195081547D02*
X200316585Y-194962499D01*
X200316585Y-194962499D02*
X200340395Y-194914880D01*
X200340395Y-194914880D02*
X200364204Y-194891071D01*
X200364204Y-194891071D02*
X200411823Y-194867261D01*
X200411823Y-194867261D02*
X200530871Y-194867261D01*
X200530871Y-194867261D02*
X200578490Y-194891071D01*
X200578490Y-194891071D02*
X200602300Y-194914880D01*
X200602300Y-194914880D02*
X200626109Y-194962499D01*
X200626109Y-194962499D02*
X200626109Y-195081547D01*
X200626109Y-195081547D02*
X200602300Y-195129166D01*
X200602300Y-195129166D02*
X200578490Y-195152975D01*
X200126109Y-194700595D02*
X200126109Y-194367262D01*
X200126109Y-194367262D02*
X200626109Y-194581547D01*
X200292776Y-193962500D02*
X200626109Y-193962500D01*
X200102300Y-194081548D02*
X200459442Y-194200595D01*
X200459442Y-194200595D02*
X200459442Y-193891072D01*
X195166547Y-215476109D02*
X195166547Y-215880871D01*
X195166547Y-215880871D02*
X195190357Y-215928490D01*
X195190357Y-215928490D02*
X195214166Y-215952300D01*
X195214166Y-215952300D02*
X195261785Y-215976109D01*
X195261785Y-215976109D02*
X195357023Y-215976109D01*
X195357023Y-215976109D02*
X195404642Y-215952300D01*
X195404642Y-215952300D02*
X195428452Y-215928490D01*
X195428452Y-215928490D02*
X195452261Y-215880871D01*
X195452261Y-215880871D02*
X195452261Y-215476109D01*
X195952262Y-215976109D02*
X195666548Y-215976109D01*
X195809405Y-215976109D02*
X195809405Y-215476109D01*
X195809405Y-215476109D02*
X195761786Y-215547538D01*
X195761786Y-215547538D02*
X195714167Y-215595157D01*
X195714167Y-215595157D02*
X195666548Y-215618966D01*
X200136109Y-220446427D02*
X200136109Y-220113094D01*
X200136109Y-220113094D02*
X200636109Y-220327379D01*
X200302776Y-219708332D02*
X200636109Y-219708332D01*
X200112300Y-219827380D02*
X200469442Y-219946427D01*
X200469442Y-219946427D02*
X200469442Y-219636904D01*
X200636109Y-219446428D02*
X200136109Y-219446428D01*
X200374204Y-219446428D02*
X200374204Y-219160714D01*
X200636109Y-219160714D02*
X200136109Y-219160714D01*
X200588490Y-218636904D02*
X200612300Y-218660713D01*
X200612300Y-218660713D02*
X200636109Y-218732142D01*
X200636109Y-218732142D02*
X200636109Y-218779761D01*
X200636109Y-218779761D02*
X200612300Y-218851189D01*
X200612300Y-218851189D02*
X200564680Y-218898808D01*
X200564680Y-218898808D02*
X200517061Y-218922618D01*
X200517061Y-218922618D02*
X200421823Y-218946427D01*
X200421823Y-218946427D02*
X200350395Y-218946427D01*
X200350395Y-218946427D02*
X200255157Y-218922618D01*
X200255157Y-218922618D02*
X200207538Y-218898808D01*
X200207538Y-218898808D02*
X200159919Y-218851189D01*
X200159919Y-218851189D02*
X200136109Y-218779761D01*
X200136109Y-218779761D02*
X200136109Y-218732142D01*
X200136109Y-218732142D02*
X200159919Y-218660713D01*
X200159919Y-218660713D02*
X200183728Y-218636904D01*
X200136109Y-218494046D02*
X200136109Y-218208332D01*
X200636109Y-218351189D02*
X200136109Y-218351189D01*
X200136109Y-217803571D02*
X200136109Y-218041666D01*
X200136109Y-218041666D02*
X200374204Y-218065475D01*
X200374204Y-218065475D02*
X200350395Y-218041666D01*
X200350395Y-218041666D02*
X200326585Y-217994047D01*
X200326585Y-217994047D02*
X200326585Y-217874999D01*
X200326585Y-217874999D02*
X200350395Y-217827380D01*
X200350395Y-217827380D02*
X200374204Y-217803571D01*
X200374204Y-217803571D02*
X200421823Y-217779761D01*
X200421823Y-217779761D02*
X200540871Y-217779761D01*
X200540871Y-217779761D02*
X200588490Y-217803571D01*
X200588490Y-217803571D02*
X200612300Y-217827380D01*
X200612300Y-217827380D02*
X200636109Y-217874999D01*
X200636109Y-217874999D02*
X200636109Y-217994047D01*
X200636109Y-217994047D02*
X200612300Y-218041666D01*
X200612300Y-218041666D02*
X200588490Y-218065475D01*
X200136109Y-217613095D02*
X200136109Y-217279762D01*
X200136109Y-217279762D02*
X200636109Y-217494047D01*
X200302776Y-216875000D02*
X200636109Y-216875000D01*
X200112300Y-216994048D02*
X200469442Y-217113095D01*
X200469442Y-217113095D02*
X200469442Y-216803572D01*
X205156071Y-186178490D02*
X205132262Y-186202300D01*
X205132262Y-186202300D02*
X205060833Y-186226109D01*
X205060833Y-186226109D02*
X205013214Y-186226109D01*
X205013214Y-186226109D02*
X204941786Y-186202300D01*
X204941786Y-186202300D02*
X204894167Y-186154680D01*
X204894167Y-186154680D02*
X204870357Y-186107061D01*
X204870357Y-186107061D02*
X204846548Y-186011823D01*
X204846548Y-186011823D02*
X204846548Y-185940395D01*
X204846548Y-185940395D02*
X204870357Y-185845157D01*
X204870357Y-185845157D02*
X204894167Y-185797538D01*
X204894167Y-185797538D02*
X204941786Y-185749919D01*
X204941786Y-185749919D02*
X205013214Y-185726109D01*
X205013214Y-185726109D02*
X205060833Y-185726109D01*
X205060833Y-185726109D02*
X205132262Y-185749919D01*
X205132262Y-185749919D02*
X205156071Y-185773728D01*
X205322738Y-185726109D02*
X205656071Y-185726109D01*
X205656071Y-185726109D02*
X205441786Y-186226109D01*
X205822738Y-185773728D02*
X205846547Y-185749919D01*
X205846547Y-185749919D02*
X205894166Y-185726109D01*
X205894166Y-185726109D02*
X206013214Y-185726109D01*
X206013214Y-185726109D02*
X206060833Y-185749919D01*
X206060833Y-185749919D02*
X206084642Y-185773728D01*
X206084642Y-185773728D02*
X206108452Y-185821347D01*
X206108452Y-185821347D02*
X206108452Y-185868966D01*
X206108452Y-185868966D02*
X206084642Y-185940395D01*
X206084642Y-185940395D02*
X205798928Y-186226109D01*
X205798928Y-186226109D02*
X206108452Y-186226109D01*
X205163215Y-186876109D02*
X204877501Y-186876109D01*
X205020358Y-186876109D02*
X205020358Y-186376109D01*
X205020358Y-186376109D02*
X204972739Y-186447538D01*
X204972739Y-186447538D02*
X204925120Y-186495157D01*
X204925120Y-186495157D02*
X204877501Y-186518966D01*
X205472738Y-186376109D02*
X205520357Y-186376109D01*
X205520357Y-186376109D02*
X205567976Y-186399919D01*
X205567976Y-186399919D02*
X205591786Y-186423728D01*
X205591786Y-186423728D02*
X205615595Y-186471347D01*
X205615595Y-186471347D02*
X205639405Y-186566585D01*
X205639405Y-186566585D02*
X205639405Y-186685633D01*
X205639405Y-186685633D02*
X205615595Y-186780871D01*
X205615595Y-186780871D02*
X205591786Y-186828490D01*
X205591786Y-186828490D02*
X205567976Y-186852300D01*
X205567976Y-186852300D02*
X205520357Y-186876109D01*
X205520357Y-186876109D02*
X205472738Y-186876109D01*
X205472738Y-186876109D02*
X205425119Y-186852300D01*
X205425119Y-186852300D02*
X205401310Y-186828490D01*
X205401310Y-186828490D02*
X205377500Y-186780871D01*
X205377500Y-186780871D02*
X205353691Y-186685633D01*
X205353691Y-186685633D02*
X205353691Y-186566585D01*
X205353691Y-186566585D02*
X205377500Y-186471347D01*
X205377500Y-186471347D02*
X205401310Y-186423728D01*
X205401310Y-186423728D02*
X205425119Y-186399919D01*
X205425119Y-186399919D02*
X205472738Y-186376109D01*
X205853690Y-186542776D02*
X205853690Y-186876109D01*
X205853690Y-186590395D02*
X205877500Y-186566585D01*
X205877500Y-186566585D02*
X205925119Y-186542776D01*
X205925119Y-186542776D02*
X205996547Y-186542776D01*
X205996547Y-186542776D02*
X206044166Y-186566585D01*
X206044166Y-186566585D02*
X206067976Y-186614204D01*
X206067976Y-186614204D02*
X206067976Y-186876109D01*
X206234643Y-186542776D02*
X206425119Y-186542776D01*
X206306071Y-186876109D02*
X206306071Y-186447538D01*
X206306071Y-186447538D02*
X206329881Y-186399919D01*
X206329881Y-186399919D02*
X206377500Y-186376109D01*
X206377500Y-186376109D02*
X206425119Y-186376109D01*
X209093571Y-183153490D02*
X209069762Y-183177300D01*
X209069762Y-183177300D02*
X208998333Y-183201109D01*
X208998333Y-183201109D02*
X208950714Y-183201109D01*
X208950714Y-183201109D02*
X208879286Y-183177300D01*
X208879286Y-183177300D02*
X208831667Y-183129680D01*
X208831667Y-183129680D02*
X208807857Y-183082061D01*
X208807857Y-183082061D02*
X208784048Y-182986823D01*
X208784048Y-182986823D02*
X208784048Y-182915395D01*
X208784048Y-182915395D02*
X208807857Y-182820157D01*
X208807857Y-182820157D02*
X208831667Y-182772538D01*
X208831667Y-182772538D02*
X208879286Y-182724919D01*
X208879286Y-182724919D02*
X208950714Y-182701109D01*
X208950714Y-182701109D02*
X208998333Y-182701109D01*
X208998333Y-182701109D02*
X209069762Y-182724919D01*
X209069762Y-182724919D02*
X209093571Y-182748728D01*
X209260238Y-182701109D02*
X209593571Y-182701109D01*
X209593571Y-182701109D02*
X209379286Y-183201109D01*
X210045952Y-183201109D02*
X209760238Y-183201109D01*
X209903095Y-183201109D02*
X209903095Y-182701109D01*
X209903095Y-182701109D02*
X209855476Y-182772538D01*
X209855476Y-182772538D02*
X209807857Y-182820157D01*
X209807857Y-182820157D02*
X209760238Y-182843966D01*
X209123810Y-183926109D02*
X208838096Y-183926109D01*
X208980953Y-183926109D02*
X208980953Y-183426109D01*
X208980953Y-183426109D02*
X208933334Y-183497538D01*
X208933334Y-183497538D02*
X208885715Y-183545157D01*
X208885715Y-183545157D02*
X208838096Y-183568966D01*
X209552381Y-183592776D02*
X209552381Y-183926109D01*
X209338095Y-183592776D02*
X209338095Y-183854680D01*
X209338095Y-183854680D02*
X209361905Y-183902300D01*
X209361905Y-183902300D02*
X209409524Y-183926109D01*
X209409524Y-183926109D02*
X209480952Y-183926109D01*
X209480952Y-183926109D02*
X209528571Y-183902300D01*
X209528571Y-183902300D02*
X209552381Y-183878490D01*
X209719048Y-183592776D02*
X209909524Y-183592776D01*
X209790476Y-183926109D02*
X209790476Y-183497538D01*
X209790476Y-183497538D02*
X209814286Y-183449919D01*
X209814286Y-183449919D02*
X209861905Y-183426109D01*
X209861905Y-183426109D02*
X209909524Y-183426109D01*
X204916547Y-150051109D02*
X204916547Y-150455871D01*
X204916547Y-150455871D02*
X204940357Y-150503490D01*
X204940357Y-150503490D02*
X204964166Y-150527300D01*
X204964166Y-150527300D02*
X205011785Y-150551109D01*
X205011785Y-150551109D02*
X205107023Y-150551109D01*
X205107023Y-150551109D02*
X205154642Y-150527300D01*
X205154642Y-150527300D02*
X205178452Y-150503490D01*
X205178452Y-150503490D02*
X205202261Y-150455871D01*
X205202261Y-150455871D02*
X205202261Y-150051109D01*
X205678452Y-150051109D02*
X205440357Y-150051109D01*
X205440357Y-150051109D02*
X205416548Y-150289204D01*
X205416548Y-150289204D02*
X205440357Y-150265395D01*
X205440357Y-150265395D02*
X205487976Y-150241585D01*
X205487976Y-150241585D02*
X205607024Y-150241585D01*
X205607024Y-150241585D02*
X205654643Y-150265395D01*
X205654643Y-150265395D02*
X205678452Y-150289204D01*
X205678452Y-150289204D02*
X205702262Y-150336823D01*
X205702262Y-150336823D02*
X205702262Y-150455871D01*
X205702262Y-150455871D02*
X205678452Y-150503490D01*
X205678452Y-150503490D02*
X205654643Y-150527300D01*
X205654643Y-150527300D02*
X205607024Y-150551109D01*
X205607024Y-150551109D02*
X205487976Y-150551109D01*
X205487976Y-150551109D02*
X205440357Y-150527300D01*
X205440357Y-150527300D02*
X205416548Y-150503490D01*
X200136109Y-149246427D02*
X200136109Y-148913094D01*
X200136109Y-148913094D02*
X200636109Y-149127379D01*
X200302776Y-148508332D02*
X200636109Y-148508332D01*
X200112300Y-148627380D02*
X200469442Y-148746427D01*
X200469442Y-148746427D02*
X200469442Y-148436904D01*
X200636109Y-148246428D02*
X200136109Y-148246428D01*
X200374204Y-148246428D02*
X200374204Y-147960714D01*
X200636109Y-147960714D02*
X200136109Y-147960714D01*
X200588490Y-147436904D02*
X200612300Y-147460713D01*
X200612300Y-147460713D02*
X200636109Y-147532142D01*
X200636109Y-147532142D02*
X200636109Y-147579761D01*
X200636109Y-147579761D02*
X200612300Y-147651189D01*
X200612300Y-147651189D02*
X200564680Y-147698808D01*
X200564680Y-147698808D02*
X200517061Y-147722618D01*
X200517061Y-147722618D02*
X200421823Y-147746427D01*
X200421823Y-147746427D02*
X200350395Y-147746427D01*
X200350395Y-147746427D02*
X200255157Y-147722618D01*
X200255157Y-147722618D02*
X200207538Y-147698808D01*
X200207538Y-147698808D02*
X200159919Y-147651189D01*
X200159919Y-147651189D02*
X200136109Y-147579761D01*
X200136109Y-147579761D02*
X200136109Y-147532142D01*
X200136109Y-147532142D02*
X200159919Y-147460713D01*
X200159919Y-147460713D02*
X200183728Y-147436904D01*
X200136109Y-147294046D02*
X200136109Y-147008332D01*
X200636109Y-147151189D02*
X200136109Y-147151189D01*
X200136109Y-146603571D02*
X200136109Y-146841666D01*
X200136109Y-146841666D02*
X200374204Y-146865475D01*
X200374204Y-146865475D02*
X200350395Y-146841666D01*
X200350395Y-146841666D02*
X200326585Y-146794047D01*
X200326585Y-146794047D02*
X200326585Y-146674999D01*
X200326585Y-146674999D02*
X200350395Y-146627380D01*
X200350395Y-146627380D02*
X200374204Y-146603571D01*
X200374204Y-146603571D02*
X200421823Y-146579761D01*
X200421823Y-146579761D02*
X200540871Y-146579761D01*
X200540871Y-146579761D02*
X200588490Y-146603571D01*
X200588490Y-146603571D02*
X200612300Y-146627380D01*
X200612300Y-146627380D02*
X200636109Y-146674999D01*
X200636109Y-146674999D02*
X200636109Y-146794047D01*
X200636109Y-146794047D02*
X200612300Y-146841666D01*
X200612300Y-146841666D02*
X200588490Y-146865475D01*
X200136109Y-146413095D02*
X200136109Y-146079762D01*
X200136109Y-146079762D02*
X200636109Y-146294047D01*
X200302776Y-145675000D02*
X200636109Y-145675000D01*
X200112300Y-145794048D02*
X200469442Y-145913095D01*
X200469442Y-145913095D02*
X200469442Y-145603572D01*
X195729047Y-181801109D02*
X195729047Y-182205871D01*
X195729047Y-182205871D02*
X195752857Y-182253490D01*
X195752857Y-182253490D02*
X195776666Y-182277300D01*
X195776666Y-182277300D02*
X195824285Y-182301109D01*
X195824285Y-182301109D02*
X195919523Y-182301109D01*
X195919523Y-182301109D02*
X195967142Y-182277300D01*
X195967142Y-182277300D02*
X195990952Y-182253490D01*
X195990952Y-182253490D02*
X196014761Y-182205871D01*
X196014761Y-182205871D02*
X196014761Y-181801109D01*
X196276667Y-182301109D02*
X196371905Y-182301109D01*
X196371905Y-182301109D02*
X196419524Y-182277300D01*
X196419524Y-182277300D02*
X196443333Y-182253490D01*
X196443333Y-182253490D02*
X196490952Y-182182061D01*
X196490952Y-182182061D02*
X196514762Y-182086823D01*
X196514762Y-182086823D02*
X196514762Y-181896347D01*
X196514762Y-181896347D02*
X196490952Y-181848728D01*
X196490952Y-181848728D02*
X196467143Y-181824919D01*
X196467143Y-181824919D02*
X196419524Y-181801109D01*
X196419524Y-181801109D02*
X196324286Y-181801109D01*
X196324286Y-181801109D02*
X196276667Y-181824919D01*
X196276667Y-181824919D02*
X196252857Y-181848728D01*
X196252857Y-181848728D02*
X196229048Y-181896347D01*
X196229048Y-181896347D02*
X196229048Y-182015395D01*
X196229048Y-182015395D02*
X196252857Y-182063014D01*
X196252857Y-182063014D02*
X196276667Y-182086823D01*
X196276667Y-182086823D02*
X196324286Y-182110633D01*
X196324286Y-182110633D02*
X196419524Y-182110633D01*
X196419524Y-182110633D02*
X196467143Y-182086823D01*
X196467143Y-182086823D02*
X196490952Y-182063014D01*
X196490952Y-182063014D02*
X196514762Y-182015395D01*
X200836109Y-184108332D02*
X200336109Y-184108332D01*
X200336109Y-184108332D02*
X200836109Y-183822618D01*
X200836109Y-183822618D02*
X200336109Y-183822618D01*
X200574204Y-183584522D02*
X200574204Y-183417855D01*
X200836109Y-183346427D02*
X200836109Y-183584522D01*
X200836109Y-183584522D02*
X200336109Y-183584522D01*
X200336109Y-183584522D02*
X200336109Y-183346427D01*
X200336109Y-182894046D02*
X200336109Y-183132141D01*
X200336109Y-183132141D02*
X200574204Y-183155950D01*
X200574204Y-183155950D02*
X200550395Y-183132141D01*
X200550395Y-183132141D02*
X200526585Y-183084522D01*
X200526585Y-183084522D02*
X200526585Y-182965474D01*
X200526585Y-182965474D02*
X200550395Y-182917855D01*
X200550395Y-182917855D02*
X200574204Y-182894046D01*
X200574204Y-182894046D02*
X200621823Y-182870236D01*
X200621823Y-182870236D02*
X200740871Y-182870236D01*
X200740871Y-182870236D02*
X200788490Y-182894046D01*
X200788490Y-182894046D02*
X200812300Y-182917855D01*
X200812300Y-182917855D02*
X200836109Y-182965474D01*
X200836109Y-182965474D02*
X200836109Y-183084522D01*
X200836109Y-183084522D02*
X200812300Y-183132141D01*
X200812300Y-183132141D02*
X200788490Y-183155950D01*
X200336109Y-182417856D02*
X200336109Y-182655951D01*
X200336109Y-182655951D02*
X200574204Y-182679760D01*
X200574204Y-182679760D02*
X200550395Y-182655951D01*
X200550395Y-182655951D02*
X200526585Y-182608332D01*
X200526585Y-182608332D02*
X200526585Y-182489284D01*
X200526585Y-182489284D02*
X200550395Y-182441665D01*
X200550395Y-182441665D02*
X200574204Y-182417856D01*
X200574204Y-182417856D02*
X200621823Y-182394046D01*
X200621823Y-182394046D02*
X200740871Y-182394046D01*
X200740871Y-182394046D02*
X200788490Y-182417856D01*
X200788490Y-182417856D02*
X200812300Y-182441665D01*
X200812300Y-182441665D02*
X200836109Y-182489284D01*
X200836109Y-182489284D02*
X200836109Y-182608332D01*
X200836109Y-182608332D02*
X200812300Y-182655951D01*
X200812300Y-182655951D02*
X200788490Y-182679760D01*
X200336109Y-181941666D02*
X200336109Y-182179761D01*
X200336109Y-182179761D02*
X200574204Y-182203570D01*
X200574204Y-182203570D02*
X200550395Y-182179761D01*
X200550395Y-182179761D02*
X200526585Y-182132142D01*
X200526585Y-182132142D02*
X200526585Y-182013094D01*
X200526585Y-182013094D02*
X200550395Y-181965475D01*
X200550395Y-181965475D02*
X200574204Y-181941666D01*
X200574204Y-181941666D02*
X200621823Y-181917856D01*
X200621823Y-181917856D02*
X200740871Y-181917856D01*
X200740871Y-181917856D02*
X200788490Y-181941666D01*
X200788490Y-181941666D02*
X200812300Y-181965475D01*
X200812300Y-181965475D02*
X200836109Y-182013094D01*
X200836109Y-182013094D02*
X200836109Y-182132142D01*
X200836109Y-182132142D02*
X200812300Y-182179761D01*
X200812300Y-182179761D02*
X200788490Y-182203570D01*
X207518571Y-181851109D02*
X207351905Y-181613014D01*
X207232857Y-181851109D02*
X207232857Y-181351109D01*
X207232857Y-181351109D02*
X207423333Y-181351109D01*
X207423333Y-181351109D02*
X207470952Y-181374919D01*
X207470952Y-181374919D02*
X207494762Y-181398728D01*
X207494762Y-181398728D02*
X207518571Y-181446347D01*
X207518571Y-181446347D02*
X207518571Y-181517776D01*
X207518571Y-181517776D02*
X207494762Y-181565395D01*
X207494762Y-181565395D02*
X207470952Y-181589204D01*
X207470952Y-181589204D02*
X207423333Y-181613014D01*
X207423333Y-181613014D02*
X207232857Y-181613014D01*
X207685238Y-181351109D02*
X208018571Y-181351109D01*
X208018571Y-181351109D02*
X207804286Y-181851109D01*
X208185238Y-181398728D02*
X208209047Y-181374919D01*
X208209047Y-181374919D02*
X208256666Y-181351109D01*
X208256666Y-181351109D02*
X208375714Y-181351109D01*
X208375714Y-181351109D02*
X208423333Y-181374919D01*
X208423333Y-181374919D02*
X208447142Y-181398728D01*
X208447142Y-181398728D02*
X208470952Y-181446347D01*
X208470952Y-181446347D02*
X208470952Y-181493966D01*
X208470952Y-181493966D02*
X208447142Y-181565395D01*
X208447142Y-181565395D02*
X208161428Y-181851109D01*
X208161428Y-181851109D02*
X208470952Y-181851109D01*
X209044762Y-181517776D02*
X209044762Y-181851109D01*
X208925714Y-181327300D02*
X208806667Y-181684442D01*
X208806667Y-181684442D02*
X209116190Y-181684442D01*
X209259047Y-181351109D02*
X209592380Y-181351109D01*
X209592380Y-181351109D02*
X209378095Y-181851109D01*
X209782856Y-181851109D02*
X209782856Y-181351109D01*
X209830475Y-181660633D02*
X209973332Y-181851109D01*
X209973332Y-181517776D02*
X209782856Y-181708252D01*
X195094047Y-151876109D02*
X195094047Y-152280871D01*
X195094047Y-152280871D02*
X195117857Y-152328490D01*
X195117857Y-152328490D02*
X195141666Y-152352300D01*
X195141666Y-152352300D02*
X195189285Y-152376109D01*
X195189285Y-152376109D02*
X195284523Y-152376109D01*
X195284523Y-152376109D02*
X195332142Y-152352300D01*
X195332142Y-152352300D02*
X195355952Y-152328490D01*
X195355952Y-152328490D02*
X195379761Y-152280871D01*
X195379761Y-152280871D02*
X195379761Y-151876109D01*
X195832143Y-152042776D02*
X195832143Y-152376109D01*
X195713095Y-151852300D02*
X195594048Y-152209442D01*
X195594048Y-152209442D02*
X195903571Y-152209442D01*
X200138609Y-156896427D02*
X200138609Y-156563094D01*
X200138609Y-156563094D02*
X200638609Y-156777379D01*
X200305276Y-156158332D02*
X200638609Y-156158332D01*
X200114800Y-156277380D02*
X200471942Y-156396427D01*
X200471942Y-156396427D02*
X200471942Y-156086904D01*
X200638609Y-155896428D02*
X200138609Y-155896428D01*
X200376704Y-155896428D02*
X200376704Y-155610714D01*
X200638609Y-155610714D02*
X200138609Y-155610714D01*
X200590990Y-155086904D02*
X200614800Y-155110713D01*
X200614800Y-155110713D02*
X200638609Y-155182142D01*
X200638609Y-155182142D02*
X200638609Y-155229761D01*
X200638609Y-155229761D02*
X200614800Y-155301189D01*
X200614800Y-155301189D02*
X200567180Y-155348808D01*
X200567180Y-155348808D02*
X200519561Y-155372618D01*
X200519561Y-155372618D02*
X200424323Y-155396427D01*
X200424323Y-155396427D02*
X200352895Y-155396427D01*
X200352895Y-155396427D02*
X200257657Y-155372618D01*
X200257657Y-155372618D02*
X200210038Y-155348808D01*
X200210038Y-155348808D02*
X200162419Y-155301189D01*
X200162419Y-155301189D02*
X200138609Y-155229761D01*
X200138609Y-155229761D02*
X200138609Y-155182142D01*
X200138609Y-155182142D02*
X200162419Y-155110713D01*
X200162419Y-155110713D02*
X200186228Y-155086904D01*
X200138609Y-154944046D02*
X200138609Y-154658332D01*
X200638609Y-154801189D02*
X200138609Y-154801189D01*
X200138609Y-154253571D02*
X200138609Y-154491666D01*
X200138609Y-154491666D02*
X200376704Y-154515475D01*
X200376704Y-154515475D02*
X200352895Y-154491666D01*
X200352895Y-154491666D02*
X200329085Y-154444047D01*
X200329085Y-154444047D02*
X200329085Y-154324999D01*
X200329085Y-154324999D02*
X200352895Y-154277380D01*
X200352895Y-154277380D02*
X200376704Y-154253571D01*
X200376704Y-154253571D02*
X200424323Y-154229761D01*
X200424323Y-154229761D02*
X200543371Y-154229761D01*
X200543371Y-154229761D02*
X200590990Y-154253571D01*
X200590990Y-154253571D02*
X200614800Y-154277380D01*
X200614800Y-154277380D02*
X200638609Y-154324999D01*
X200638609Y-154324999D02*
X200638609Y-154444047D01*
X200638609Y-154444047D02*
X200614800Y-154491666D01*
X200614800Y-154491666D02*
X200590990Y-154515475D01*
X200138609Y-154063095D02*
X200138609Y-153729762D01*
X200138609Y-153729762D02*
X200638609Y-153944047D01*
X200305276Y-153325000D02*
X200638609Y-153325000D01*
X200114800Y-153444048D02*
X200471942Y-153563095D01*
X200471942Y-153563095D02*
X200471942Y-153253572D01*
X207518571Y-180526109D02*
X207351905Y-180288014D01*
X207232857Y-180526109D02*
X207232857Y-180026109D01*
X207232857Y-180026109D02*
X207423333Y-180026109D01*
X207423333Y-180026109D02*
X207470952Y-180049919D01*
X207470952Y-180049919D02*
X207494762Y-180073728D01*
X207494762Y-180073728D02*
X207518571Y-180121347D01*
X207518571Y-180121347D02*
X207518571Y-180192776D01*
X207518571Y-180192776D02*
X207494762Y-180240395D01*
X207494762Y-180240395D02*
X207470952Y-180264204D01*
X207470952Y-180264204D02*
X207423333Y-180288014D01*
X207423333Y-180288014D02*
X207232857Y-180288014D01*
X207685238Y-180026109D02*
X208018571Y-180026109D01*
X208018571Y-180026109D02*
X207804286Y-180526109D01*
X208470952Y-180526109D02*
X208185238Y-180526109D01*
X208328095Y-180526109D02*
X208328095Y-180026109D01*
X208328095Y-180026109D02*
X208280476Y-180097538D01*
X208280476Y-180097538D02*
X208232857Y-180145157D01*
X208232857Y-180145157D02*
X208185238Y-180168966D01*
X209080476Y-180526109D02*
X208794762Y-180526109D01*
X208937619Y-180526109D02*
X208937619Y-180026109D01*
X208937619Y-180026109D02*
X208890000Y-180097538D01*
X208890000Y-180097538D02*
X208842381Y-180145157D01*
X208842381Y-180145157D02*
X208794762Y-180168966D01*
X209294761Y-180526109D02*
X209294761Y-180026109D01*
X209342380Y-180335633D02*
X209485237Y-180526109D01*
X209485237Y-180192776D02*
X209294761Y-180383252D01*
X204916547Y-213573609D02*
X204916547Y-213978371D01*
X204916547Y-213978371D02*
X204940357Y-214025990D01*
X204940357Y-214025990D02*
X204964166Y-214049800D01*
X204964166Y-214049800D02*
X205011785Y-214073609D01*
X205011785Y-214073609D02*
X205107023Y-214073609D01*
X205107023Y-214073609D02*
X205154642Y-214049800D01*
X205154642Y-214049800D02*
X205178452Y-214025990D01*
X205178452Y-214025990D02*
X205202261Y-213978371D01*
X205202261Y-213978371D02*
X205202261Y-213573609D01*
X205511786Y-213787895D02*
X205464167Y-213764085D01*
X205464167Y-213764085D02*
X205440357Y-213740276D01*
X205440357Y-213740276D02*
X205416548Y-213692657D01*
X205416548Y-213692657D02*
X205416548Y-213668847D01*
X205416548Y-213668847D02*
X205440357Y-213621228D01*
X205440357Y-213621228D02*
X205464167Y-213597419D01*
X205464167Y-213597419D02*
X205511786Y-213573609D01*
X205511786Y-213573609D02*
X205607024Y-213573609D01*
X205607024Y-213573609D02*
X205654643Y-213597419D01*
X205654643Y-213597419D02*
X205678452Y-213621228D01*
X205678452Y-213621228D02*
X205702262Y-213668847D01*
X205702262Y-213668847D02*
X205702262Y-213692657D01*
X205702262Y-213692657D02*
X205678452Y-213740276D01*
X205678452Y-213740276D02*
X205654643Y-213764085D01*
X205654643Y-213764085D02*
X205607024Y-213787895D01*
X205607024Y-213787895D02*
X205511786Y-213787895D01*
X205511786Y-213787895D02*
X205464167Y-213811704D01*
X205464167Y-213811704D02*
X205440357Y-213835514D01*
X205440357Y-213835514D02*
X205416548Y-213883133D01*
X205416548Y-213883133D02*
X205416548Y-213978371D01*
X205416548Y-213978371D02*
X205440357Y-214025990D01*
X205440357Y-214025990D02*
X205464167Y-214049800D01*
X205464167Y-214049800D02*
X205511786Y-214073609D01*
X205511786Y-214073609D02*
X205607024Y-214073609D01*
X205607024Y-214073609D02*
X205654643Y-214049800D01*
X205654643Y-214049800D02*
X205678452Y-214025990D01*
X205678452Y-214025990D02*
X205702262Y-213978371D01*
X205702262Y-213978371D02*
X205702262Y-213883133D01*
X205702262Y-213883133D02*
X205678452Y-213835514D01*
X205678452Y-213835514D02*
X205654643Y-213811704D01*
X205654643Y-213811704D02*
X205607024Y-213787895D01*
X200136109Y-212768927D02*
X200136109Y-212435594D01*
X200136109Y-212435594D02*
X200636109Y-212649879D01*
X200302776Y-212030832D02*
X200636109Y-212030832D01*
X200112300Y-212149880D02*
X200469442Y-212268927D01*
X200469442Y-212268927D02*
X200469442Y-211959404D01*
X200636109Y-211768928D02*
X200136109Y-211768928D01*
X200374204Y-211768928D02*
X200374204Y-211483214D01*
X200636109Y-211483214D02*
X200136109Y-211483214D01*
X200588490Y-210959404D02*
X200612300Y-210983213D01*
X200612300Y-210983213D02*
X200636109Y-211054642D01*
X200636109Y-211054642D02*
X200636109Y-211102261D01*
X200636109Y-211102261D02*
X200612300Y-211173689D01*
X200612300Y-211173689D02*
X200564680Y-211221308D01*
X200564680Y-211221308D02*
X200517061Y-211245118D01*
X200517061Y-211245118D02*
X200421823Y-211268927D01*
X200421823Y-211268927D02*
X200350395Y-211268927D01*
X200350395Y-211268927D02*
X200255157Y-211245118D01*
X200255157Y-211245118D02*
X200207538Y-211221308D01*
X200207538Y-211221308D02*
X200159919Y-211173689D01*
X200159919Y-211173689D02*
X200136109Y-211102261D01*
X200136109Y-211102261D02*
X200136109Y-211054642D01*
X200136109Y-211054642D02*
X200159919Y-210983213D01*
X200159919Y-210983213D02*
X200183728Y-210959404D01*
X200136109Y-210816546D02*
X200136109Y-210530832D01*
X200636109Y-210673689D02*
X200136109Y-210673689D01*
X200136109Y-210126071D02*
X200136109Y-210364166D01*
X200136109Y-210364166D02*
X200374204Y-210387975D01*
X200374204Y-210387975D02*
X200350395Y-210364166D01*
X200350395Y-210364166D02*
X200326585Y-210316547D01*
X200326585Y-210316547D02*
X200326585Y-210197499D01*
X200326585Y-210197499D02*
X200350395Y-210149880D01*
X200350395Y-210149880D02*
X200374204Y-210126071D01*
X200374204Y-210126071D02*
X200421823Y-210102261D01*
X200421823Y-210102261D02*
X200540871Y-210102261D01*
X200540871Y-210102261D02*
X200588490Y-210126071D01*
X200588490Y-210126071D02*
X200612300Y-210149880D01*
X200612300Y-210149880D02*
X200636109Y-210197499D01*
X200636109Y-210197499D02*
X200636109Y-210316547D01*
X200636109Y-210316547D02*
X200612300Y-210364166D01*
X200612300Y-210364166D02*
X200588490Y-210387975D01*
X200136109Y-209935595D02*
X200136109Y-209602262D01*
X200136109Y-209602262D02*
X200636109Y-209816547D01*
X200302776Y-209197500D02*
X200636109Y-209197500D01*
X200112300Y-209316548D02*
X200469442Y-209435595D01*
X200469442Y-209435595D02*
X200469442Y-209126072D01*
X195069047Y-167226109D02*
X195069047Y-167630871D01*
X195069047Y-167630871D02*
X195092857Y-167678490D01*
X195092857Y-167678490D02*
X195116666Y-167702300D01*
X195116666Y-167702300D02*
X195164285Y-167726109D01*
X195164285Y-167726109D02*
X195259523Y-167726109D01*
X195259523Y-167726109D02*
X195307142Y-167702300D01*
X195307142Y-167702300D02*
X195330952Y-167678490D01*
X195330952Y-167678490D02*
X195354761Y-167630871D01*
X195354761Y-167630871D02*
X195354761Y-167226109D01*
X195545238Y-167226109D02*
X195854762Y-167226109D01*
X195854762Y-167226109D02*
X195688095Y-167416585D01*
X195688095Y-167416585D02*
X195759524Y-167416585D01*
X195759524Y-167416585D02*
X195807143Y-167440395D01*
X195807143Y-167440395D02*
X195830952Y-167464204D01*
X195830952Y-167464204D02*
X195854762Y-167511823D01*
X195854762Y-167511823D02*
X195854762Y-167630871D01*
X195854762Y-167630871D02*
X195830952Y-167678490D01*
X195830952Y-167678490D02*
X195807143Y-167702300D01*
X195807143Y-167702300D02*
X195759524Y-167726109D01*
X195759524Y-167726109D02*
X195616667Y-167726109D01*
X195616667Y-167726109D02*
X195569048Y-167702300D01*
X195569048Y-167702300D02*
X195545238Y-167678490D01*
X200113609Y-172196427D02*
X200113609Y-171863094D01*
X200113609Y-171863094D02*
X200613609Y-172077379D01*
X200280276Y-171458332D02*
X200613609Y-171458332D01*
X200089800Y-171577380D02*
X200446942Y-171696427D01*
X200446942Y-171696427D02*
X200446942Y-171386904D01*
X200613609Y-171196428D02*
X200113609Y-171196428D01*
X200351704Y-171196428D02*
X200351704Y-170910714D01*
X200613609Y-170910714D02*
X200113609Y-170910714D01*
X200565990Y-170386904D02*
X200589800Y-170410713D01*
X200589800Y-170410713D02*
X200613609Y-170482142D01*
X200613609Y-170482142D02*
X200613609Y-170529761D01*
X200613609Y-170529761D02*
X200589800Y-170601189D01*
X200589800Y-170601189D02*
X200542180Y-170648808D01*
X200542180Y-170648808D02*
X200494561Y-170672618D01*
X200494561Y-170672618D02*
X200399323Y-170696427D01*
X200399323Y-170696427D02*
X200327895Y-170696427D01*
X200327895Y-170696427D02*
X200232657Y-170672618D01*
X200232657Y-170672618D02*
X200185038Y-170648808D01*
X200185038Y-170648808D02*
X200137419Y-170601189D01*
X200137419Y-170601189D02*
X200113609Y-170529761D01*
X200113609Y-170529761D02*
X200113609Y-170482142D01*
X200113609Y-170482142D02*
X200137419Y-170410713D01*
X200137419Y-170410713D02*
X200161228Y-170386904D01*
X200113609Y-170244046D02*
X200113609Y-169958332D01*
X200613609Y-170101189D02*
X200113609Y-170101189D01*
X200113609Y-169553571D02*
X200113609Y-169791666D01*
X200113609Y-169791666D02*
X200351704Y-169815475D01*
X200351704Y-169815475D02*
X200327895Y-169791666D01*
X200327895Y-169791666D02*
X200304085Y-169744047D01*
X200304085Y-169744047D02*
X200304085Y-169624999D01*
X200304085Y-169624999D02*
X200327895Y-169577380D01*
X200327895Y-169577380D02*
X200351704Y-169553571D01*
X200351704Y-169553571D02*
X200399323Y-169529761D01*
X200399323Y-169529761D02*
X200518371Y-169529761D01*
X200518371Y-169529761D02*
X200565990Y-169553571D01*
X200565990Y-169553571D02*
X200589800Y-169577380D01*
X200589800Y-169577380D02*
X200613609Y-169624999D01*
X200613609Y-169624999D02*
X200613609Y-169744047D01*
X200613609Y-169744047D02*
X200589800Y-169791666D01*
X200589800Y-169791666D02*
X200565990Y-169815475D01*
X200113609Y-169363095D02*
X200113609Y-169029762D01*
X200113609Y-169029762D02*
X200613609Y-169244047D01*
X200280276Y-168625000D02*
X200613609Y-168625000D01*
X200089800Y-168744048D02*
X200446942Y-168863095D01*
X200446942Y-168863095D02*
X200446942Y-168553572D01*
X195169047Y-200176109D02*
X195169047Y-200580871D01*
X195169047Y-200580871D02*
X195192857Y-200628490D01*
X195192857Y-200628490D02*
X195216666Y-200652300D01*
X195216666Y-200652300D02*
X195264285Y-200676109D01*
X195264285Y-200676109D02*
X195359523Y-200676109D01*
X195359523Y-200676109D02*
X195407142Y-200652300D01*
X195407142Y-200652300D02*
X195430952Y-200628490D01*
X195430952Y-200628490D02*
X195454761Y-200580871D01*
X195454761Y-200580871D02*
X195454761Y-200176109D01*
X195669048Y-200223728D02*
X195692857Y-200199919D01*
X195692857Y-200199919D02*
X195740476Y-200176109D01*
X195740476Y-200176109D02*
X195859524Y-200176109D01*
X195859524Y-200176109D02*
X195907143Y-200199919D01*
X195907143Y-200199919D02*
X195930952Y-200223728D01*
X195930952Y-200223728D02*
X195954762Y-200271347D01*
X195954762Y-200271347D02*
X195954762Y-200318966D01*
X195954762Y-200318966D02*
X195930952Y-200390395D01*
X195930952Y-200390395D02*
X195645238Y-200676109D01*
X195645238Y-200676109D02*
X195954762Y-200676109D01*
X200138609Y-205146427D02*
X200138609Y-204813094D01*
X200138609Y-204813094D02*
X200638609Y-205027379D01*
X200305276Y-204408332D02*
X200638609Y-204408332D01*
X200114800Y-204527380D02*
X200471942Y-204646427D01*
X200471942Y-204646427D02*
X200471942Y-204336904D01*
X200638609Y-204146428D02*
X200138609Y-204146428D01*
X200376704Y-204146428D02*
X200376704Y-203860714D01*
X200638609Y-203860714D02*
X200138609Y-203860714D01*
X200590990Y-203336904D02*
X200614800Y-203360713D01*
X200614800Y-203360713D02*
X200638609Y-203432142D01*
X200638609Y-203432142D02*
X200638609Y-203479761D01*
X200638609Y-203479761D02*
X200614800Y-203551189D01*
X200614800Y-203551189D02*
X200567180Y-203598808D01*
X200567180Y-203598808D02*
X200519561Y-203622618D01*
X200519561Y-203622618D02*
X200424323Y-203646427D01*
X200424323Y-203646427D02*
X200352895Y-203646427D01*
X200352895Y-203646427D02*
X200257657Y-203622618D01*
X200257657Y-203622618D02*
X200210038Y-203598808D01*
X200210038Y-203598808D02*
X200162419Y-203551189D01*
X200162419Y-203551189D02*
X200138609Y-203479761D01*
X200138609Y-203479761D02*
X200138609Y-203432142D01*
X200138609Y-203432142D02*
X200162419Y-203360713D01*
X200162419Y-203360713D02*
X200186228Y-203336904D01*
X200138609Y-203194046D02*
X200138609Y-202908332D01*
X200638609Y-203051189D02*
X200138609Y-203051189D01*
X200138609Y-202503571D02*
X200138609Y-202741666D01*
X200138609Y-202741666D02*
X200376704Y-202765475D01*
X200376704Y-202765475D02*
X200352895Y-202741666D01*
X200352895Y-202741666D02*
X200329085Y-202694047D01*
X200329085Y-202694047D02*
X200329085Y-202574999D01*
X200329085Y-202574999D02*
X200352895Y-202527380D01*
X200352895Y-202527380D02*
X200376704Y-202503571D01*
X200376704Y-202503571D02*
X200424323Y-202479761D01*
X200424323Y-202479761D02*
X200543371Y-202479761D01*
X200543371Y-202479761D02*
X200590990Y-202503571D01*
X200590990Y-202503571D02*
X200614800Y-202527380D01*
X200614800Y-202527380D02*
X200638609Y-202574999D01*
X200638609Y-202574999D02*
X200638609Y-202694047D01*
X200638609Y-202694047D02*
X200614800Y-202741666D01*
X200614800Y-202741666D02*
X200590990Y-202765475D01*
X200138609Y-202313095D02*
X200138609Y-201979762D01*
X200138609Y-201979762D02*
X200638609Y-202194047D01*
X200305276Y-201575000D02*
X200638609Y-201575000D01*
X200114800Y-201694048D02*
X200471942Y-201813095D01*
X200471942Y-201813095D02*
X200471942Y-201503572D01*
%TO.C,D11*%
X217065000Y-197000000D02*
G75*
G02*
X216965000Y-197000000I-50000J0D01*
G01*
X216965000Y-197000000D02*
G75*
G02*
X217065000Y-197000000I50000J0D01*
G01*
%TO.C,D38*%
X184535000Y-156325000D02*
G75*
G02*
X184435000Y-156325000I-50000J0D01*
G01*
X184435000Y-156325000D02*
G75*
G02*
X184535000Y-156325000I50000J0D01*
G01*
%TO.C,D43*%
X184535000Y-169000000D02*
G75*
G02*
X184435000Y-169000000I-50000J0D01*
G01*
X184435000Y-169000000D02*
G75*
G02*
X184535000Y-169000000I50000J0D01*
G01*
D13*
%TO.C,U6*%
X200412500Y-159390000D02*
X198212500Y-159390000D01*
X200412500Y-159390000D02*
X202612500Y-159390000D01*
X200412500Y-166160000D02*
X198212500Y-166160000D01*
X200412500Y-166160000D02*
X202612500Y-166160000D01*
X204602500Y-165940000D02*
X204272500Y-165700000D01*
X204602500Y-165460000D01*
X204602500Y-165940000D01*
G36*
X204602500Y-165940000D02*
G01*
X204272500Y-165700000D01*
X204602500Y-165460000D01*
X204602500Y-165940000D01*
G37*
D10*
%TO.C,D51*%
X184535000Y-189325000D02*
G75*
G02*
X184435000Y-189325000I-50000J0D01*
G01*
X184435000Y-189325000D02*
G75*
G02*
X184535000Y-189325000I50000J0D01*
G01*
%TO.C,D39*%
X184535000Y-158925000D02*
G75*
G02*
X184435000Y-158925000I-50000J0D01*
G01*
X184435000Y-158925000D02*
G75*
G02*
X184535000Y-158925000I50000J0D01*
G01*
%TO.C,D10*%
X217065000Y-199525000D02*
G75*
G02*
X216965000Y-199525000I-50000J0D01*
G01*
X216965000Y-199525000D02*
G75*
G02*
X217065000Y-199525000I50000J0D01*
G01*
D13*
%TO.C,U7*%
X200400000Y-192327500D02*
X198200000Y-192327500D01*
X200400000Y-192327500D02*
X202600000Y-192327500D01*
X200400000Y-199097500D02*
X198200000Y-199097500D01*
X200400000Y-199097500D02*
X202600000Y-199097500D01*
X204590000Y-198877500D02*
X204260000Y-198637500D01*
X204590000Y-198397500D01*
X204590000Y-198877500D01*
G36*
X204590000Y-198877500D02*
G01*
X204260000Y-198637500D01*
X204590000Y-198397500D01*
X204590000Y-198877500D01*
G37*
D10*
%TO.C,D8*%
X217065000Y-204625000D02*
G75*
G02*
X216965000Y-204625000I-50000J0D01*
G01*
X216965000Y-204625000D02*
G75*
G02*
X217065000Y-204625000I50000J0D01*
G01*
%TO.C,D47*%
X184535000Y-179225000D02*
G75*
G02*
X184435000Y-179225000I-50000J0D01*
G01*
X184435000Y-179225000D02*
G75*
G02*
X184535000Y-179225000I50000J0D01*
G01*
%TO.C,D62*%
X184535000Y-219925000D02*
G75*
G02*
X184435000Y-219925000I-50000J0D01*
G01*
X184435000Y-219925000D02*
G75*
G02*
X184535000Y-219925000I50000J0D01*
G01*
%TO.C,D49*%
X184535000Y-184250000D02*
G75*
G02*
X184435000Y-184250000I-50000J0D01*
G01*
X184435000Y-184250000D02*
G75*
G02*
X184535000Y-184250000I50000J0D01*
G01*
%TO.C,D13*%
X217065000Y-191925000D02*
G75*
G02*
X216965000Y-191925000I-50000J0D01*
G01*
X216965000Y-191925000D02*
G75*
G02*
X217065000Y-191925000I50000J0D01*
G01*
%TO.C,D52*%
X184535000Y-191925000D02*
G75*
G02*
X184435000Y-191925000I-50000J0D01*
G01*
X184435000Y-191925000D02*
G75*
G02*
X184535000Y-191925000I50000J0D01*
G01*
%TO.C,D28*%
X217065000Y-153825000D02*
G75*
G02*
X216965000Y-153825000I-50000J0D01*
G01*
X216965000Y-153825000D02*
G75*
G02*
X217065000Y-153825000I50000J0D01*
G01*
%TO.C,D54*%
X184535000Y-199525000D02*
G75*
G02*
X184435000Y-199525000I-50000J0D01*
G01*
X184435000Y-199525000D02*
G75*
G02*
X184535000Y-199525000I50000J0D01*
G01*
%TO.C,D37*%
X184535000Y-153825000D02*
G75*
G02*
X184435000Y-153825000I-50000J0D01*
G01*
X184435000Y-153825000D02*
G75*
G02*
X184535000Y-153825000I50000J0D01*
G01*
%TO.C,D42*%
X184535000Y-166525000D02*
G75*
G02*
X184435000Y-166525000I-50000J0D01*
G01*
X184435000Y-166525000D02*
G75*
G02*
X184535000Y-166525000I50000J0D01*
G01*
%TO.C,D3*%
X217065000Y-217325000D02*
G75*
G02*
X216965000Y-217325000I-50000J0D01*
G01*
X216965000Y-217325000D02*
G75*
G02*
X217065000Y-217325000I50000J0D01*
G01*
%TO.C,D58*%
X184535000Y-209725000D02*
G75*
G02*
X184435000Y-209725000I-50000J0D01*
G01*
X184435000Y-209725000D02*
G75*
G02*
X184535000Y-209725000I50000J0D01*
G01*
%TO.C,D12*%
X217065000Y-194500000D02*
G75*
G02*
X216965000Y-194500000I-50000J0D01*
G01*
X216965000Y-194500000D02*
G75*
G02*
X217065000Y-194500000I50000J0D01*
G01*
%TO.C,D45*%
X184535000Y-174250000D02*
G75*
G02*
X184435000Y-174250000I-50000J0D01*
G01*
X184435000Y-174250000D02*
G75*
G02*
X184535000Y-174250000I50000J0D01*
G01*
D13*
%TO.C,U1*%
X200410000Y-215240000D02*
X198210000Y-215240000D01*
X200410000Y-215240000D02*
X202610000Y-215240000D01*
X200410000Y-222010000D02*
X198210000Y-222010000D01*
X200410000Y-222010000D02*
X202610000Y-222010000D01*
X196550000Y-215700000D02*
X196220000Y-215940000D01*
X196220000Y-215460000D01*
X196550000Y-215700000D01*
G36*
X196550000Y-215700000D02*
G01*
X196220000Y-215940000D01*
X196220000Y-215460000D01*
X196550000Y-215700000D01*
G37*
D10*
%TO.C,D14*%
X217065000Y-189325000D02*
G75*
G02*
X216965000Y-189325000I-50000J0D01*
G01*
X216965000Y-189325000D02*
G75*
G02*
X217065000Y-189325000I50000J0D01*
G01*
%TO.C,D48*%
X184535000Y-181725000D02*
G75*
G02*
X184435000Y-181725000I-50000J0D01*
G01*
X184435000Y-181725000D02*
G75*
G02*
X184535000Y-181725000I50000J0D01*
G01*
%TO.C,D44*%
X184535000Y-171625000D02*
G75*
G02*
X184435000Y-171625000I-50000J0D01*
G01*
X184435000Y-171625000D02*
G75*
G02*
X184535000Y-171625000I50000J0D01*
G01*
D13*
%TO.C,C72*%
X206043335Y-184690000D02*
X205811665Y-184690000D01*
X206043335Y-185410000D02*
X205811665Y-185410000D01*
D10*
%TO.C,D40*%
X184535000Y-161500000D02*
G75*
G02*
X184435000Y-161500000I-50000J0D01*
G01*
X184435000Y-161500000D02*
G75*
G02*
X184535000Y-161500000I50000J0D01*
G01*
%TO.C,D1*%
X217065000Y-222377500D02*
G75*
G02*
X216965000Y-222377500I-50000J0D01*
G01*
X216965000Y-222377500D02*
G75*
G02*
X217065000Y-222377500I50000J0D01*
G01*
%TO.C,D24*%
X217065000Y-163925000D02*
G75*
G02*
X216965000Y-163925000I-50000J0D01*
G01*
X216965000Y-163925000D02*
G75*
G02*
X217065000Y-163925000I50000J0D01*
G01*
%TO.C,D60*%
X184535000Y-214750000D02*
G75*
G02*
X184435000Y-214750000I-50000J0D01*
G01*
X184435000Y-214750000D02*
G75*
G02*
X184535000Y-214750000I50000J0D01*
G01*
D13*
%TO.C,C71*%
X204890000Y-182540000D02*
X204890000Y-184110000D01*
X204890000Y-184110000D02*
X207775000Y-184110000D01*
X207775000Y-182540000D02*
X204890000Y-182540000D01*
D10*
%TO.C,D31*%
X217065000Y-146225000D02*
G75*
G02*
X216965000Y-146225000I-50000J0D01*
G01*
X216965000Y-146225000D02*
G75*
G02*
X217065000Y-146225000I50000J0D01*
G01*
%TO.C,D15*%
X217065000Y-186825000D02*
G75*
G02*
X216965000Y-186825000I-50000J0D01*
G01*
X216965000Y-186825000D02*
G75*
G02*
X217065000Y-186825000I50000J0D01*
G01*
%TO.C,D33*%
X184535000Y-143625000D02*
G75*
G02*
X184435000Y-143625000I-50000J0D01*
G01*
X184435000Y-143625000D02*
G75*
G02*
X184535000Y-143625000I50000J0D01*
G01*
%TO.C,D59*%
X184535000Y-212225000D02*
G75*
G02*
X184435000Y-212225000I-50000J0D01*
G01*
X184435000Y-212225000D02*
G75*
G02*
X184535000Y-212225000I50000J0D01*
G01*
%TO.C,D46*%
X184535000Y-176725000D02*
G75*
G02*
X184435000Y-176725000I-50000J0D01*
G01*
X184435000Y-176725000D02*
G75*
G02*
X184535000Y-176725000I50000J0D01*
G01*
%TO.C,D27*%
X217065000Y-156325000D02*
G75*
G02*
X216965000Y-156325000I-50000J0D01*
G01*
X216965000Y-156325000D02*
G75*
G02*
X217065000Y-156325000I50000J0D01*
G01*
D13*
%TO.C,U5*%
X200410000Y-144040000D02*
X198210000Y-144040000D01*
X200410000Y-144040000D02*
X202610000Y-144040000D01*
X200410000Y-150810000D02*
X198210000Y-150810000D01*
X200410000Y-150810000D02*
X202610000Y-150810000D01*
X204600000Y-150590000D02*
X204270000Y-150350000D01*
X204600000Y-150110000D01*
X204600000Y-150590000D01*
G36*
X204600000Y-150590000D02*
G01*
X204270000Y-150350000D01*
X204600000Y-150110000D01*
X204600000Y-150590000D01*
G37*
D10*
%TO.C,D30*%
X217065000Y-148725000D02*
G75*
G02*
X216965000Y-148725000I-50000J0D01*
G01*
X216965000Y-148725000D02*
G75*
G02*
X217065000Y-148725000I50000J0D01*
G01*
%TO.C,D20*%
X217065000Y-174125000D02*
G75*
G02*
X216965000Y-174125000I-50000J0D01*
G01*
X216965000Y-174125000D02*
G75*
G02*
X217065000Y-174125000I50000J0D01*
G01*
%TO.C,D57*%
X184535000Y-207125000D02*
G75*
G02*
X184435000Y-207125000I-50000J0D01*
G01*
X184435000Y-207125000D02*
G75*
G02*
X184535000Y-207125000I50000J0D01*
G01*
%TO.C,D9*%
X217065000Y-202025000D02*
G75*
G02*
X216965000Y-202025000I-50000J0D01*
G01*
X216965000Y-202025000D02*
G75*
G02*
X217065000Y-202025000I50000J0D01*
G01*
%TO.C,D22*%
X217065000Y-169000000D02*
G75*
G02*
X216965000Y-169000000I-50000J0D01*
G01*
X216965000Y-169000000D02*
G75*
G02*
X217065000Y-169000000I50000J0D01*
G01*
%TO.C,D17*%
X217065000Y-181750000D02*
G75*
G02*
X216965000Y-181750000I-50000J0D01*
G01*
X216965000Y-181750000D02*
G75*
G02*
X217065000Y-181750000I50000J0D01*
G01*
%TO.C,D29*%
X217065000Y-151325000D02*
G75*
G02*
X216965000Y-151325000I-50000J0D01*
G01*
X216965000Y-151325000D02*
G75*
G02*
X217065000Y-151325000I50000J0D01*
G01*
%TO.C,D18*%
X217065000Y-179250000D02*
G75*
G02*
X216965000Y-179250000I-50000J0D01*
G01*
X216965000Y-179250000D02*
G75*
G02*
X217065000Y-179250000I50000J0D01*
G01*
%TO.C,D50*%
X184535000Y-186825000D02*
G75*
G02*
X184435000Y-186825000I-50000J0D01*
G01*
X184435000Y-186825000D02*
G75*
G02*
X184535000Y-186825000I50000J0D01*
G01*
D13*
%TO.C,U9*%
X200610000Y-181415000D02*
X198410000Y-181415000D01*
X200610000Y-181415000D02*
X202810000Y-181415000D01*
X200610000Y-184635000D02*
X198410000Y-184635000D01*
X200610000Y-184635000D02*
X202810000Y-184635000D01*
X197710000Y-181590000D02*
X197470000Y-181260000D01*
X197950000Y-181260000D01*
X197710000Y-181590000D01*
G36*
X197710000Y-181590000D02*
G01*
X197470000Y-181260000D01*
X197950000Y-181260000D01*
X197710000Y-181590000D01*
G37*
D10*
%TO.C,D55*%
X184535000Y-202025000D02*
G75*
G02*
X184435000Y-202025000I-50000J0D01*
G01*
X184435000Y-202025000D02*
G75*
G02*
X184535000Y-202025000I50000J0D01*
G01*
%TO.C,D21*%
X217065000Y-171625000D02*
G75*
G02*
X216965000Y-171625000I-50000J0D01*
G01*
X216965000Y-171625000D02*
G75*
G02*
X217065000Y-171625000I50000J0D01*
G01*
%TO.C,D36*%
X184535000Y-151325000D02*
G75*
G02*
X184435000Y-151325000I-50000J0D01*
G01*
X184435000Y-151325000D02*
G75*
G02*
X184535000Y-151325000I50000J0D01*
G01*
%TO.C,D32*%
X217065000Y-143625000D02*
G75*
G02*
X216965000Y-143625000I-50000J0D01*
G01*
X216965000Y-143625000D02*
G75*
G02*
X217065000Y-143625000I50000J0D01*
G01*
D13*
%TO.C,R72*%
X206115121Y-181220000D02*
X205779879Y-181220000D01*
X206115121Y-181980000D02*
X205779879Y-181980000D01*
D10*
%TO.C,D61*%
X184535000Y-217325000D02*
G75*
G02*
X184435000Y-217325000I-50000J0D01*
G01*
X184435000Y-217325000D02*
G75*
G02*
X184535000Y-217325000I50000J0D01*
G01*
%TO.C,D23*%
X217065000Y-166525000D02*
G75*
G02*
X216965000Y-166525000I-50000J0D01*
G01*
X216965000Y-166525000D02*
G75*
G02*
X217065000Y-166525000I50000J0D01*
G01*
%TO.C,D34*%
X184535000Y-146250000D02*
G75*
G02*
X184435000Y-146250000I-50000J0D01*
G01*
X184435000Y-146250000D02*
G75*
G02*
X184535000Y-146250000I50000J0D01*
G01*
%TO.C,D63*%
X184535000Y-222425000D02*
G75*
G02*
X184435000Y-222425000I-50000J0D01*
G01*
X184435000Y-222425000D02*
G75*
G02*
X184535000Y-222425000I50000J0D01*
G01*
D13*
%TO.C,U4*%
X200412500Y-151690000D02*
X198212500Y-151690000D01*
X200412500Y-151690000D02*
X202612500Y-151690000D01*
X200412500Y-158460000D02*
X198212500Y-158460000D01*
X200412500Y-158460000D02*
X202612500Y-158460000D01*
X196552500Y-152150000D02*
X196222500Y-152390000D01*
X196222500Y-151910000D01*
X196552500Y-152150000D01*
G36*
X196552500Y-152150000D02*
G01*
X196222500Y-152390000D01*
X196222500Y-151910000D01*
X196552500Y-152150000D01*
G37*
D10*
%TO.C,D26*%
X217065000Y-158925000D02*
G75*
G02*
X216965000Y-158925000I-50000J0D01*
G01*
X216965000Y-158925000D02*
G75*
G02*
X217065000Y-158925000I50000J0D01*
G01*
%TO.C,D5*%
X217065000Y-212250000D02*
G75*
G02*
X216965000Y-212250000I-50000J0D01*
G01*
X216965000Y-212250000D02*
G75*
G02*
X217065000Y-212250000I50000J0D01*
G01*
%TO.C,D56*%
X184535000Y-204625000D02*
G75*
G02*
X184435000Y-204625000I-50000J0D01*
G01*
X184435000Y-204625000D02*
G75*
G02*
X184535000Y-204625000I50000J0D01*
G01*
D13*
%TO.C,R71*%
X205779879Y-179895000D02*
X206115121Y-179895000D01*
X205779879Y-180655000D02*
X206115121Y-180655000D01*
D10*
%TO.C,D6*%
X217065000Y-209750000D02*
G75*
G02*
X216965000Y-209750000I-50000J0D01*
G01*
X216965000Y-209750000D02*
G75*
G02*
X217065000Y-209750000I50000J0D01*
G01*
%TO.C,D53*%
X184535000Y-197025000D02*
G75*
G02*
X184435000Y-197025000I-50000J0D01*
G01*
X184435000Y-197025000D02*
G75*
G02*
X184535000Y-197025000I50000J0D01*
G01*
%TO.C,D35*%
X184535000Y-148725000D02*
G75*
G02*
X184435000Y-148725000I-50000J0D01*
G01*
X184435000Y-148725000D02*
G75*
G02*
X184535000Y-148725000I50000J0D01*
G01*
D13*
%TO.C,U8*%
X200410000Y-207562500D02*
X198210000Y-207562500D01*
X200410000Y-207562500D02*
X202610000Y-207562500D01*
X200410000Y-214332500D02*
X198210000Y-214332500D01*
X200410000Y-214332500D02*
X202610000Y-214332500D01*
X204600000Y-214112500D02*
X204270000Y-213872500D01*
X204600000Y-213632500D01*
X204600000Y-214112500D01*
G36*
X204600000Y-214112500D02*
G01*
X204270000Y-213872500D01*
X204600000Y-213632500D01*
X204600000Y-214112500D01*
G37*
D10*
%TO.C,D41*%
X184535000Y-164000000D02*
G75*
G02*
X184435000Y-164000000I-50000J0D01*
G01*
X184435000Y-164000000D02*
G75*
G02*
X184535000Y-164000000I50000J0D01*
G01*
D13*
%TO.C,U3*%
X200387500Y-166990000D02*
X198187500Y-166990000D01*
X200387500Y-166990000D02*
X202587500Y-166990000D01*
X200387500Y-173760000D02*
X198187500Y-173760000D01*
X200387500Y-173760000D02*
X202587500Y-173760000D01*
X196527500Y-167450000D02*
X196197500Y-167690000D01*
X196197500Y-167210000D01*
X196527500Y-167450000D01*
G36*
X196527500Y-167450000D02*
G01*
X196197500Y-167690000D01*
X196197500Y-167210000D01*
X196527500Y-167450000D01*
G37*
D10*
%TO.C,D25*%
X217065000Y-161425000D02*
G75*
G02*
X216965000Y-161425000I-50000J0D01*
G01*
X216965000Y-161425000D02*
G75*
G02*
X217065000Y-161425000I50000J0D01*
G01*
%TO.C,D7*%
X217065000Y-207125000D02*
G75*
G02*
X216965000Y-207125000I-50000J0D01*
G01*
X216965000Y-207125000D02*
G75*
G02*
X217065000Y-207125000I50000J0D01*
G01*
%TO.C,D4*%
X217065000Y-214750000D02*
G75*
G02*
X216965000Y-214750000I-50000J0D01*
G01*
X216965000Y-214750000D02*
G75*
G02*
X217065000Y-214750000I50000J0D01*
G01*
%TO.C,D2*%
X217065000Y-219825000D02*
G75*
G02*
X216965000Y-219825000I-50000J0D01*
G01*
X216965000Y-219825000D02*
G75*
G02*
X217065000Y-219825000I50000J0D01*
G01*
D13*
%TO.C,U2*%
X200412500Y-199940000D02*
X198212500Y-199940000D01*
X200412500Y-199940000D02*
X202612500Y-199940000D01*
X200412500Y-206710000D02*
X198212500Y-206710000D01*
X200412500Y-206710000D02*
X202612500Y-206710000D01*
X196552500Y-200400000D02*
X196222500Y-200640000D01*
X196222500Y-200160000D01*
X196552500Y-200400000D01*
G36*
X196552500Y-200400000D02*
G01*
X196222500Y-200640000D01*
X196222500Y-200160000D01*
X196552500Y-200400000D01*
G37*
D10*
%TO.C,D19*%
X217065000Y-176625000D02*
G75*
G02*
X216965000Y-176625000I-50000J0D01*
G01*
X216965000Y-176625000D02*
G75*
G02*
X217065000Y-176625000I50000J0D01*
G01*
%TD*%
%LPC*%
D14*
%TO.C,D11*%
X216322500Y-197000000D03*
X215177500Y-197000000D03*
%TD*%
D15*
%TO.C,D38*%
X185177500Y-156325000D03*
X186322500Y-156325000D03*
%TD*%
%TO.C,D43*%
X185177500Y-169000000D03*
X186322500Y-169000000D03*
%TD*%
D16*
%TO.C,U6*%
X203275000Y-165700000D03*
X203275000Y-165050000D03*
X203275000Y-164400000D03*
X203275000Y-163750000D03*
X203275000Y-163100000D03*
X203275000Y-162450000D03*
X203275000Y-161800000D03*
X203275000Y-161150000D03*
X203275000Y-160500000D03*
X203275000Y-159850000D03*
X197550000Y-159850000D03*
X197550000Y-160500000D03*
X197550000Y-161150000D03*
X197550000Y-161800000D03*
X197550000Y-162450000D03*
X197550000Y-163100000D03*
X197550000Y-163750000D03*
X197550000Y-164400000D03*
X197550000Y-165050000D03*
X197550000Y-165700000D03*
%TD*%
D15*
%TO.C,D51*%
X185177500Y-189325000D03*
X186322500Y-189325000D03*
%TD*%
%TO.C,D39*%
X185177500Y-158925000D03*
X186322500Y-158925000D03*
%TD*%
D14*
%TO.C,D10*%
X216322500Y-199525000D03*
X215177500Y-199525000D03*
%TD*%
D16*
%TO.C,U7*%
X203262500Y-198637500D03*
X203262500Y-197987500D03*
X203262500Y-197337500D03*
X203262500Y-196687500D03*
X203262500Y-196037500D03*
X203262500Y-195387500D03*
X203262500Y-194737500D03*
X203262500Y-194087500D03*
X203262500Y-193437500D03*
X203262500Y-192787500D03*
X197537500Y-192787500D03*
X197537500Y-193437500D03*
X197537500Y-194087500D03*
X197537500Y-194737500D03*
X197537500Y-195387500D03*
X197537500Y-196037500D03*
X197537500Y-196687500D03*
X197537500Y-197337500D03*
X197537500Y-197987500D03*
X197537500Y-198637500D03*
%TD*%
D14*
%TO.C,D8*%
X216322500Y-204625000D03*
X215177500Y-204625000D03*
%TD*%
D15*
%TO.C,D47*%
X185177500Y-179225000D03*
X186322500Y-179225000D03*
%TD*%
%TO.C,D62*%
X185177500Y-219925000D03*
X186322500Y-219925000D03*
%TD*%
%TO.C,D49*%
X185177500Y-184250000D03*
X186322500Y-184250000D03*
%TD*%
D14*
%TO.C,D13*%
X216322500Y-191925000D03*
X215177500Y-191925000D03*
%TD*%
D15*
%TO.C,D52*%
X185177500Y-191925000D03*
X186322500Y-191925000D03*
%TD*%
D14*
%TO.C,D28*%
X216322500Y-153825000D03*
X215177500Y-153825000D03*
%TD*%
D15*
%TO.C,D54*%
X185177500Y-199525000D03*
X186322500Y-199525000D03*
%TD*%
%TO.C,D37*%
X185177500Y-153825000D03*
X186322500Y-153825000D03*
%TD*%
%TO.C,D42*%
X185177500Y-166525000D03*
X186322500Y-166525000D03*
%TD*%
D14*
%TO.C,D3*%
X216322500Y-217325000D03*
X215177500Y-217325000D03*
%TD*%
D15*
%TO.C,D58*%
X185177500Y-209725000D03*
X186322500Y-209725000D03*
%TD*%
D14*
%TO.C,D12*%
X216322500Y-194500000D03*
X215177500Y-194500000D03*
%TD*%
D15*
%TO.C,D45*%
X185177500Y-174250000D03*
X186322500Y-174250000D03*
%TD*%
D17*
%TO.C,U1*%
X197547500Y-215700000D03*
X197547500Y-216350000D03*
X197547500Y-217000000D03*
X197547500Y-217650000D03*
X197547500Y-218300000D03*
X197547500Y-218950000D03*
X197547500Y-219600000D03*
X197547500Y-220250000D03*
X197547500Y-220900000D03*
X197547500Y-221550000D03*
X203272500Y-221550000D03*
X203272500Y-220900000D03*
X203272500Y-220250000D03*
X203272500Y-219600000D03*
X203272500Y-218950000D03*
X203272500Y-218300000D03*
X203272500Y-217650000D03*
X203272500Y-217000000D03*
X203272500Y-216350000D03*
X203272500Y-215700000D03*
%TD*%
D14*
%TO.C,D14*%
X216322500Y-189325000D03*
X215177500Y-189325000D03*
%TD*%
D15*
%TO.C,D48*%
X185177500Y-181725000D03*
X186322500Y-181725000D03*
%TD*%
%TO.C,D44*%
X185177500Y-171625000D03*
X186322500Y-171625000D03*
%TD*%
D18*
%TO.C,C72*%
X206495000Y-185050000D03*
X205360000Y-185050000D03*
%TD*%
D15*
%TO.C,D40*%
X185177500Y-161500000D03*
X186322500Y-161500000D03*
%TD*%
D14*
%TO.C,D1*%
X216322500Y-222377500D03*
X215177500Y-222377500D03*
%TD*%
%TO.C,D24*%
X216322500Y-163925000D03*
X215177500Y-163925000D03*
%TD*%
D15*
%TO.C,D60*%
X185177500Y-214750000D03*
X186322500Y-214750000D03*
%TD*%
D19*
%TO.C,C71*%
X205800000Y-183325000D03*
X207750000Y-183325000D03*
%TD*%
D14*
%TO.C,D31*%
X216322500Y-146225000D03*
X215177500Y-146225000D03*
%TD*%
%TO.C,D15*%
X216322500Y-186825000D03*
X215177500Y-186825000D03*
%TD*%
D15*
%TO.C,D33*%
X185177500Y-143625000D03*
X186322500Y-143625000D03*
%TD*%
%TO.C,D59*%
X185177500Y-212225000D03*
X186322500Y-212225000D03*
%TD*%
%TO.C,D46*%
X185177500Y-176725000D03*
X186322500Y-176725000D03*
%TD*%
D14*
%TO.C,D27*%
X216322500Y-156325000D03*
X215177500Y-156325000D03*
%TD*%
D16*
%TO.C,U5*%
X203272500Y-150350000D03*
X203272500Y-149700000D03*
X203272500Y-149050000D03*
X203272500Y-148400000D03*
X203272500Y-147750000D03*
X203272500Y-147100000D03*
X203272500Y-146450000D03*
X203272500Y-145800000D03*
X203272500Y-145150000D03*
X203272500Y-144500000D03*
X197547500Y-144500000D03*
X197547500Y-145150000D03*
X197547500Y-145800000D03*
X197547500Y-146450000D03*
X197547500Y-147100000D03*
X197547500Y-147750000D03*
X197547500Y-148400000D03*
X197547500Y-149050000D03*
X197547500Y-149700000D03*
X197547500Y-150350000D03*
%TD*%
D14*
%TO.C,D30*%
X216322500Y-148725000D03*
X215177500Y-148725000D03*
%TD*%
%TO.C,D20*%
X216322500Y-174125000D03*
X215177500Y-174125000D03*
%TD*%
D15*
%TO.C,D57*%
X185177500Y-207125000D03*
X186322500Y-207125000D03*
%TD*%
D14*
%TO.C,D9*%
X216322500Y-202025000D03*
X215177500Y-202025000D03*
%TD*%
%TO.C,D22*%
X216322500Y-169000000D03*
X215177500Y-169000000D03*
%TD*%
%TO.C,D17*%
X216322500Y-181750000D03*
X215177500Y-181750000D03*
%TD*%
%TO.C,D29*%
X216322500Y-151325000D03*
X215177500Y-151325000D03*
%TD*%
%TO.C,D18*%
X216322500Y-179250000D03*
X215177500Y-179250000D03*
%TD*%
D15*
%TO.C,D50*%
X185177500Y-186825000D03*
X186322500Y-186825000D03*
%TD*%
D17*
%TO.C,U9*%
X197747500Y-182050000D03*
X197747500Y-182700000D03*
X197747500Y-183350000D03*
X197747500Y-184000000D03*
X203472500Y-184000000D03*
X203472500Y-183350000D03*
X203472500Y-182700000D03*
X203472500Y-182050000D03*
%TD*%
D15*
%TO.C,D55*%
X185177500Y-202025000D03*
X186322500Y-202025000D03*
%TD*%
D14*
%TO.C,D21*%
X216322500Y-171625000D03*
X215177500Y-171625000D03*
%TD*%
D15*
%TO.C,D36*%
X185177500Y-151325000D03*
X186322500Y-151325000D03*
%TD*%
D14*
%TO.C,D32*%
X216322500Y-143625000D03*
X215177500Y-143625000D03*
%TD*%
D20*
%TO.C,R72*%
X206545000Y-181600000D03*
X205350000Y-181600000D03*
%TD*%
D15*
%TO.C,D61*%
X185177500Y-217325000D03*
X186322500Y-217325000D03*
%TD*%
D14*
%TO.C,D23*%
X216322500Y-166525000D03*
X215177500Y-166525000D03*
%TD*%
D15*
%TO.C,D34*%
X185177500Y-146250000D03*
X186322500Y-146250000D03*
%TD*%
%TO.C,D63*%
X185177500Y-222425000D03*
X186322500Y-222425000D03*
%TD*%
D17*
%TO.C,U4*%
X197550000Y-152150000D03*
X197550000Y-152800000D03*
X197550000Y-153450000D03*
X197550000Y-154100000D03*
X197550000Y-154750000D03*
X197550000Y-155400000D03*
X197550000Y-156050000D03*
X197550000Y-156700000D03*
X197550000Y-157350000D03*
X197550000Y-158000000D03*
X203275000Y-158000000D03*
X203275000Y-157350000D03*
X203275000Y-156700000D03*
X203275000Y-156050000D03*
X203275000Y-155400000D03*
X203275000Y-154750000D03*
X203275000Y-154100000D03*
X203275000Y-153450000D03*
X203275000Y-152800000D03*
X203275000Y-152150000D03*
%TD*%
D21*
%TO.C,J1*%
X212060000Y-222400000D03*
D22*
X212060000Y-219860000D03*
X212060000Y-217320000D03*
X212060000Y-214780000D03*
X212060000Y-212240000D03*
X212060000Y-209700000D03*
X212060000Y-207160000D03*
X212060000Y-204620000D03*
X212060000Y-202080000D03*
X212060000Y-199540000D03*
X212060000Y-197000000D03*
X212060000Y-194460000D03*
X212060000Y-191920000D03*
X212060000Y-189380000D03*
X212060000Y-186840000D03*
X212060000Y-184300000D03*
X212060000Y-181760000D03*
X212060000Y-179220000D03*
X212060000Y-176680000D03*
X212060000Y-174140000D03*
X212060000Y-171600000D03*
X212060000Y-169060000D03*
X212060000Y-166520000D03*
X212060000Y-163980000D03*
X212060000Y-161440000D03*
X212060000Y-158900000D03*
X212060000Y-156360000D03*
X212060000Y-153820000D03*
X212060000Y-151280000D03*
X212060000Y-148740000D03*
X212060000Y-146200000D03*
X212060000Y-143660000D03*
X189200000Y-143660000D03*
X189200000Y-146200000D03*
X189200000Y-148740000D03*
X189200000Y-151280000D03*
X189200000Y-153820000D03*
X189200000Y-156360000D03*
X189200000Y-158900000D03*
X189200000Y-161440000D03*
X189200000Y-163980000D03*
X189200000Y-166520000D03*
X189200000Y-169060000D03*
X189200000Y-171600000D03*
X189200000Y-174140000D03*
X189200000Y-176680000D03*
X189200000Y-179220000D03*
X189200000Y-181760000D03*
X189200000Y-184300000D03*
X189200000Y-186840000D03*
X189200000Y-189380000D03*
X189200000Y-191920000D03*
X189200000Y-194460000D03*
X189200000Y-197000000D03*
X189200000Y-199540000D03*
X189200000Y-202080000D03*
X189200000Y-204620000D03*
X189200000Y-207160000D03*
X189200000Y-209700000D03*
X189200000Y-212240000D03*
X189200000Y-214780000D03*
X189200000Y-217320000D03*
X189200000Y-219860000D03*
X189200000Y-222400000D03*
%TD*%
D14*
%TO.C,D26*%
X216322500Y-158925000D03*
X215177500Y-158925000D03*
%TD*%
%TO.C,D5*%
X216322500Y-212250000D03*
X215177500Y-212250000D03*
%TD*%
D15*
%TO.C,D56*%
X185177500Y-204625000D03*
X186322500Y-204625000D03*
%TD*%
D23*
%TO.C,R71*%
X205350000Y-180275000D03*
X206545000Y-180275000D03*
%TD*%
D14*
%TO.C,D6*%
X216322500Y-209750000D03*
X215177500Y-209750000D03*
%TD*%
D15*
%TO.C,D53*%
X185177500Y-197025000D03*
X186322500Y-197025000D03*
%TD*%
%TO.C,D35*%
X185177500Y-148725000D03*
X186322500Y-148725000D03*
%TD*%
D16*
%TO.C,U8*%
X203272500Y-213872500D03*
X203272500Y-213222500D03*
X203272500Y-212572500D03*
X203272500Y-211922500D03*
X203272500Y-211272500D03*
X203272500Y-210622500D03*
X203272500Y-209972500D03*
X203272500Y-209322500D03*
X203272500Y-208672500D03*
X203272500Y-208022500D03*
X197547500Y-208022500D03*
X197547500Y-208672500D03*
X197547500Y-209322500D03*
X197547500Y-209972500D03*
X197547500Y-210622500D03*
X197547500Y-211272500D03*
X197547500Y-211922500D03*
X197547500Y-212572500D03*
X197547500Y-213222500D03*
X197547500Y-213872500D03*
%TD*%
D15*
%TO.C,D41*%
X185177500Y-164000000D03*
X186322500Y-164000000D03*
%TD*%
D17*
%TO.C,U3*%
X197525000Y-167450000D03*
X197525000Y-168100000D03*
X197525000Y-168750000D03*
X197525000Y-169400000D03*
X197525000Y-170050000D03*
X197525000Y-170700000D03*
X197525000Y-171350000D03*
X197525000Y-172000000D03*
X197525000Y-172650000D03*
X197525000Y-173300000D03*
X203250000Y-173300000D03*
X203250000Y-172650000D03*
X203250000Y-172000000D03*
X203250000Y-171350000D03*
X203250000Y-170700000D03*
X203250000Y-170050000D03*
X203250000Y-169400000D03*
X203250000Y-168750000D03*
X203250000Y-168100000D03*
X203250000Y-167450000D03*
%TD*%
D14*
%TO.C,D25*%
X216322500Y-161425000D03*
X215177500Y-161425000D03*
%TD*%
%TO.C,D7*%
X216322500Y-207125000D03*
X215177500Y-207125000D03*
%TD*%
%TO.C,D4*%
X216322500Y-214750000D03*
X215177500Y-214750000D03*
%TD*%
%TO.C,D2*%
X216322500Y-219825000D03*
X215177500Y-219825000D03*
%TD*%
D17*
%TO.C,U2*%
X197550000Y-200400000D03*
X197550000Y-201050000D03*
X197550000Y-201700000D03*
X197550000Y-202350000D03*
X197550000Y-203000000D03*
X197550000Y-203650000D03*
X197550000Y-204300000D03*
X197550000Y-204950000D03*
X197550000Y-205600000D03*
X197550000Y-206250000D03*
X203275000Y-206250000D03*
X203275000Y-205600000D03*
X203275000Y-204950000D03*
X203275000Y-204300000D03*
X203275000Y-203650000D03*
X203275000Y-203000000D03*
X203275000Y-202350000D03*
X203275000Y-201700000D03*
X203275000Y-201050000D03*
X203275000Y-200400000D03*
%TD*%
D14*
%TO.C,D19*%
X216322500Y-176625000D03*
X215177500Y-176625000D03*
%TD*%
%LPD*%
M02*
